<svg width="501" height="501" viewBox="0 0 501 501" fill="none" xmlns="http://www.w3.org/2000/svg">
<circle cx="250" cy="250" r="200" fill="#454545"/>
<path d="M250.333 0.333496C200.888 0.333496 152.553 14.9957 111.441 42.4661C70.3283 69.9364 38.2851 108.981 19.3632 154.663C0.44133 200.344 -4.5095 250.611 5.1368 299.106C14.7831 347.601 38.5933 392.147 73.5564 427.11C108.52 462.073 153.065 485.883 201.56 495.53C250.056 505.176 300.322 500.225 346.004 481.303C391.685 462.381 430.73 430.338 458.2 389.226C485.671 348.114 500.333 299.779 500.333 250.333C500.255 184.053 473.89 120.51 427.023 73.6432C380.156 26.776 316.613 0.411689 250.333 0.333496ZM363.969 273.061H273.06V363.97C273.06 369.997 270.666 375.778 266.404 380.04C262.141 384.303 256.361 386.697 250.333 386.697C244.305 386.697 238.525 384.303 234.262 380.04C230 375.778 227.606 369.997 227.606 363.97V273.061H136.697C130.669 273.061 124.888 270.666 120.626 266.404C116.364 262.142 113.969 256.361 113.969 250.333C113.969 244.306 116.364 238.525 120.626 234.263C124.888 230.001 130.669 227.606 136.697 227.606H227.606V136.697C227.606 130.669 230 124.889 234.262 120.627C238.525 116.364 244.305 113.97 250.333 113.97C256.361 113.97 262.141 116.364 266.404 120.627C270.666 124.889 273.06 130.669 273.06 136.697V227.606H363.969C369.997 227.606 375.778 230.001 380.04 234.263C384.302 238.525 386.697 244.306 386.697 250.333C386.697 256.361 384.302 262.142 380.04 266.404C375.778 270.666 369.997 273.061 363.969 273.061Z" fill="white"/>
</svg>
