<svg width="500" height="500" viewBox="0 0 500 500" fill="none" xmlns="http://www.w3.org/2000/svg">
<ellipse cx="249.5" cy="243" rx="158.5" ry="167" fill="white"/>
<path d="M250 0C200.555 0 152.22 14.6622 111.108 42.1326C69.9952 69.6029 37.9521 108.648 19.0302 154.329C0.108322 200.011 -4.84251 250.277 4.80379 298.773C14.4501 347.268 38.2603 391.814 73.2234 426.777C108.187 461.74 152.732 485.55 201.227 495.196C249.723 504.843 299.989 499.892 345.671 480.97C391.352 462.048 430.397 430.005 457.867 388.892C485.338 347.78 500 299.445 500 250C499.922 183.72 473.557 120.177 426.69 73.3097C379.823 26.4425 316.28 0.0781925 250 0ZM363.636 272.727H272.727V363.636C272.727 369.664 270.333 375.445 266.071 379.707C261.808 383.969 256.028 386.364 250 386.364C243.972 386.364 238.192 383.969 233.929 379.707C229.667 375.445 227.273 369.664 227.273 363.636V272.727H136.364C130.336 272.727 124.555 270.333 120.293 266.071C116.031 261.808 113.636 256.028 113.636 250C113.636 243.972 116.031 238.192 120.293 233.929C124.555 229.667 130.336 227.273 136.364 227.273H227.273V136.364C227.273 130.336 229.667 124.555 233.929 120.293C238.192 116.031 243.972 113.636 250 113.636C256.028 113.636 261.808 116.031 266.071 120.293C270.333 124.555 272.727 130.336 272.727 136.364V227.273H363.636C369.664 227.273 375.445 229.667 379.707 233.929C383.969 238.192 386.364 243.972 386.364 250C386.364 256.028 383.969 261.808 379.707 266.071C375.445 270.333 369.664 272.727 363.636 272.727Z" fill="#1A1A1A"/>
</svg>
