<svg width="512" height="512" viewBox="0 0 512 512" fill="none" xmlns="http://www.w3.org/2000/svg">
<g clip-path="url(#clip0_13191_785)">
<path d="M255.999 511.999C397.384 511.999 511.999 397.384 511.999 255.999C511.999 114.615 397.384 0 255.999 0C114.615 0 0 114.615 0 255.999C0 397.384 114.615 511.999 255.999 511.999Z" fill="#FA5759"/>
<path d="M79.5413 255.999C79.5413 128.143 173.295 22.1815 295.79 3.07364C282.83 1.05178 269.529 0 255.999 0C114.615 0 0 114.615 0 255.999C0 397.384 114.615 511.999 255.999 511.999C269.528 511.999 282.83 510.947 295.79 508.925C173.295 489.817 79.5413 383.856 79.5413 255.999Z" fill="#D73638"/>
<path d="M399.029 164.7C409.102 176.314 414.925 191.724 414.035 208.509C412.37 240.011 386.743 265.452 355.221 266.9C329.376 268.079 306.82 253.383 296.488 231.727C295.072 228.748 296.116 225.17 298.888 223.36L390.311 163.449C393.114 161.618 396.826 162.167 399.029 164.7Z" fill="#F9F7F8"/>
<path d="M373.555 205.155C373.555 195.363 366.92 187.142 357.908 184.684L331.317 202.11C331.173 203.107 331.074 204.119 331.074 205.156C331.074 216.887 340.584 226.397 352.314 226.397C364.045 226.396 373.555 216.886 373.555 205.155Z" fill="#473535"/>
<path d="M213.111 223.36C215.883 225.17 216.927 228.748 215.511 231.727C205.179 253.383 182.623 268.079 156.778 266.9C125.256 265.452 99.6286 240.011 97.9635 208.509C97.0741 191.724 102.897 176.314 112.97 164.7C115.173 162.167 118.885 161.618 121.688 163.449L213.111 223.36Z" fill="#F9F7F8"/>
<path d="M138.445 205.155C138.445 216.886 147.955 226.396 159.686 226.396C171.416 226.396 180.926 216.886 180.926 205.155C180.926 204.118 180.827 203.106 180.683 202.109L154.092 184.683C145.08 187.142 138.445 195.363 138.445 205.155Z" fill="#473535"/>
<path d="M329.123 393.742C327.024 393.742 324.933 392.896 323.403 391.228C305.981 372.228 281.225 361.331 255.482 361.331C229.74 361.331 204.982 372.228 187.561 391.228C184.666 394.385 179.759 394.598 176.602 391.703C173.445 388.808 173.233 383.902 176.127 380.744C196.479 358.548 225.403 345.818 255.482 345.818C285.562 345.818 314.486 358.548 334.838 380.744C337.732 383.901 337.52 388.807 334.363 391.703C332.874 393.068 330.995 393.742 329.123 393.742Z" fill="#473535"/>
<path d="M278.012 424.293C275.914 424.293 273.823 423.447 272.293 421.779C267.981 417.075 261.853 414.378 255.482 414.378C249.112 414.378 242.985 417.075 238.671 421.779C235.776 424.935 230.869 425.148 227.712 422.253C224.555 419.358 224.343 414.452 227.237 411.294C234.48 403.395 244.775 398.864 255.482 398.864C266.189 398.864 276.484 403.395 283.727 411.294C286.622 414.451 286.41 419.357 283.253 422.253C281.763 423.618 279.885 424.293 278.012 424.293Z" fill="#D73638"/>
</g>
<defs>
<clipPath id="clip0_13191_785">
<rect width="512" height="512" fill="white"/>
</clipPath>
</defs>
</svg>
