<svg width="290" height="492" viewBox="0 0 290 492" fill="none" xmlns="http://www.w3.org/2000/svg">
<g clip-path="url(#clip0_13143_710)">
<mask id="mask0_13143_710" style="mask-type:luminance" maskUnits="userSpaceOnUse" x="0" y="0" width="290" height="492">
<path d="M290 0H0V492H290V0Z" fill="white"/>
</mask>
<g mask="url(#mask0_13143_710)">
<path d="M97.6081 246.104L281.664 62.04C286.732 56.984 289.52 50.224 289.52 43.016C289.52 35.804 286.732 29.048 281.664 23.984L265.536 7.864C260.476 2.792 253.712 0 246.504 0C239.296 0 232.54 2.792 227.476 7.864L8.32809 227.008C3.24409 232.088 0.460088 238.876 0.480088 246.092C0.460088 253.34 3.24009 260.12 8.32809 265.204L227.272 484.136C232.336 489.208 239.092 492 246.304 492C253.512 492 260.268 489.208 265.336 484.136L281.46 468.016C291.952 457.524 291.952 440.444 281.46 429.956L97.6081 246.104Z" fill="#414141"/>
</g>
</g>
<defs>
<clipPath id="clip0_13143_710">
<rect width="290" height="492" fill="white"/>
</clipPath>
</defs>
</svg>
