<svg xmlns="http://www.w3.org/2000/svg" fill="none" height="512" viewBox="0 0 24 24" width="512"><g fill="#555555"><path d="m8.75 10.75c0 .5523-.44772 1-1 1s-1-.4477-1-1 .44772-1 1-1 1 .4477 1 1z" fill="#555555"/><path d="m12.75 10.75c0 .5523-.4477 1-1 1s-1-.4477-1-1 .4477-1 1-1 1 .4477 1 1z" fill="#555555"/><path d="m16.75 10.75c0 .5523-.4477 1-1 1s-1-.4477-1-1 .4477-1 1-1 1 .4477 1 1z" fill="#555555"/><path clip-rule="evenodd" d="m17 4.75c0-1.51878 1.2312-2.75 2.75-2.75s2.75 1.23122 2.75 2.75-1.2312 2.75-2.75 2.75-2.75-1.23122-2.75-2.75zm2.75-1.25c-.6904 0-1.25.55964-1.25 1.25s.5596 1.25 1.25 1.25 1.25-.55964 1.25-1.25-.5596-1.25-1.25-1.25z" fill-rule="evenodd" fill="#555555"/><path d="m21.407 8.39173c.4605-.20987 1.0784.0632 1.0855.56924.0075.52494.0075 1.10703.0075 1.75543v1.3647c.0002 1.5486.0004 2.4933-.2323 3.2868-.551 1.8792-2.0206 3.3488-3.8998 3.8998-.7935.2327-1.7382.2325-3.2868.2323h-.6957l-.0603.0001c-.8672.0055-1.7119.2763-2.4208.7758l-.0492.035-2.61069 1.8648c-1.50451 1.0746-3.48153-.4773-2.79487-2.194.09229-.2307-.07763-.4817-.32613-.4817h-.60175c-2.49725 0-4.52166-2.0244-4.52166-4.5217v-4.2619c-.000005-1.37168-.000008-2.44711.07061-3.31146.07191-.88015.22077-1.60726.5561-2.26539.55127-1.08193 1.43091-1.96157 2.51284-2.51284.65813-.33533 1.38524-.48419 2.26539-.5561.86435-.07062 1.93978-.07061 3.3115-.07061h4.06716c.6483 0 1.2305 0 1.7554.00745.5061.00719.7791.62505.5693 1.08557-.1105.24241-.3467.4176-.6131.41398-.5063-.00687-1.0819-.007-1.7452-.007h-4c-1.41251 0-2.42678.00058-3.22292.06563-.78738.06433-1.29511.18796-1.70654.39759-.79969.40746-1.44986 1.05763-1.85732 1.85732-.20963.41143-.33326.91916-.39759 1.70654-.06505.79614-.06563 1.81041-.06563 3.22292v4.2283c0 1.6689 1.35284 3.0217 3.02166 3.0217h.60175c1.3097 0 2.20526 1.3228 1.71885 2.5388-.13029.3257.24483.6202.53029.4163l2.66765-1.9054c.9591-.6758 2.102-1.0421 3.2753-1.0496l.0699-.0001h.5488c1.7419 0 2.4521-.0076 3.0116-.1717 1.389-.4073 2.4752-1.4935 2.8825-2.8825.1641-.5595.1717-1.2697.1717-3.0116v-1.1842c0-.6633-.0001-1.23886-.007-1.7452-.0036-.26637.1716-.50259.414-.61307z" fill="#555555"/></g></svg>