<svg width="31" height="31" viewBox="0 0 31 31" fill="none" xmlns="http://www.w3.org/2000/svg">
<path d="M11.3021 13.8854C11.3021 14.5988 10.7238 15.1771 10.0104 15.1771C9.29706 15.1771 8.71875 14.5988 8.71875 13.8854C8.71875 13.172 9.29706 12.5938 10.0104 12.5938C10.7238 12.5938 11.3021 13.172 11.3021 13.8854Z" fill="white"/>
<path d="M16.4688 13.8854C16.4688 14.5988 15.8906 15.1771 15.1772 15.1771C14.4638 15.1771 13.8855 14.5988 13.8855 13.8854C13.8855 13.172 14.4638 12.5938 15.1772 12.5938C15.8906 12.5938 16.4688 13.172 16.4688 13.8854Z" fill="white"/>
<path d="M21.6356 13.8854C21.6356 14.5988 21.0573 15.1771 20.3439 15.1771C19.6305 15.1771 19.0522 14.5988 19.0522 13.8854C19.0522 13.172 19.6305 12.5938 20.3439 12.5938C21.0573 12.5938 21.6356 13.172 21.6356 13.8854Z" fill="white"/>
<path fill-rule="evenodd" clip-rule="evenodd" d="M21.9585 6.13534C21.9585 4.17358 23.5488 2.58325 25.5106 2.58325C27.4724 2.58325 29.0627 4.17358 29.0627 6.13534C29.0627 8.09709 27.4724 9.68742 25.5106 9.68742C23.5488 9.68742 21.9585 8.09709 21.9585 6.13534ZM25.5106 4.52075C24.6188 4.52075 23.896 5.24362 23.896 6.13534C23.896 7.02705 24.6188 7.74992 25.5106 7.74992C26.4023 7.74992 27.1252 7.02705 27.1252 6.13534C27.1252 5.24362 26.4023 4.52075 25.5106 4.52075Z" fill="white"/>
<path d="M27.6508 10.8392C28.2456 10.5682 29.0437 10.9209 29.0529 11.5745C29.0626 12.2526 29.0626 13.0044 29.0626 13.8419V15.6047C29.0628 17.6049 29.0631 18.8252 28.7625 19.8501C28.0508 22.2774 26.1526 24.1757 23.7253 24.8874C22.7004 25.1879 21.4801 25.1877 19.4798 25.1874H18.5812L18.5033 25.1875C17.3832 25.1947 16.2921 25.5444 15.3765 26.1896L15.3129 26.2348L11.9408 28.6435C9.99745 30.0316 7.4438 28.027 8.33074 25.8096C8.44995 25.5116 8.23047 25.1874 7.90949 25.1874H7.13223C3.90661 25.1874 1.29175 22.5726 1.29175 19.3469V13.8419C1.29174 12.0702 1.29174 10.6811 1.38295 9.56463C1.47584 8.42777 1.66811 7.48859 2.10125 6.6385C2.81331 5.24101 3.94951 4.10481 5.347 3.39275C6.19709 2.95962 7.13627 2.76734 8.27313 2.67446C9.38958 2.58324 10.7787 2.58325 12.5505 2.58325H17.8039C18.6413 2.58325 19.3933 2.58325 20.0713 2.59288C20.725 2.60216 21.0776 3.40023 20.8066 3.99507C20.6639 4.30818 20.3588 4.53447 20.0147 4.52979C19.3607 4.52092 18.6173 4.52075 17.7605 4.52075H12.5938C10.7693 4.52075 9.45924 4.5215 8.43089 4.60552C7.41386 4.68862 6.75804 4.84831 6.22661 5.11908C5.19368 5.64538 4.35388 6.48518 3.82757 7.51812C3.5568 8.04955 3.39711 8.70536 3.31402 9.7224C3.23 10.7507 3.22925 12.0608 3.22925 13.8853V19.3469C3.22925 21.5026 4.97667 23.2499 7.13223 23.2499H7.90949C9.60118 23.2499 10.7579 24.9585 10.1297 26.5292C9.96138 26.9499 10.4459 27.3303 10.8146 27.0669L14.2603 24.6058C15.4992 23.7329 16.9754 23.2597 18.4909 23.25L18.5812 23.2499H19.2901C21.54 23.2499 22.4574 23.2401 23.1801 23.0281C24.9742 22.502 26.3772 21.099 26.9033 19.3049C27.1153 18.5822 27.1251 17.6649 27.1251 15.4149V13.8853C27.1251 13.0286 27.125 12.2851 27.116 11.6311C27.1114 11.2871 27.3377 10.9819 27.6508 10.8392Z" fill="white"/>
</svg>
