<svg xmlns="http://www.w3.org/2000/svg" width="30" height="30" viewBox="0 0 30 30" fill="none">
<g clip-path="url(#clip0_6890_4720)">
<path d="M28.128 21.6645C31.027 17.5971 30.5839 12.0246 26.6242 8.39461C24.815 6.73611 22.5086 5.70363 20.0171 5.41529C20.0016 5.39619 19.9857 5.37727 19.9683 5.35916C17.8009 3.1077 14.687 1.81641 11.4251 1.81641C5.21772 1.81641 0 6.44139 0 12.3633C0 14.4396 0.644941 16.4299 1.87008 18.1489L0.158613 23.5223C0.0510352 23.86 0.156855 24.2292 0.426914 24.4587C0.697441 24.6887 1.07906 24.7328 1.39436 24.5725L6.59906 21.926C7.66793 22.3862 8.80137 22.6882 9.97512 22.8256C12.2393 25.2066 15.37 26.4258 18.573 26.4258C20.238 26.4258 21.897 26.0865 23.3988 25.4415L28.6038 28.0881C28.7298 28.1522 28.8663 28.1836 29.0019 28.1836C29.5951 28.1836 30.0203 27.6056 29.8395 27.0379L28.128 21.6645ZM6.95379 20.1575C6.70764 20.0406 6.42129 20.0445 6.17842 20.168L2.47137 22.0529L3.68191 18.2522C3.77004 17.9754 3.71584 17.6731 3.53701 17.4443C2.37299 15.9543 1.7577 14.1973 1.7577 12.3633C1.7577 7.51699 6.09445 3.57422 11.4251 3.57422C13.5717 3.57422 15.6383 4.22455 17.3146 5.39566C11.6692 5.96332 7.14797 10.3727 7.14797 15.8789C7.14797 17.5915 7.58695 19.2402 8.41459 20.7173C7.9135 20.5681 7.42547 20.3815 6.95379 20.1575ZM23.8197 23.6835C23.5804 23.5618 23.2938 23.5545 23.0443 23.6731C21.6741 24.324 20.128 24.668 18.573 24.668C13.2424 24.668 8.90566 20.7252 8.90566 15.8789C8.90566 11.0326 13.2424 7.08984 18.573 7.08984C23.9037 7.08984 28.2404 11.0326 28.2404 15.8789C28.2404 17.7129 27.6251 19.4699 26.4611 20.9599C26.2823 21.1887 26.2281 21.491 26.3162 21.7678L27.5267 25.5685L23.8197 23.6835Z" fill="#444444"/>
<path d="M14.999 16.7578C15.4844 16.7578 15.8779 16.3643 15.8779 15.8789C15.8779 15.3935 15.4844 15 14.999 15C14.5136 15 14.1201 15.3935 14.1201 15.8789C14.1201 16.3643 14.5136 16.7578 14.999 16.7578Z" fill="#444444"/>
<path d="M18.5144 16.7578C18.9998 16.7578 19.3933 16.3643 19.3933 15.8789C19.3933 15.3935 18.9998 15 18.5144 15C18.029 15 17.6355 15.3935 17.6355 15.8789C17.6355 16.3643 18.029 16.7578 18.5144 16.7578Z" fill="#444444"/>
<path d="M22.0298 16.7578C22.5152 16.7578 22.9087 16.3643 22.9087 15.8789C22.9087 15.3935 22.5152 15 22.0298 15C21.5444 15 21.1509 15.3935 21.1509 15.8789C21.1509 16.3643 21.5444 16.7578 22.0298 16.7578Z" fill="#444444"/>
</g>
<defs fill="#444444">
<clipPath id="clip0_6890_4720" fill="#444444">
<rect width="30" height="30" fill="white"/>
</clipPath>
</defs>
</svg>