<svg xmlns="http://www.w3.org/2000/svg" width="30" height="29" viewBox="0 0 30 29" fill="none">
<path d="M3.95173 17.1274H11.7425L10.2895 22.4465C10.0521 23.3536 10.0835 24.3102 10.38 25.1997C10.6766 26.0893 11.2254 26.8734 11.9596 27.4566C12.2938 27.7236 12.6855 27.9094 13.1037 27.9993C13.5219 28.0892 13.9553 28.0808 14.3697 27.9748C14.7842 27.8687 15.1683 27.668 15.492 27.3882C15.8156 27.1085 16.0699 26.7574 16.2349 26.3627L17.2787 23.8243C18.3688 21.2078 20.0191 18.862 22.1134 16.9521C22.3193 17.2543 22.5957 17.502 22.9186 17.6736C23.2416 17.8453 23.6014 17.9358 23.9672 17.9374H26.7979C27.3966 17.9374 27.9709 17.7001 28.3951 17.2775C28.8192 16.855 29.0586 16.2815 29.0608 15.6828V2.3225C29.0564 1.72524 28.816 1.15394 28.3921 0.733166C27.9682 0.312394 27.3952 0.0762758 26.7979 0.076292H23.9672C23.4732 0.0781292 22.9936 0.24274 22.6027 0.544641C22.2117 0.846543 21.9312 1.2689 21.8045 1.74633L21.1364 1.24532C20.1315 0.491616 18.9106 0.081691 17.6544 0.076292H7.27511C6.61406 0.075789 5.96099 0.22064 5.36215 0.500582C4.76331 0.780523 4.23334 1.18871 3.80978 1.69623C1.78071 4.13196 0.669724 7.20193 0.670101 10.3721V13.8374C0.670098 14.7085 1.01557 15.5441 1.63076 16.1608C2.24595 16.7776 3.08062 17.1252 3.95173 17.1274ZM23.3827 2.33085C23.3827 2.17583 23.4442 2.02715 23.5539 1.91753C23.6635 1.80792 23.8121 1.74633 23.9672 1.74633H26.7979C26.9529 1.74633 27.1016 1.80792 27.2112 1.91753C27.3208 2.02715 27.3824 2.17583 27.3824 2.33085V15.6912C27.3802 15.8455 27.318 15.9929 27.2088 16.1021C27.0997 16.2112 26.9522 16.2735 26.7979 16.2757H23.9672C23.8114 16.2735 23.6627 16.2101 23.5533 16.0991C23.444 15.9882 23.3826 15.8386 23.3827 15.6828V2.33085ZM2.34014 10.3721C2.33982 7.59202 3.31498 4.89997 5.09571 2.76506C5.36224 2.44605 5.69558 2.18947 6.07217 2.01344C6.44876 1.83741 6.85941 1.74623 7.27511 1.74633H17.6544C18.5578 1.74633 19.4368 2.03933 20.1595 2.58135L21.7126 3.75873V15.1067C19.0877 17.2749 17.0251 20.0449 15.7005 23.1813L14.64 25.7448C14.5738 25.901 14.4722 26.0396 14.3432 26.1497C14.2142 26.2599 14.0614 26.3385 13.8968 26.3794C13.7337 26.4244 13.5621 26.4297 13.3965 26.3948C13.2309 26.36 13.0761 26.286 12.9449 26.179C12.4637 25.7939 12.1054 25.2766 11.914 24.6906C11.7226 24.1047 11.7066 23.4756 11.8677 22.8807L13.6129 16.5095C13.6467 16.3856 13.6515 16.2557 13.6268 16.1297C13.6022 16.0037 13.5489 15.8851 13.471 15.783C13.3923 15.6809 13.2911 15.5983 13.1752 15.5418C13.0593 15.4853 12.9319 15.4564 12.8029 15.4574H3.95173C3.52354 15.4552 3.11365 15.2835 2.81166 14.98C2.50966 14.6764 2.34014 14.2656 2.34014 13.8374V10.3721Z" fill="#444444"/>
</svg>