<svg xmlns="http://www.w3.org/2000/svg" width="32" height="32" viewBox="0 0 32 32" fill="none">
<path d="M4.95149 18.7207H12.7422L11.2893 24.0397C11.0518 24.9468 11.0833 25.9034 11.3798 26.793C11.6763 27.6825 12.2251 28.4667 12.9593 29.0499C13.2936 29.3169 13.6852 29.5026 14.1034 29.5926C14.5217 29.6825 14.9551 29.6741 15.3695 29.568C15.7839 29.462 16.1681 29.2612 16.4918 28.9815C16.8154 28.7017 17.0697 28.3507 17.2346 27.956L18.2784 25.4175C19.3685 22.8011 21.0188 20.4553 23.1132 18.5453C23.3191 18.8476 23.5954 19.0952 23.9184 19.2669C24.2413 19.4386 24.6012 19.5291 24.9669 19.5306H27.7976C28.3964 19.5306 28.9707 19.2934 29.3948 18.8708C29.819 18.4482 30.0583 17.8748 30.0605 17.2761V3.91576C30.0561 3.3185 29.8158 2.7472 29.3919 2.32643C28.968 1.90566 28.3949 1.66954 27.7976 1.66955H24.9669C24.473 1.67139 23.9934 1.836 23.6024 2.1379C23.2115 2.4398 22.9309 2.86216 22.8042 3.3396L22.1362 2.83858C21.1313 2.08488 19.9103 1.67495 18.6542 1.66955H8.27487C7.61382 1.66905 6.96075 1.8139 6.36191 2.09384C5.76306 2.37379 5.23309 2.78197 4.80953 3.28949C2.78046 5.72522 1.66948 8.7952 1.66986 11.9654V15.4307C1.66985 16.3018 2.01533 17.1374 2.63052 17.7541C3.2457 18.3709 4.08038 18.7185 4.95149 18.7207ZM24.3824 3.92411C24.3824 3.76909 24.444 3.62041 24.5536 3.5108C24.6632 3.40118 24.8119 3.3396 24.9669 3.3396H27.7976C27.9527 3.3396 28.1013 3.40118 28.211 3.5108C28.3206 3.62041 28.3822 3.76909 28.3822 3.92411V17.2844C28.38 17.4388 28.3177 17.5862 28.2086 17.6954C28.0994 17.8045 27.952 17.8668 27.7976 17.8689H24.9669C24.8111 17.8668 24.6625 17.8033 24.5531 17.6924C24.4437 17.5814 24.3824 17.4319 24.3824 17.2761V3.92411ZM3.3399 11.9654C3.33957 9.18528 4.31474 6.49323 6.09546 4.35832C6.362 4.03932 6.69534 3.78273 7.07193 3.6067C7.44852 3.43067 7.85917 3.33949 8.27487 3.3396H18.6542C19.5575 3.3396 20.4365 3.6326 21.1592 4.17462L22.7124 5.35199V16.6999C20.0874 18.8681 18.0249 21.6382 16.7002 24.7746L15.6397 27.3381C15.5735 27.4942 15.4719 27.6329 15.343 27.743C15.214 27.8531 15.0612 27.9318 14.8966 27.9727C14.7334 28.0177 14.5619 28.0229 14.3963 27.9881C14.2307 27.9532 14.0758 27.8792 13.9447 27.7723C13.4634 27.3871 13.1051 26.8698 12.9138 26.2839C12.7224 25.698 12.7063 25.0689 12.8675 24.474L14.6127 18.1028C14.6464 17.9789 14.6512 17.8489 14.6266 17.7229C14.602 17.5969 14.5486 17.4783 14.4707 17.3763C14.3921 17.2741 14.2908 17.1915 14.1749 17.135C14.059 17.0785 13.9316 17.0496 13.8027 17.0506H4.95149C4.5233 17.0484 4.1134 16.8768 3.81141 16.5732C3.50942 16.2697 3.33989 15.8589 3.3399 15.4307V11.9654Z" fill="#dddddd"/>
</svg>