<svg width="298" height="171" viewBox="0 0 298 171" fill="none" xmlns="http://www.w3.org/2000/svg">
<path d="M149.421 170.754C146.613 170.77 143.83 170.232 141.231 169.171C138.632 168.109 136.267 166.545 134.274 164.567L6.27399 36.567C2.25699 32.55 0 27.102 0 21.421C0 15.74 2.25699 10.291 6.27399 6.274C10.291 2.257 15.74 0 21.421 0C27.102 0 32.55 2.257 36.567 6.274L149.421 119.341L262.274 6.487C266.355 2.992 271.605 1.16601 276.974 1.37401C282.343 1.58101 287.436 3.807 291.235 7.606C295.035 11.405 297.26 16.498 297.468 21.868C297.675 27.237 295.849 32.486 292.354 36.567L164.354 164.567C160.38 168.509 155.017 170.73 149.421 170.754Z" fill="#D1D1D1"/>
</svg>
