<svg width="299" height="172" viewBox="0 0 299 172" fill="none" xmlns="http://www.w3.org/2000/svg">
<g clip-path="url(#clip0_13751_85512)">
<path d="M150 171.333C147.192 171.349 144.409 170.811 141.81 169.75C139.211 168.688 136.846 167.124 134.853 165.146L6.85297 37.1461C2.83597 33.1291 0.578979 27.6811 0.578979 22.0001C0.578979 16.3191 2.83597 10.8701 6.85297 6.8531C10.87 2.8361 16.319 0.579102 22 0.579102C27.681 0.579102 33.129 2.8361 37.146 6.8531L150 119.92L262.853 7.0661C266.934 3.5711 272.184 1.74511 277.553 1.95311C282.922 2.16011 288.015 4.3861 291.814 8.1851C295.614 11.9841 297.839 17.0771 298.047 22.4471C298.254 27.8161 296.428 33.0651 292.933 37.1461L164.933 165.146C160.959 169.088 155.596 171.309 150 171.333Z" fill="#707070"/>
</g>
<defs>
<clipPath id="clip0_13751_85512">
<rect width="299" height="172" fill="white"/>
</clipPath>
</defs>
</svg>
