<svg width="512" height="512" viewBox="0 0 512 512" fill="none" xmlns="http://www.w3.org/2000/svg">
<path d="M256 341.333C253.192 341.349 250.409 340.811 247.81 339.75C245.211 338.688 242.846 337.124 240.853 335.146L112.853 207.146C108.836 203.129 106.579 197.681 106.579 192C106.579 186.319 108.836 180.87 112.853 176.853C116.87 172.836 122.319 170.579 128 170.579C133.681 170.579 139.129 172.836 143.146 176.853L256 289.92L368.853 177.066C372.934 173.571 378.184 171.745 383.553 171.953C388.922 172.16 394.015 174.386 397.814 178.185C401.614 181.984 403.839 187.077 404.047 192.447C404.254 197.816 402.428 203.065 398.933 207.146L270.933 335.146C266.959 339.088 261.596 341.309 256 341.333Z" fill="#C0C0C0"/>
</svg>
