<svg width="43" height="43" viewBox="0 0 43 43" fill="none" xmlns="http://www.w3.org/2000/svg">
<circle cx="21.2132" cy="21.2134" r="15" transform="rotate(-45 21.2132 21.2134)" fill="white"/>
<path d="M10.6066 10.6068C4.75789 16.4555 4.75789 25.9713 10.6066 31.82C16.4553 37.6687 25.9711 37.6687 31.8198 31.82C37.6685 25.9713 37.6685 16.4555 31.8198 10.6068C25.9711 4.75806 16.4553 4.75806 10.6066 10.6068ZM26.7374 17.4568L22.9809 21.2134L26.7374 24.9699C27.2254 25.4579 27.2254 26.2496 26.7374 26.7376C26.2495 27.2256 25.4577 27.2256 24.9698 26.7376L21.2132 22.981L17.4566 26.7376C16.9687 27.2256 16.1769 27.2256 15.689 26.7376C15.201 26.2496 15.201 25.4579 15.689 24.9699L19.4455 21.2134L15.689 17.4568C15.201 16.9689 15.201 16.1771 15.689 15.6892C16.1769 15.2012 16.9687 15.2012 17.4566 15.6892L21.2132 19.4457L24.9698 15.6892C25.4577 15.2012 26.2495 15.2012 26.7374 15.6892C27.2254 16.1771 27.2254 16.9689 26.7374 17.4568Z" fill="#555555"/>
</svg>
