<svg width="50" height="50" viewBox="0 0 50 50" fill="none" xmlns="http://www.w3.org/2000/svg">
<path d="M50 3.125V15.0898C50 16.8157 48.6009 18.2148 46.875 18.2148C45.1491 18.2148 43.75 16.8157 43.75 15.0898V10.6695L33.0827 21.3367C32.4726 21.9468 31.6727 22.252 30.873 22.252C30.0732 22.252 29.2736 21.947 28.6634 21.3366C27.443 20.1163 27.443 18.1376 28.6634 16.9172L39.3306 6.25H34.9102C33.1843 6.25 31.7852 4.85088 31.7852 3.125C31.7852 1.39912 33.1843 0 34.9102 0H46.875C48.6009 0 50 1.39912 50 3.125ZM16.9173 28.6633L6.25 39.3306V34.9102C6.25 33.1843 4.85088 31.7852 3.125 31.7852C1.39912 31.7852 0 33.1843 0 34.9102V46.875C0 48.6009 1.39912 50 3.125 50H15.0898C16.8157 50 18.2148 48.6009 18.2148 46.875C18.2148 45.1491 16.8157 43.75 15.0898 43.75H10.6694L21.3367 33.0828C22.5571 31.8624 22.5571 29.8837 21.3367 28.6634C20.1164 27.4428 18.1377 27.4431 16.9173 28.6633Z" fill="white"/>
</svg>
