<svg xmlns="http://www.w3.org/2000/svg" height="512" viewBox="0 0 32 32" width="512"><g id="_x30_4"><path d="m3 8h2c.5527344 0 1-.4477539 1-1 0-.3423462-.1828003-.6295776-.4451294-.8098755 2.1814575-1.331665 6.182312-2.1901245 10.4451294-2.1901245 7.4345703 0 12 2.3608398 12 4.0532227 0 .3857422-.2294922.7944336-.6806641 1.2143555-.4042969.3759766-.4277344 1.0087891-.0517578 1.4130859.1972657.211914.4648438.3193359.7324219.3193359.2441406 0 .4882813-.0883789.6806641-.2675781 1.0908203-1.0136719 1.3193359-2.0161133 1.3193359-2.6791992 0-3.9316407-7.2128906-6.0532227-14-6.0532227-5.0771484 0-9.5823975 1.0802002-12.0305176 2.8485718-.0756225-.4772339-.47052-.8485718-.9694824-.8485718-.5527344 0-1 .4477539-1 1v2c0 .5522461.4472656 1 1 1z" fill="#ffffff"/><path d="m29 24h-2c-.5527344 0-1 .4477539-1 1 0 .3423462.1828003.6295166.4451294.8098145-2.1814575 1.331726-6.182312 2.1901855-10.4451294 2.1901855-7.4345703 0-12-2.3608398-12-4.0532227 0-.3857422.2294922-.7944336.6806641-1.2143555.4042969-.3759766.4277344-1.0087891.0517578-1.4130859-.3769531-.4052734-1.0097656-.4277344-1.4130859-.0517578-1.0908204 1.0136719-1.319336 2.0161133-1.319336 2.6791992 0 3.9316407 7.2128906 6.0532227 14 6.0532227 5.0771484 0 9.5825195-1.0802002 12.0305786-2.8485718.0756226.4772339.470459.8485718.9694214.8485718.5527344 0 1-.4477539 1-1v-2c0-.5522461-.4472656-1-1-1z" fill="#ffffff"/><path d="m19 6h-6c-.4306641 0-.8125.2753906-.9487305.6835938l-.4387817 1.3164062h8.7750244l-.4387817-1.3164063c-.1362305-.4082031-.5180664-.6835937-.9487305-.6835937z" fill="#ffffff"/><path d="m6 13v8c0 2.2055664 1.7944336 4 4 4h12c2.2055664 0 4-1.7944336 4-4v-8c0-2.2055664-1.7944336-4-4-4h-12c-2.2055664 0-4 1.7944336-4 4zm15.5-2h2c.2763672 0 .5.2236328.5.5s-.2236328.5-.5.5h-2c-.2763672 0-.5-.2236328-.5-.5s.2236328-.5.5-.5zm-5.5 0c3.3085938 0 6 2.6914063 6 6s-2.6914063 6-6 6-6-2.6914063-6-6 2.6914063-6 6-6z" fill="#ffffff"/><path d="m16 22c2.7568359 0 5-2.2431641 5-5s-2.2431641-5-5-5-5 2.2431641-5 5 2.2431641 5 5 5zm0-3c1.1030273 0 2-.8969727 2-2 0-.2763672.2236328-.5.5-.5s.5.2236328.5.5c0 1.6542969-1.3457031 3-3 3-.2763672 0-.5-.2236328-.5-.5s.2236328-.5.5-.5z" fill="#ffffff"/></g></svg>