<svg width="512" height="512" viewBox="0 0 512 512" fill="none" xmlns="http://www.w3.org/2000/svg">
<g clip-path="url(#clip0_13191_798)">
<path d="M256 512C397.385 512 512 397.385 512 256C512 114.615 397.385 0 256 0C114.615 0 0 114.615 0 256C0 397.385 114.615 512 256 512Z" fill="#FFD93B"/>
<path d="M1.79597 286.076C18.6194 426.451 146.064 526.618 286.44 509.794C426.815 492.971 526.982 365.526 510.158 225.151C508.95 215.073 507.173 205.204 504.861 195.571C505.257 323.674 413.052 438.22 282.755 453.835C152.457 469.451 29.8391 380.651 -0.0462372 256.082C-0.0171599 265.989 0.588177 275.998 1.79597 286.076Z" fill="#F4C534"/>
<path d="M156.22 230.39H355.79C371.09 230.39 383.51 242.81 383.51 258.11V258.6C383.51 328.7 326.6 385.61 256.5 385.61H256.01C185.64 385.61 128.51 328.48 128.51 258.11C128.51 242.81 140.93 230.39 156.23 230.39H156.22Z" fill="#473535"/>
<path d="M334.8 358.61C313.22 375.52 286.04 385.61 256.49 385.61H256C226.31 385.61 199 375.47 177.33 358.45C195.12 334.35 223.74 318.71 256 318.71C288.26 318.71 317.01 334.41 334.8 358.61Z" fill="#FF7E27"/>
<path d="M369.64 234.11V241.48C369.64 259.84 354.75 274.74 336.38 274.74H175.62C157.25 274.74 142.36 259.84 142.36 241.48V234.11C146.44 231.75 151.17 230.4 156.22 230.4H355.79C360.83 230.4 365.57 231.75 369.65 234.11H369.64Z" fill="white"/>
<path d="M299.92 169.15C296.77 169.15 293.59 168.3 290.71 166.52C282.49 161.43 279.97 150.63 285.05 142.41C287.67 138.18 311.62 101.07 345.71 101.07C379.8 101.07 403.75 138.18 406.37 142.41C411.46 150.63 408.92 161.41 400.7 166.5C392.49 171.58 381.73 169.06 376.64 160.87C371.56 152.77 357.32 136.06 345.72 136.06C334.12 136.06 319.88 152.77 314.8 160.87C311.49 166.21 305.78 169.15 299.93 169.15H299.92Z" fill="#473535"/>
<path d="M120.5 169.15C117.35 169.15 114.17 168.3 111.29 166.52C103.07 161.43 100.55 150.63 105.63 142.41C108.25 138.18 132.2 101.07 166.29 101.07C200.38 101.07 224.33 138.18 226.95 142.41C232.04 150.63 229.5 161.41 221.28 166.5C213.06 171.59 202.28 169.05 197.19 160.83C192.14 152.78 177.9 136.07 166.3 136.07C154.7 136.07 140.46 152.78 135.38 160.88C132.07 166.22 126.36 169.16 120.51 169.16L120.5 169.15Z" fill="#473535"/>
</g>
<defs>
<clipPath id="clip0_13191_798">
<rect width="512" height="512" fill="white"/>
</clipPath>
</defs>
</svg>
