<?xml version="1.0" encoding="UTF-8" standalone="no"?>
<!-- Created with Inkscape (http://www.inkscape.org/) -->

<svg
   version="1.1"
   id="svg1572"
   xml:space="preserve"
   width="682.66669"
   height="682.66669"
   viewBox="0 0 682.66669 682.66669"
   xmlns="http://www.w3.org/2000/svg"
   xmlns:svg="http://www.w3.org/2000/svg"><defs
     id="defs1576"><clipPath
       clipPathUnits="userSpaceOnUse"
       id="clipPath1586"><path
         d="M 0,512 H 512 V 0 H 0 Z"
         id="path1584" /></clipPath></defs><g
     id="g1578"
     transform="matrix(1.3333333,0,0,-1.3333333,0,682.66667)"><g
       id="g1580"><g
         id="g1582"
         clip-path="url(#clipPath1586)"><g
           id="g1588"
           transform="translate(442,322)"><path
             d="M 0,0 V -192"
             style="fill:none;stroke:#000000;stroke-width:40;stroke-linecap:round;stroke-linejoin:round;stroke-miterlimit:10;stroke-dasharray:none;stroke-opacity:1"
             id="path1590" /></g><g
           id="g1592"
           transform="translate(492,272)"><path
             d="m 0,0 -208.389,209.763 c -15.154,13.606 -38.111,13.654 -53.322,0.112 L -472,0"
             style="fill:none;stroke:#000000;stroke-width:40;stroke-linecap:round;stroke-linejoin:round;stroke-miterlimit:10;stroke-dasharray:none;stroke-opacity:1"
             id="path1594" /></g><g
           id="g1596"
           transform="translate(70,319)"><path
             d="M 0,0 V -189"
             style="fill:none;stroke:#000000;stroke-width:40;stroke-linecap:round;stroke-linejoin:round;stroke-miterlimit:10;stroke-dasharray:none;stroke-opacity:1"
             id="path1598" /></g><g
           id="g1600"
           transform="translate(223,35)"><path
             d="M 0,0 C 0,19.33 15.67,35 35,35 54.33,35 70,19.33 70,0 70,-19.33 54.33,-35 35,-35 15.67,-35 0,-19.33 0,0"
             style="fill:#000000;fill-opacity:1;fill-rule:nonzero;stroke:none"
             id="path1602" /></g><g
           id="g1604"
           transform="translate(258,323)"><path
             d="m 0,0 c 19.33,0 35,-15.67 35,-35 0,-19.33 -15.67,-35 -35,-35 -19.33,0 -35,15.67 -35,35 0,19.33 15.67,35 35,35"
             style="fill:#000000;fill-opacity:1;fill-rule:nonzero;stroke:none"
             id="path1606" /></g><g
           id="g1608"
           transform="translate(315,208)"><path
             d="M 0,0 C 0,19.33 15.67,35 35,35 54.33,35 70,19.33 70,0 70,-19.33 54.33,-35 35,-35 15.67,-35 0,-19.33 0,0"
             style="fill:#000000;fill-opacity:1;fill-rule:nonzero;stroke:none"
             id="path1610" /></g><g
           id="g1612"
           transform="translate(131,237)"><path
             d="M 0,0 C 0,19.33 15.67,35 35,35 54.33,35 70,19.33 70,0 70,-19.33 54.33,-35 35,-35 15.67,-35 0,-19.33 0,0"
             style="fill:#000000;fill-opacity:1;fill-rule:nonzero;stroke:none"
             id="path1614" /></g><g
           id="g1616"
           transform="translate(258,35)"><path
             d="M 0,0 V 249"
             style="fill:none;stroke:#000000;stroke-width:40;stroke-linecap:round;stroke-linejoin:round;stroke-miterlimit:10;stroke-dasharray:none;stroke-opacity:1"
             id="path1618" /></g><g
           id="g1620"
           transform="translate(437,35)"><path
             d="m 0,0 c 0,19.33 -15.67,35 -35,35 -19.33,0 -35,-15.67 -35,-35 0,-19.33 15.67,-35 35,-35 19.33,0 35,15.67 35,35"
             style="fill:#000000;fill-opacity:1;fill-rule:nonzero;stroke:none"
             id="path1622" /></g><g
           id="g1624"
           transform="translate(390,46)"><path
             d="M 0,0 -40,40 V 158"
             style="fill:none;stroke:#000000;stroke-width:40;stroke-linecap:round;stroke-linejoin:round;stroke-miterlimit:10;stroke-dasharray:none;stroke-opacity:1"
             id="path1626" /></g><g
           id="g1628"
           transform="translate(73,35)"><path
             d="M 0,0 C 0,19.33 15.67,35 35,35 54.33,35 70,19.33 70,0 70,-19.33 54.33,-35 35,-35 15.67,-35 0,-19.33 0,0"
             style="fill:#000000;fill-opacity:1;fill-rule:nonzero;stroke:none"
             id="path1630" /></g><g
           id="g1632"
           transform="translate(126,44)"><path
             d="M 0,0 40,40 V 179"
             style="fill:none;stroke:#000000;stroke-width:40;stroke-linecap:round;stroke-linejoin:round;stroke-miterlimit:10;stroke-dasharray:none;stroke-opacity:1"
             id="path1634" /></g></g></g></g></svg>
