<svg width="452" height="492" viewBox="0 0 452 492" fill="none" xmlns="http://www.w3.org/2000/svg">
<path d="M263.991 457.573C263.991 476.223 246.936 491.415 225.852 491.415C204.65 491.415 187.595 476.223 187.595 457.573H263.991Z" fill="#473535"/>
<path d="M219.423 0H232.161V48.0768H219.423V0Z" fill="#FFD93B"/>
<path d="M133.123 72.8617L107.378 31.2208L118.409 25.2744L144.155 66.9164L133.123 72.8617Z" fill="#FFD93B"/>
<path d="M71.6524 134.612L27.0643 110.578L33.4326 100.276L78.0196 124.311L71.6524 134.612Z" fill="#FFD93B"/>
<path d="M418.151 321.419L373.564 297.385L379.932 287.083L424.52 311.118L418.151 321.419Z" fill="#FFD93B"/>
<path d="M0 204.902H51.4867V216.791H0V204.902Z" fill="#FFD93B"/>
<path d="M400.097 204.902H451.584V216.791H400.097V204.902Z" fill="#FFD93B"/>
<path d="M33.4326 321.419L27.0643 311.118L71.6524 287.083L78.0196 297.385L33.4326 321.419Z" fill="#FFD93B"/>
<path d="M379.932 134.612L373.564 124.311L418.151 100.276L424.52 110.578L379.932 134.612Z" fill="#FFD93B"/>
<path d="M318.461 72.8617L307.429 66.9164L333.175 25.2744L344.206 31.2208L318.461 72.8617Z" fill="#FFD93B"/>
<path d="M359.052 209.716C359.052 247.434 342.631 281.359 316.271 305.065C298.23 321.29 286.993 343.52 286.993 367.541V410.105C286.993 422.854 276.406 433.073 263.442 433.073H188.144C175.18 433.073 164.593 422.854 164.593 410.105V367.541C164.593 343.519 153.357 321.289 135.315 304.959C108.956 281.254 92.5338 247.434 92.5338 209.716C92.5338 137.862 152.276 79.7061 225.846 79.7061C299.417 79.7061 359.052 137.862 359.052 209.716Z" fill="#FFD93B"/>
<path d="M296.191 369.862V431.122C296.191 445.746 284.063 457.573 269.068 457.573H182.52C167.524 457.573 155.397 445.746 155.397 431.122V369.862H296.191Z" fill="#DFDFDF"/>
<path d="M147.548 379.802H304.036V390.871H147.548V379.802Z" fill="#CCCBCB"/>
<path d="M147.548 402.924H304.036V413.993H147.548V402.924Z" fill="#CCCBCB"/>
<path d="M147.548 426.035H304.036V437.105H147.548V426.035Z" fill="#CCCBCB"/>
<path d="M290.189 204.07C270.615 189.684 228.248 194.892 241.904 257.38C230.204 258.422 222.188 258.536 210.296 257.368C212.194 247.023 215.675 221.568 206.509 210.14C188.052 187.111 151.089 198.15 147.779 227.25C144.515 256.07 169.799 264.155 198.895 265.43L202.299 370.03L212.539 369.69L209.215 267.545C221.859 268.785 230.036 268.705 242.736 267.579L246.079 370.03L256.319 369.69L252.939 266.132C263.674 265.278 288.778 262.067 297.359 250.4C308.149 235.709 304.949 214.929 290.189 204.07ZM157.959 228.409C160.243 208.22 185.806 200.672 198.519 216.539C203.889 223.239 202.629 242.319 200.279 255.249C177.231 254.426 155.488 250.221 157.959 228.409ZM289.109 244.34C284.029 251.25 265.199 254.909 252.059 255.94C239.511 200.321 273.229 204.338 284.128 212.319C294.329 219.829 296.57 234.19 289.109 244.34Z" fill="white"/>
</svg>
