<svg width="30" height="29" viewBox="0 0 30 29" fill="none" xmlns="http://www.w3.org/2000/svg">
<path d="M3.95149 17.7207H11.7422L10.2893 23.0397C10.0518 23.9468 10.0833 24.9034 10.3798 25.793C10.6763 26.6825 11.2251 27.4667 11.9593 28.0499C12.2936 28.3169 12.6852 28.5026 13.1034 28.5926C13.5217 28.6825 13.9551 28.6741 14.3695 28.568C14.7839 28.462 15.1681 28.2612 15.4918 27.9815C15.8154 27.7017 16.0697 27.3507 16.2346 26.956L17.2784 24.4175C18.3685 21.8011 20.0188 19.4553 22.1132 17.5453C22.3191 17.8476 22.5954 18.0952 22.9184 18.2669C23.2413 18.4386 23.6012 18.5291 23.9669 18.5306H26.7976C27.3964 18.5306 27.9707 18.2934 28.3948 17.8708C28.819 17.4482 29.0583 16.8748 29.0605 16.2761V2.91576C29.0561 2.3185 28.8158 1.7472 28.3919 1.32643C27.968 0.905656 27.3949 0.669537 26.7976 0.669554H23.9669C23.473 0.671391 22.9934 0.836002 22.6024 1.1379C22.2115 1.4398 21.9309 1.86216 21.8042 2.3396L21.1362 1.83858C20.1313 1.08488 18.9103 0.674953 17.6542 0.669554H7.27487C6.61382 0.669051 5.96075 0.813902 5.36191 1.09384C4.76306 1.37379 4.23309 1.78197 3.80953 2.28949C1.78046 4.72522 0.66948 7.7952 0.669857 10.9654V14.4307C0.669854 15.3018 1.01533 16.1374 1.63052 16.7541C2.2457 17.3709 3.08038 17.7185 3.95149 17.7207ZM23.3824 2.92411C23.3824 2.76909 23.444 2.62041 23.5536 2.5108C23.6632 2.40118 23.8119 2.3396 23.9669 2.3396H26.7976C26.9527 2.3396 27.1013 2.40118 27.211 2.5108C27.3206 2.62041 27.3822 2.76909 27.3822 2.92411V16.2844C27.38 16.4388 27.3177 16.5862 27.2086 16.6954C27.0994 16.8045 26.952 16.8668 26.7976 16.8689H23.9669C23.8111 16.8668 23.6625 16.8033 23.5531 16.6924C23.4437 16.5814 23.3824 16.4319 23.3824 16.2761V2.92411ZM2.3399 10.9654C2.33957 8.18528 3.31474 5.49323 5.09546 3.35832C5.362 3.03932 5.69534 2.78273 6.07193 2.6067C6.44852 2.43067 6.85917 2.33949 7.27487 2.3396H17.6542C18.5575 2.3396 19.4365 2.6326 20.1592 3.17462L21.7124 4.35199V15.6999C19.0874 17.8681 17.0249 20.6382 15.7002 23.7746L14.6397 26.3381C14.5735 26.4942 14.4719 26.6329 14.343 26.743C14.214 26.8531 14.0612 26.9318 13.8966 26.9727C13.7334 27.0177 13.5619 27.0229 13.3963 26.9881C13.2307 26.9532 13.0758 26.8792 12.9447 26.7723C12.4634 26.3871 12.1051 25.8698 11.9138 25.2839C11.7224 24.698 11.7063 24.0689 11.8675 23.474L13.6127 17.1028C13.6464 16.9789 13.6512 16.8489 13.6266 16.7229C13.602 16.5969 13.5486 16.4783 13.4707 16.3763C13.3921 16.2741 13.2908 16.1915 13.1749 16.135C13.059 16.0785 12.9316 16.0496 12.8027 16.0506H3.95149C3.5233 16.0484 3.1134 15.8768 2.81141 15.5732C2.50942 15.2697 2.33989 14.8589 2.3399 14.4307V10.9654Z" fill="#EEEEEE"/>
</svg>
