<svg xmlns="http://www.w3.org/2000/svg" width="30" height="29" viewBox="0 0 30 29" fill="none">
<path d="M25.7792 11.0098H17.9885L19.4414 5.69072C19.6789 4.78362 19.6474 3.82704 19.3509 2.93749C19.0544 2.04794 18.5056 1.26381 17.7714 0.680602C17.4371 0.413604 17.0455 0.227834 16.6273 0.137917C16.209 0.0480003 15.7756 0.0563906 15.3612 0.162428C14.9468 0.268465 14.5626 0.469255 14.239 0.748989C13.9153 1.02872 13.661 1.37976 13.4961 1.77448L12.4523 4.31294C11.3622 6.92941 9.71187 9.27517 7.61753 11.1852C7.41164 10.8829 7.1353 10.6352 6.81235 10.4636C6.48939 10.2919 6.12953 10.2014 5.76379 10.1998H2.93307C2.33436 10.1998 1.76004 10.4371 1.3359 10.8597C0.911763 11.2822 0.672375 11.8557 0.670166 12.4544V25.8147C0.674574 26.412 0.914931 26.9833 1.33883 27.404C1.76273 27.8248 2.33579 28.0609 2.93307 28.0609H5.76379C6.25775 28.0591 6.73732 27.8945 7.12829 27.5926C7.51925 27.2907 7.79979 26.8683 7.92649 26.3909L8.59451 26.8919C9.59942 27.6456 10.8204 28.0555 12.0765 28.0609H22.4558C23.1169 28.0614 23.77 27.9166 24.3688 27.6366C24.9677 27.3567 25.4976 26.9485 25.9212 26.441C27.9503 24.0052 29.0612 20.9353 29.0609 17.7651V14.2998C29.0609 13.4287 28.7154 12.5931 28.1002 11.9764C27.485 11.3596 26.6503 11.012 25.7792 11.0098ZM6.3483 25.8064C6.3483 25.9614 6.28672 26.1101 6.1771 26.2197C6.06749 26.3293 5.91881 26.3909 5.76379 26.3909H2.93307C2.77805 26.3909 2.62937 26.3293 2.51976 26.2197C2.41014 26.1101 2.34856 25.9614 2.34856 25.8064V12.446C2.35072 12.2917 2.41299 12.1443 2.52214 12.0351C2.6313 11.926 2.77872 11.8637 2.93307 11.8615H5.76379C5.91958 11.8637 6.06824 11.9271 6.17762 12.0381C6.287 12.149 6.34832 12.2986 6.3483 12.4544V25.8064ZM27.3908 17.7651C27.3911 20.5452 26.416 23.2372 24.6353 25.3721C24.3687 25.6912 24.0354 25.9477 23.6588 26.1238C23.2822 26.2998 22.8715 26.391 22.4558 26.3909H12.0765C11.1732 26.3909 10.2942 26.0979 9.57148 25.5559L8.01834 24.3785V13.0306C10.6433 10.8623 12.7058 8.09227 14.0305 4.9559L15.091 2.39239C15.1572 2.23624 15.2588 2.09762 15.3877 1.98748C15.5167 1.87734 15.6695 1.7987 15.8341 1.75778C15.9973 1.7128 16.1688 1.70753 16.3344 1.74239C16.5 1.77726 16.6549 1.85125 16.7861 1.95818C17.2673 2.34333 17.6256 2.86063 17.817 3.44657C18.0083 4.0325 18.0244 4.66156 17.8632 5.25651L16.118 11.6277C16.0843 11.7516 16.0795 11.8815 16.1041 12.0075C16.1287 12.1335 16.1821 12.2522 16.26 12.3542C16.3386 12.4564 16.4399 12.5389 16.5558 12.5954C16.6717 12.6519 16.7991 12.6808 16.928 12.6798H25.7792C26.2074 12.682 26.6173 12.8537 26.9193 13.1573C27.2213 13.4608 27.3908 13.8716 27.3908 14.2998V17.7651Z" fill="#444444"/>
</svg>