<svg width="301" height="301" viewBox="0 0 301 301" fill="currentColor" xmlns="http://www.w3.org/2000/svg">
<path d="M258.292 114.395H180.385L194.914 59.3696C197.289 49.9858 196.974 40.0902 194.009 30.8879C191.044 21.6857 185.556 13.574 178.214 7.54081C174.871 4.77876 170.955 2.857 166.773 1.92683C162.59 0.996656 158.256 1.08345 154.112 2.18039C149.968 3.27733 146.126 5.35446 142.89 8.24826C139.653 11.142 137.11 14.7735 135.461 18.8568L125.023 45.1167C114.122 72.1836 97.6182 96.4501 76.6748 116.209C74.6159 113.082 71.8525 110.519 68.623 108.744C65.3934 106.968 61.7948 106.032 58.1374 106.015H29.8302C23.8431 106.015 18.0999 108.47 13.8585 112.842C9.61714 117.213 7.22326 123.145 7.20117 129.339V267.549C7.24525 273.728 9.64882 279.638 13.8878 283.99C18.1268 288.343 23.8574 290.785 29.8302 290.785H58.1374C63.077 290.767 67.8727 289.064 71.7824 285.941C75.692 282.818 78.4974 278.448 79.7644 273.509L86.4446 278.692C96.4937 286.489 108.704 290.729 121.265 290.785H225.058C231.669 290.79 238.2 289.292 244.188 286.396C250.177 283.5 255.476 279.278 259.712 274.028C280.003 248.83 291.112 217.072 291.109 184.277V148.429C291.109 139.418 287.654 130.774 281.502 124.394C275.35 118.013 267.003 114.417 258.292 114.395ZM63.9825 267.463C63.9825 269.066 63.3667 270.605 62.2705 271.738C61.1744 272.872 59.6876 273.509 58.1374 273.509H29.8302C28.28 273.509 26.7932 272.872 25.6971 271.738C24.6009 270.605 23.9851 269.066 23.9851 267.463V129.252C24.0067 127.656 24.6294 126.131 25.7209 125.001C26.8125 123.873 28.2867 123.228 29.8302 123.205H58.1374C59.6953 123.228 61.1819 123.884 62.2757 125.032C63.3695 126.179 63.9827 127.727 63.9825 129.339V267.463ZM274.408 184.277C274.411 213.037 264.66 240.885 246.853 262.97C244.187 266.271 240.854 268.925 237.088 270.746C233.322 272.567 229.215 273.51 225.058 273.509H121.265C112.232 273.509 103.442 270.478 96.2143 264.871L80.6829 252.691V135.299C106.933 112.869 127.558 84.2132 140.805 51.768L151.41 25.249C152.072 23.6336 153.088 22.1996 154.377 21.0602C155.667 19.9209 157.195 19.1073 158.841 18.684C160.473 18.2187 162.188 18.1642 163.844 18.5248C165.5 18.8855 167.049 19.651 168.361 20.7571C173.173 24.7414 176.756 30.0928 178.67 36.1543C180.583 42.2156 180.744 48.7231 179.132 54.8778L161.68 120.787C161.343 122.068 161.295 123.412 161.541 124.716C161.787 126.019 162.321 127.247 163.1 128.302C163.886 129.359 164.899 130.213 166.058 130.797C167.217 131.382 168.491 131.681 169.78 131.67H258.292C262.574 131.693 266.673 133.469 269.693 136.61C272.713 139.75 274.408 143.999 274.408 148.429V184.277Z" fill="currentColor"/>
</svg>
