<svg width="300" height="300" viewBox="0 0 300 300" fill="none" xmlns="http://www.w3.org/2000/svg">
<path d="M252.366 123.516H181.54L194.75 75.1606C196.908 66.9141 196.622 58.218 193.927 50.1312C191.231 42.0444 186.242 34.9159 179.567 29.614C176.529 27.1868 172.969 25.4979 169.166 24.6805C165.364 23.863 161.424 23.9393 157.657 24.9033C153.889 25.8673 150.397 27.6927 147.454 30.2357C144.512 32.7788 142.2 35.97 140.7 39.5583L131.212 62.6352C121.301 86.4213 106.299 107.747 87.2595 125.11C85.3877 122.362 82.8755 120.11 79.9396 118.55C77.0037 116.989 73.7321 116.167 70.4073 116.152H44.6735C39.2306 116.152 34.0096 118.309 30.1537 122.151C26.2979 125.992 24.1217 131.206 24.1016 136.648V258.106C24.1417 263.536 26.3267 268.729 30.1804 272.554C34.034 276.379 39.2437 278.526 44.6735 278.526H70.4073C74.8977 278.509 79.2576 277.013 82.8117 274.268C86.366 271.524 88.9164 267.684 90.0682 263.344L96.1414 267.898C105.277 274.75 116.377 278.477 127.796 278.526H222.153C228.162 278.53 234.1 277.214 239.544 274.668C244.988 272.124 249.806 268.413 253.656 263.799C272.102 241.657 282.202 213.748 282.199 184.928V153.425C282.199 145.506 279.058 137.909 273.466 132.303C267.873 126.696 260.285 123.536 252.366 123.516ZM75.721 258.03C75.721 259.439 75.1612 260.791 74.1647 261.788C73.1681 262.784 71.8166 263.344 70.4073 263.344H44.6735C43.2642 263.344 41.9126 262.784 40.916 261.788C39.9196 260.791 39.3597 259.439 39.3597 258.03V136.572C39.3793 135.169 39.9455 133.829 40.9377 132.837C41.93 131.845 43.2703 131.278 44.6735 131.258H70.4073C71.8235 131.278 73.1749 131.856 74.1694 132.864C75.1637 133.872 75.7212 135.232 75.721 136.648V258.03ZM267.017 184.928C267.02 210.201 258.154 234.674 241.966 254.083C239.543 256.983 236.512 259.315 233.089 260.916C229.666 262.516 225.932 263.345 222.153 263.344H127.796C119.583 263.344 111.592 260.68 105.022 255.753L90.9032 245.049V141.887C114.767 122.175 133.517 96.993 145.559 68.4804L155.2 45.1758C155.801 43.7561 156.725 42.4959 157.898 41.4947C159.07 40.4935 160.46 39.7786 161.956 39.4065C163.439 38.9977 164.999 38.9497 166.504 39.2667C168.01 39.5836 169.417 40.2562 170.61 41.2284C174.985 44.7297 178.242 49.4325 179.981 54.7591C181.721 60.0858 181.868 65.8046 180.402 71.2132L164.537 129.133C164.23 130.259 164.187 131.44 164.41 132.586C164.634 133.731 165.119 134.81 165.828 135.738C166.542 136.667 167.462 137.417 168.516 137.93C169.57 138.444 170.728 138.707 171.9 138.698H252.366C256.259 138.718 259.985 140.278 262.73 143.038C265.476 145.798 267.017 149.532 267.017 153.425V184.928Z" fill="#D5D5D5"/>
</svg>
