<svg width="30" height="29" viewBox="0 0 30 29" fill="none" xmlns="http://www.w3.org/2000/svg">
<g clip-path="url(#clip0_10074_826)">
<path d="M25.7792 11.0098H17.9885L19.4414 5.69072C19.6789 4.78362 19.6474 3.82704 19.3509 2.93749C19.0544 2.04794 18.5056 1.26381 17.7714 0.680602C17.4371 0.413604 17.0455 0.227834 16.6273 0.137917C16.209 0.0480003 15.7756 0.0563906 15.3612 0.162428C14.9468 0.268465 14.5626 0.469255 14.239 0.748989C13.9153 1.02872 13.661 1.37976 13.4961 1.77448L12.4523 4.31294C11.3622 6.92941 9.71187 9.27517 7.61753 11.1852C7.41164 10.8829 7.1353 10.6352 6.81235 10.4636C6.48939 10.2919 6.12953 10.2014 5.76379 10.1998H2.93307C2.33436 10.1998 1.76004 10.4371 1.3359 10.8597C0.911763 11.2822 0.672375 11.8557 0.670166 12.4544V25.8147C0.674574 26.412 0.914931 26.9833 1.33883 27.404C1.76273 27.8248 2.33579 28.0609 2.93307 28.0609H5.76379C6.25775 28.0591 6.73732 27.8945 7.12829 27.5926C7.51925 27.2907 7.79979 26.8683 7.92649 26.3909L8.59451 26.8919C9.59942 27.6456 10.8204 28.0555 12.0765 28.0609H22.4558C23.1169 28.0614 23.77 27.9166 24.3688 27.6366C24.9677 27.3567 25.4976 26.9485 25.9212 26.441C27.9503 24.0052 29.0612 20.9353 29.0609 17.7651V14.2998C29.0609 13.4287 28.7154 12.5931 28.1002 11.9764C27.485 11.3596 26.6503 11.012 25.7792 11.0098ZM6.3483 25.8064C6.3483 25.9614 6.28672 26.1101 6.1771 26.2197C6.06749 26.3293 5.91881 26.3909 5.76379 26.3909H2.93307C2.77805 26.3909 2.62937 26.3293 2.51976 26.2197C2.41014 26.1101 2.34856 25.9614 2.34856 25.8064V12.446C2.35072 12.2917 2.41299 12.1443 2.52214 12.0351C2.6313 11.926 2.77872 11.8637 2.93307 11.8615H5.76379C5.91958 11.8637 6.06824 11.9271 6.17762 12.0381C6.287 12.149 6.34832 12.2986 6.3483 12.4544V25.8064ZM27.3908 17.7651C27.3911 20.5452 26.416 23.2372 24.6353 25.3721C24.3687 25.6912 24.0354 25.9477 23.6588 26.1238C23.2822 26.2998 22.8715 26.391 22.4558 26.3909H12.0765C11.1732 26.3909 10.2942 26.0979 9.57148 25.5559L8.01834 24.3785V13.0306C10.6433 10.8623 12.7058 8.09227 14.0305 4.9559L15.091 2.39239C15.1572 2.23624 15.2588 2.09762 15.3877 1.98748C15.5167 1.87734 15.6695 1.7987 15.8341 1.75778C15.9973 1.7128 16.1688 1.70753 16.3344 1.74239C16.5 1.77726 16.6549 1.85125 16.7861 1.95818C17.2673 2.34333 17.6256 2.86063 17.817 3.44657C18.0083 4.0325 18.0244 4.66156 17.8632 5.25651L16.118 11.6277C16.0843 11.7516 16.0795 11.8815 16.1041 12.0075C16.1287 12.1335 16.1821 12.2522 16.26 12.3542C16.3386 12.4564 16.4399 12.5389 16.5558 12.5954C16.6717 12.6519 16.7991 12.6808 16.928 12.6798H25.7792C26.2074 12.682 26.6173 12.8537 26.9193 13.1573C27.2213 13.4608 27.3908 13.8716 27.3908 14.2998V17.7651Z" fill="#DDDDDD"/>
<path d="M13.552 26.0491C13.2439 26.0148 12.9904 25.7629 12.6927 25.6968C12.3915 25.6299 12.0902 25.4405 11.8069 25.2786C11.6318 25.1785 11.1781 25.0968 11.0628 24.9527C10.8601 24.6993 10.428 24.654 10.2364 24.3666C10.1217 24.1946 9.79326 23.983 9.6075 23.9155C9.15306 23.7502 8.9626 23.576 8.60326 23.2965C8.39306 23.133 8.11368 23.3696 7.86243 23.4414C7.69501 23.4892 7.66424 23.6035 7.53317 23.6784C7.28965 23.8176 6.95508 23.9489 6.766 24.1526C6.60964 24.3209 6.39662 24.3836 6.18979 24.4621C5.86587 24.5849 5.55738 24.801 5.2547 24.9691C4.96185 25.1318 4.65446 25.153 4.30644 25.2325C4.05056 25.291 3.79851 25.2786 3.53597 25.2786C3.30345 25.2786 3.2989 25.2632 3.2989 25.0415C3.2989 24.7662 3.1902 24.5035 3.18037 24.2579C3.16653 23.912 3.06597 23.5496 3.01574 23.2043C2.9731 22.9111 3.04138 22.615 2.95647 22.3285C2.87001 22.0366 2.9433 21.6139 2.9433 21.3078C2.9433 20.1205 2.95679 18.9323 2.9433 17.7452C2.93043 16.6121 2.9433 15.4795 2.9433 14.3439C2.9433 14.0387 2.94184 13.743 3.00586 13.4549C3.07347 13.1507 3.03134 12.9013 3.3878 13.0993C3.6084 13.2219 4.02315 13.2413 4.2768 13.1849C4.41565 13.1541 4.55282 13.1039 4.69167 13.073C4.91072 13.0243 4.86798 13.1223 4.90239 13.2771C4.92575 13.3823 5.01179 13.3273 5.06373 13.3792C5.10106 13.4165 5.0769 13.5598 5.0769 13.6064C5.0769 13.9785 5.0769 14.3505 5.0769 14.7226C5.0769 16.912 5.37323 19.0909 5.37323 21.2715C5.37323 21.491 5.37323 21.7106 5.37323 21.9301C5.37323 22.0148 5.31653 22.3121 5.4325 22.1671C5.63619 21.9125 6.30708 22.1375 6.5882 22.1375C6.75689 22.1375 6.97383 22.0714 7.1216 21.9893C7.19045 21.9511 7.34415 21.8412 7.41793 21.8412C7.8252 21.8412 6.63987 22.1375 6.2326 22.1375C5.58967 22.1375 5.06394 23.1514 4.69167 23.5237C4.61863 23.5967 3.87771 24.2191 4.09571 24.0011C4.21485 23.8819 4.33771 23.8022 4.48423 23.7081C5.2749 23.1998 6.12717 22.7648 6.96684 22.3449C7.20283 22.2269 7.58863 22.013 7.68463 21.749C7.80028 21.4309 7.62803 21.2666 7.63853 20.962C7.71276 18.8095 7.8722 16.6094 8.33656 14.4987C8.42183 14.1111 8.50667 13.719 8.56704 13.3265C8.57994 13.2427 8.54817 13.1358 8.63289 13.0829C8.81743 12.9675 9.05941 12.9184 9.27165 12.8326C9.56577 12.7137 9.90839 12.4358 10.2331 12.4178C11.0561 12.3721 11.996 11.9629 12.4062 11.2259C13.1756 9.84326 13.9305 8.45992 14.5003 6.97842C14.6377 6.62103 14.2639 7.11156 14.1908 7.20232C13.8884 7.5777 13.4193 7.63494 13.0318 7.86742C12.6908 8.07202 12.4791 8.3998 12.3074 8.74325C12.1144 9.12925 12.1182 9.51028 11.9386 9.86931C11.8761 9.99446 11.4134 10.5578 11.4909 10.6266C11.7773 10.8812 13.4393 8.86157 13.6376 8.65764C14.1505 8.13036 14.493 7.51258 14.9151 6.91916C15.445 6.17428 15.8591 5.25577 16.1005 4.3707C16.1101 4.33525 16.2076 3.56555 16.0544 3.71876C16.0223 3.75082 16.0261 3.89956 16.0116 3.94595C15.8293 4.52928 15.5728 5.08246 15.3564 5.6548C15.1427 6.21971 15.0929 6.83759 15.0929 7.43939C15.0929 8.10449 15.0929 8.76959 15.0929 9.43469C15.0929 10.0608 15.149 9.52367 15.1522 9.24372C15.1655 8.09734 15.6845 6.97042 16.1005 5.9248C16.225 5.61191 16.3375 5.43381 16.3375 5.10165C16.3375 4.92016 16.4538 4.29826 16.219 4.29826C16.0653 4.29826 16.033 4.39497 16.0412 4.53533C16.0475 4.64203 16.1005 4.75801 16.1005 4.89092C16.1005 5.1783 15.9708 5.46335 15.9227 5.747C15.7802 6.58575 15.6448 7.49708 15.6263 8.34814C15.6217 8.55966 15.5168 8.75426 15.5078 8.96056C15.4374 10.5793 15.1316 12.2805 14.5859 13.8138C14.3862 14.3748 14.1236 14.9148 13.9603 15.4865C13.7874 16.0918 13.4335 16.7934 13.4335 17.4225C13.4335 18.7108 12.3667 19.6532 12.3667 20.9818C12.3667 21.1816 12.5445 20.9952 12.5445 20.86C12.5445 20.5856 12.5409 20.31 12.5708 20.0368C12.8478 17.5095 13.5713 14.9616 14.3291 12.5396C14.4913 12.0211 14.7265 11.4657 14.8625 10.9559C14.9949 10.4593 15.2844 9.96539 15.4815 9.49396C15.7069 8.95482 15.9168 8.37754 16.2124 7.87072C16.5532 7.28658 16.671 6.34719 16.838 5.69432C16.8731 5.55728 17.0741 4.61484 16.9006 4.47606C16.7403 4.34786 16.631 4.09552 16.5779 3.90973C16.5113 3.6765 16.1927 3.80611 16.0412 3.61669C15.9602 3.51542 15.498 3.28929 15.712 3.22817C15.9968 3.14679 16.1232 3.11452 16.0379 3.49816C15.9817 3.75104 15.951 4.01815 15.8898 4.27192C15.8168 4.57411 15.745 4.87257 15.6988 5.18067C15.672 5.35895 15.6796 5.22181 15.7152 5.15762C15.7782 5.04427 15.7449 4.86331 15.7449 4.73617C15.7449 4.51255 15.8041 4.30725 15.8041 4.09083C15.8041 3.68523 15.8975 3.24105 15.9852 2.84623C16.0392 2.60322 16.1109 2.75385 16.1894 2.8166C16.2777 2.88726 16.219 3.26507 16.219 3.37634C16.219 3.7823 16.1396 4.12152 16.0544 4.52216C15.9474 5.02511 15.7561 5.51081 15.6132 6.00382C14.9905 8.1511 14.3045 10.3161 13.4401 12.3783C12.8342 13.8237 12.1178 15.1977 11.4777 16.6059C11.1315 17.3676 10.8166 18.1497 10.5163 18.9305C10.475 19.0378 10.3584 19.3482 10.3516 19.2334C10.3363 18.9726 10.2924 18.7103 10.2924 18.4498C10.2924 18.1933 10.2843 17.9356 10.2924 17.6793C10.3157 16.931 10.7922 16.2387 10.8258 15.4996C10.8408 15.1693 10.9979 14.8162 11.1089 14.5053C11.2263 14.1767 11.3005 14.9995 11.2999 15.0255C11.2796 15.9394 10.9161 16.8542 10.7204 17.7386C10.4976 18.7453 10.3843 19.8226 10.3516 20.8534C10.3427 21.133 10.2798 21.1549 10.3977 21.367C10.5586 21.6566 10.6903 21.8911 10.9706 22.0914C11.6111 22.5489 12.3258 22.9264 12.8935 23.494C13.2679 23.8684 13.712 23.5599 14.1743 23.5599C14.525 23.5599 14.5105 23.8944 14.4443 24.1262C14.4139 24.2326 14.2894 24.2887 14.3258 24.416C14.3573 24.5262 14.5567 24.6036 14.6188 24.7123C14.7376 24.9201 15.086 25.0415 15.3004 25.0415C15.8638 25.0415 16.3985 25.2194 16.9598 25.2194C17.6123 25.2194 18.2746 25.2555 18.9255 25.2161C19.516 25.1803 20.1039 24.9823 20.6969 24.9823C21.3365 24.9823 22.0186 25.1353 22.6494 25.0383C22.8939 25.0006 23.1396 24.8783 23.2717 24.6728C23.3115 24.6109 23.5313 24.1913 23.4495 24.225C23.2552 24.305 23.1171 24.3304 22.903 24.3304C22.1557 24.3304 21.4105 24.3293 20.664 24.2843C19.9429 24.2407 19.2228 24.1674 18.5008 24.1229C17.7795 24.0785 17.0139 24.0796 16.3046 23.9287C16.1027 23.8857 16.013 23.7661 15.9556 23.5796C15.7357 22.865 15.4341 22.1796 15.251 21.4526C15.01 20.4959 14.911 19.5137 14.9151 18.5288C14.9179 17.8736 14.9336 17.1943 15.1522 16.5697C15.1789 16.4935 15.2231 16.2234 15.33 16.2108C15.4722 16.1941 15.6222 16.0403 15.7317 15.9639C16.2491 15.6029 16.8747 15.3516 17.4965 15.2428C18.2169 15.1167 19.3259 15.2711 19.8343 15.8684C20.8886 17.1072 19.1817 18.3994 18.3197 19.1478C17.5366 19.8277 16.7004 20.416 15.8766 21.0444C15.6232 21.2376 15.3719 21.4259 15.1259 21.6271C15.0878 21.6583 15.0221 21.7167 14.9744 21.7226C14.7699 21.7482 13.0883 22.7299 13.0779 22.5524C13.0673 22.372 13.1198 22.2404 13.1964 22.0782C13.9434 20.4964 15.5347 19.4225 16.6536 18.1008C17.2204 17.4314 17.8028 16.7691 18.3394 16.0791C18.3863 16.0188 18.0715 15.956 18.0431 15.9277C17.9291 15.8137 17.8845 15.5775 17.8192 15.4272C17.7468 15.2605 17.5328 14.3253 17.3451 14.3143C17.2515 14.3088 17.0176 14.3605 16.9434 14.3011C16.838 14.2168 16.8117 14.1505 16.8117 14.018C16.8117 13.8701 16.6085 13.885 16.838 13.985C17.6911 14.3569 18.7639 14.1958 19.6696 14.1958C20.3128 14.1958 20.9559 14.1958 21.5991 14.1958C21.7852 14.1958 22.3082 14.4215 22.1325 14.3604C21.941 14.2938 21.7554 14.1958 21.553 14.1958C21.071 14.1958 20.5797 13.9587 20.0713 13.9587C19.555 13.9587 18.9317 13.8821 18.4448 14.0213C18.0431 14.136 19.2752 14.1219 19.6927 14.1365C21.0439 14.1839 22.4066 14.1647 23.7459 14.3736C24.1256 14.4328 24.6066 14.4498 24.9542 14.637C25.2391 14.7904 25.5831 14.5473 25.5831 14.255C25.5831 13.826 25.185 13.9587 24.8423 13.9587C24.4493 13.9587 23.04 13.7422 22.9194 14.2847C22.7861 14.8845 22.7061 15.5668 22.6297 16.1779C22.5864 16.5238 22.5605 16.9002 22.5605 17.248C22.5605 18.241 21.2192 19.0662 20.3973 19.3454C19.6338 19.6047 18.7449 19.5829 18.0069 19.915C17.8186 19.9997 17.7653 20.156 17.671 20.3068C17.4281 20.6955 17.431 21.4529 17.4076 21.8971C17.3842 22.343 17.5763 22.256 17.941 22.256C18.2987 22.256 18.5655 22.0337 18.8893 21.9004C19.2834 21.7381 19.6774 21.733 20.0746 21.6337C20.4523 21.5393 20.7062 21.5401 21.0492 21.3308C21.4365 21.0945 21.8246 20.8598 22.2115 20.6229C22.6357 20.3632 23.1515 20.126 23.4693 19.7273C23.792 19.3226 24.0023 18.8481 24.2134 18.3806C24.3855 17.9996 24.2793 17.6007 24.2793 17.1789C24.2793 17.1385 24.2794 16.3917 24.1607 16.5994C23.9353 16.9938 23.7159 17.4097 23.5055 17.8209C22.9895 18.8296 22.5609 19.8968 21.9712 20.86C21.6562 21.3744 21.6012 21.7273 21.553 22.3416C21.5436 22.4615 21.3539 23.4034 21.7012 23.0561C21.8742 22.8831 21.9987 22.6701 22.2082 22.526C22.8001 22.1191 23.4898 21.8538 24.0883 21.4395C24.94 20.8498 25.4022 20.2188 25.8202 19.2729C25.9363 19.0101 26.0673 18.8459 25.8926 18.6276C25.8785 18.6099 25.7698 18.2342 25.7609 18.4037C25.7348 18.8992 25.5772 19.4282 25.4185 19.8985C25.2626 20.3604 25.1496 20.8402 24.9773 21.2946C24.8376 21.6629 24.5315 22.015 24.3517 22.3746C24.019 23.0399 23.5506 23.6967 23.5088 24.4489C23.497 24.6607 23.3573 24.8863 23.3573 25.1074C23.3573 25.2295 23.4949 24.904 23.5812 24.8177C23.6742 24.7247 23.6424 24.6357 23.8051 24.6267C23.9511 24.6186 24.1394 24.4518 24.2068 24.3304C24.3501 24.0724 24.4366 23.7972 24.5756 23.527C24.7566 23.1749 24.9675 22.9003 25.1222 22.5524C25.2213 22.3294 25.3357 22.093 25.4053 21.8609C25.4662 21.6579 25.5476 21.4351 25.5798 21.2254C25.5882 21.1708 25.5601 21.0699 25.5963 21.0246C25.7238 20.8652 25.6947 20.3443 25.7017 20.1356C25.7103 19.8773 25.7509 19.5881 25.7741 19.3256C25.8059 18.9656 25.9387 18.6302 25.9387 18.272C25.9387 17.8615 25.9387 17.451 25.9387 17.0406C25.9387 16.6544 26.0573 16.2795 26.0573 15.9013C26.0573 15.4267 26.211 14.9027 26.0704 14.446C26.0085 14.2446 26.0464 14.2676 25.8202 14.255C25.6346 14.2447 25.184 14.0791 25.0366 13.9719C24.8696 13.8505 24.3087 13.9587 24.1015 13.9587" stroke="#DDDDDD" stroke-width="3" stroke-linecap="round"/>
<path d="M22.9755 12.5361C22.4542 12.5361 21.8616 12.4549 21.3621 12.6086C20.5586 12.8558 19.8666 13.4089 19.1495 13.8729C18.3204 14.4094 17.3306 14.5329 16.364 14.5512C15.917 14.5596 14.1448 14.6961 14.1448 14.1067C14.1448 13.2308 13.7892 12.3809 13.7892 11.5023C13.7892 11.104 13.771 10.7011 13.7925 10.3038C13.8217 9.76255 13.8443 9.18012 13.967 8.65087C14.0108 8.46208 13.9644 8.16686 14.0559 8.00223C14.1975 7.74736 14.0576 7.27902 14.1151 6.99141C14.1394 6.87006 14.0585 6.16883 14.1744 6.07607C14.2492 6.01624 14.204 5.95691 14.204 6.13534C14.204 6.29228 14.204 6.44923 14.204 6.60618C14.204 7.17256 14.0429 7.6874 13.8781 8.23271C13.4317 9.70906 12.8179 11.0811 12.0704 12.4308C11.7639 12.9843 11.5444 13.5452 11.03 13.9454C10.5423 14.3247 10.1038 14.7637 9.58784 15.1109C9.26878 15.3257 8.93104 15.4461 8.57372 15.5851C8.39669 15.6539 8.00441 15.791 7.81643 15.7233C7.66749 15.6697 7.58749 15.193 7.52009 15.0582C7.40243 14.8229 7.16162 14.68 6.97353 14.4919C6.81025 14.3286 6.73377 14.1073 6.57183 13.9454C6.4564 13.8299 6.32231 13.7551 6.21623 13.649C6.05728 13.4901 5.87256 13.2674 5.69929 13.1288C5.60683 13.0548 5.41704 12.8512 5.37662 12.7501C5.32035 12.6095 5.39415 13.0547 5.4326 13.2012C5.54529 13.6309 5.49186 14.1077 5.49186 14.5479C5.49186 16.4879 5.37333 18.415 5.37333 20.356C5.37333 21.368 5.6104 22.376 5.6104 23.3819C5.6104 23.7035 5.69371 23.9379 5.72564 24.2413C5.75313 24.5025 5.78819 24.7425 5.78819 25.0117C5.78819 25.0821 5.82696 25.2727 5.72893 25.2784C5.56865 25.2879 5.63011 25.397 5.55113 25.5155" stroke="#DDDDDD" stroke-width="3" stroke-linecap="round"/>
</g>
<defs>
<clipPath id="clip0_10074_826">
<rect width="30" height="29" fill="white"/>
</clipPath>
</defs>
</svg>
