<svg xmlns="http://www.w3.org/2000/svg" width="33" height="33" viewBox="0 0 33 33" fill="none">
<path d="M27.7602 13.5867H19.9694L21.4224 8.26763C21.6598 7.36052 21.6284 6.40395 21.3319 5.5144C21.0354 4.62485 20.4866 3.84072 19.7523 3.25751C19.4181 2.99051 19.0265 2.80474 18.6082 2.71482C18.19 2.6249 17.7566 2.63329 17.3422 2.73933C16.9277 2.84537 16.5436 3.04616 16.2199 3.32589C15.8963 3.60563 15.642 3.95667 15.477 4.35138L14.4333 6.88984C13.3431 9.50631 11.6928 11.8521 9.59849 13.7621C9.3926 13.4598 9.11625 13.2121 8.7933 13.0405C8.47035 12.8688 8.11048 12.7783 7.74475 12.7767H4.91403C4.31531 12.7767 3.741 13.014 3.31686 13.4366C2.89272 13.8591 2.65333 14.4326 2.65112 15.0313V28.3916C2.65553 28.9889 2.89589 29.5602 3.31979 29.9809C3.74369 30.4017 4.31675 30.6378 4.91403 30.6378H7.74475C8.2387 30.636 8.71828 30.4714 9.10924 30.1695C9.50021 29.8676 9.78075 29.4452 9.90745 28.9678L10.5755 29.4688C11.5804 30.2225 12.8014 30.6324 14.0575 30.6378H24.4368C25.0978 30.6383 25.7509 30.4935 26.3498 30.2135C26.9486 29.9336 27.4786 29.5254 27.9021 29.0179C29.9312 26.5822 31.0422 23.5122 31.0418 20.342V16.8767C31.0418 16.0056 30.6963 15.17 30.0812 14.5533C29.466 13.9365 28.6313 13.5889 27.7602 13.5867ZM8.32926 28.3833C8.32926 28.5383 8.26768 28.687 8.15806 28.7966C8.04844 28.9062 7.89977 28.9678 7.74475 28.9678H4.91403C4.75901 28.9678 4.61033 28.9062 4.50071 28.7966C4.3911 28.687 4.32951 28.5383 4.32951 28.3833V15.0229C4.33167 14.8686 4.39395 14.7212 4.5031 14.612C4.61225 14.5029 4.75968 14.4406 4.91403 14.4384H7.74475C7.90053 14.4406 8.04919 14.5041 8.15858 14.615C8.26796 14.7259 8.32928 14.8755 8.32926 15.0313V28.3833ZM29.3718 20.342C29.3721 23.1221 28.3969 25.8141 26.6162 27.9491C26.3497 28.2681 26.0163 28.5246 25.6397 28.7007C25.2632 28.8767 24.8525 28.9679 24.4368 28.9678H14.0575C13.1541 28.9678 12.2751 28.6748 11.5524 28.1328L9.9993 26.9554V15.6075C12.6243 13.4392 14.6868 10.6692 16.0114 7.53281L17.0719 4.9693C17.1381 4.81314 17.2397 4.67452 17.3687 4.56438C17.4977 4.45425 17.6505 4.37561 17.8151 4.33468C17.9782 4.28971 18.1498 4.28443 18.3154 4.3193C18.481 4.35416 18.6358 4.42815 18.767 4.53509C19.2483 4.92023 19.6066 5.43754 19.7979 6.02347C19.9893 6.60941 20.0054 7.23847 19.8442 7.83342L18.099 14.2046C18.0652 14.3285 18.0605 14.4584 18.0851 14.5844C18.1097 14.7104 18.163 14.8291 18.241 14.9311C18.3196 15.0333 18.4208 15.1158 18.5367 15.1723C18.6526 15.2288 18.78 15.2577 18.909 15.2567H27.7602C28.1884 15.259 28.5983 15.4306 28.9003 15.7342C29.2023 16.0377 29.3718 16.4485 29.3718 16.8767V20.342Z" fill="#dddddd"/>
</svg>