<svg width="300" height="300" viewBox="0 0 300 300" fill="none" xmlns="http://www.w3.org/2000/svg">
<path d="M159.358 186.887L129.275 220.722C109.975 242.426 78.7498 242.426 59.4583 220.722C50.125 210.241 45 196.29 45 181.458C45 166.627 50.125 152.676 59.4499 142.185L99.9997 96.5745C119.625 74.4957 150.949 75.3676 169.808 96.5745C173.583 100.822 176.558 105.697 178.883 110.891L165.608 125.816C164.108 120.069 161.441 114.669 157.574 110.328C145.508 96.7527 124.825 96.1714 112.25 110.319L112.241 110.337L71.6832 155.948C59.1833 170.002 59.1833 192.896 71.6832 206.95C84.3248 221.172 104.666 220.9 117.033 206.95L137.241 184.224C145.516 186.887 152.166 187.365 159.358 186.887ZM160.699 28.2755L130.916 61.8016C137.975 61.3328 144.708 61.8016 153.024 64.4548L172.966 42.0572C185.449 27.9755 205.799 27.9943 218.299 42.0478C230.941 56.2795 230.682 79.1646 218.299 93.0682L178.041 138.36L178.016 138.379C166.033 151.851 145.633 152.929 132.691 138.36C128.75 133.916 126.15 128.591 124.725 122.957L124.025 123.594L111.383 137.798C113.716 143.01 116.675 147.876 120.45 152.123C139.158 173.171 170.483 174.38 190.266 152.123L230.532 106.831C249.816 85.1179 249.832 49.9981 230.524 28.2943C211.216 6.53421 179.966 6.60921 160.699 28.2755Z" fill="#E4E4E4"/>
</svg>
