<svg width="27" height="27" viewBox="0 0 27 27" fill="none" xmlns="http://www.w3.org/2000/svg">
<path fill-rule="evenodd" clip-rule="evenodd" d="M14.9545 4.82895C15.9114 3.87205 17.2092 3.33447 18.5625 3.33447C19.9158 3.33447 21.2136 3.87205 22.1705 4.82895C23.1274 5.78585 23.6649 7.08368 23.6649 8.43694C23.6649 9.79021 23.1274 11.088 22.1705 12.0449L17.6743 16.5411C17.2038 17.0201 16.6427 17.4008 16.0237 17.6609C15.4027 17.9219 14.736 18.0562 14.0625 18.0562C13.389 18.0562 12.7223 17.9219 12.1013 17.6609C11.4804 17.4 10.9178 17.0179 10.4464 16.5368C10.0116 16.093 10.0189 15.3807 10.4627 14.9458C10.9065 14.511 11.6188 14.5183 12.0536 14.9622C12.3155 15.2293 12.628 15.4417 12.9729 15.5866C13.3179 15.7317 13.6883 15.8062 14.0625 15.8062C14.4367 15.8062 14.8071 15.7317 15.1521 15.5866C15.497 15.4417 15.8095 15.2293 16.0714 14.9622L16.0795 14.9539L20.5795 10.4539C21.1144 9.91901 21.4149 9.19347 21.4149 8.43694C21.4149 7.68043 21.1144 6.95488 20.5795 6.41994C20.0446 5.88499 19.3191 5.58447 18.5625 5.58447C17.8059 5.58447 17.0804 5.88499 16.5455 6.41994L15.983 6.98244C15.5437 7.42178 14.8313 7.42178 14.392 6.98244C13.9527 6.5431 13.9527 5.83079 14.392 5.39145L14.9545 4.82895Z" fill="#777777"/>
<path fill-rule="evenodd" clip-rule="evenodd" d="M10.9763 9.33818C11.5972 9.07726 12.2639 8.94287 12.9374 8.94287C13.611 8.94287 14.2776 9.07726 14.8986 9.33818C15.5195 9.59909 16.0821 9.98128 16.5535 10.4624C16.9883 10.9062 16.981 11.6184 16.5373 12.0533C16.0935 12.4881 15.3812 12.4808 14.9463 12.037C14.6844 11.7698 14.3719 11.5574 14.027 11.4125C13.6821 11.2675 13.3116 11.1929 12.9374 11.1929C12.5633 11.1929 12.1928 11.2675 11.8479 11.4125C11.5029 11.5574 11.1904 11.7698 10.9285 12.037L10.9205 12.0452L6.42043 16.5452C5.88548 17.0802 5.58496 17.8057 5.58496 18.5622C5.58496 19.3187 5.88548 20.0443 6.42043 20.5792C6.95537 21.1142 7.6809 21.4147 8.43743 21.4147C9.19396 21.4147 9.9195 21.1142 10.4544 20.5792L11.0169 20.0167C11.4563 19.5773 12.1686 19.5773 12.6079 20.0167C13.0472 20.4561 13.0472 21.1684 12.6079 21.6077L12.0454 22.1702C11.0885 23.1271 9.7907 23.6647 8.43743 23.6647C7.08417 23.6647 5.78634 23.1271 4.82943 22.1702C3.87254 21.2133 3.33496 19.9155 3.33496 18.5622C3.33496 17.209 3.87254 15.9111 4.82943 14.9542L9.32561 10.458C9.79611 9.97899 10.3572 9.59831 10.9763 9.33818Z" fill="#777777"/>
</svg>
