<svg width="310" height="310" viewBox="0 0 310 310" fill="none" xmlns="http://www.w3.org/2000/svg">
<path d="M125.756 138.723L125.756 138.723L48.7857 215.697C38.9296 225.545 33.5049 238.647 33.5049 252.583C33.5049 266.525 38.9361 279.625 48.7877 289.472C58.6372 299.32 71.7416 304.749 85.6727 304.753H85.6771C99.6104 304.753 112.709 299.324 122.558 289.472L199.533 212.495C215.527 196.501 219.325 172.202 209.306 152.253L208.995 151.634L208.505 152.123L191.606 169.025L191.414 169.217L191.47 169.483C193.535 179.196 190.548 189.398 183.497 196.451L104.92 275.021L104.888 274.993L104.557 275.282C99.0342 280.105 92.0622 282.734 84.7203 282.734C76.8759 282.734 69.5379 279.71 64.0403 274.219C58.4619 268.643 55.4464 261.197 55.5234 253.246C55.5984 246.008 58.2318 239.144 62.9863 233.694L63.301 233.334L63.2795 233.313L64.0017 232.585L64.0018 232.585L64.0104 232.576C64.151 232.427 64.2931 232.279 64.4311 232.145L64.4363 232.14C64.4506 232.126 64.4628 232.113 64.4736 232.103C64.506 232.07 64.5247 232.051 64.5436 232.035L64.5597 232.021L64.5746 232.006L64.8322 231.744L64.835 231.741L141.803 154.77C147.373 149.205 154.769 146.144 162.633 146.144C164.666 146.144 166.686 146.355 168.668 146.765L168.932 146.819L169.123 146.629L186.041 129.706L186.532 129.215L185.911 128.905C178.729 125.322 170.742 123.446 162.639 123.446C148.71 123.448 135.608 128.875 125.756 138.723ZM100.203 156.955L100.514 157.575L101.004 157.085L117.188 140.901L117.377 140.712L117.325 140.449C115.499 131.358 118.07 121.787 124.228 114.722L124.528 114.379L124.504 114.354L125.225 113.626L125.225 113.626L125.231 113.619C125.361 113.483 125.505 113.337 125.646 113.194C125.678 113.164 125.695 113.146 125.709 113.132C125.725 113.116 125.737 113.104 125.762 113.081L125.772 113.072L125.781 113.063L126.046 112.796L126.048 112.794L203.015 35.8251C208.583 30.2569 215.983 27.1938 223.858 27.1938C231.734 27.1938 239.132 30.2569 244.7 35.8251L245.054 35.4716L244.7 35.8252C256.193 47.3161 256.193 66.0261 244.701 77.5085L244.7 77.5086L166.159 156.06L166.127 156.029L165.775 156.336C160.244 161.161 153.284 163.792 145.941 163.792C143.961 163.792 142.004 163.597 140.082 163.213L139.82 163.161L139.631 163.35L123.449 179.532L122.958 180.023L123.579 180.333C130.78 183.926 138.768 185.811 146.889 185.811C160.829 185.811 173.929 180.384 183.778 170.534L260.751 93.5616L260.751 93.5615C270.603 83.7036 276.03 70.6034 276.03 56.6658C276.03 42.7325 270.599 29.6301 260.749 19.7827C250.897 9.9247 237.795 4.5 223.86 4.5C209.928 4.5 196.828 9.92693 186.979 19.7829L110.002 96.7513C94.0184 112.732 90.2117 137.015 100.203 156.955Z" fill="#CFCFCF" stroke="#CFCFCF"/>
</svg>
