<svg width="325" height="325" viewBox="0 0 325 325" fill="none" xmlns="http://www.w3.org/2000/svg">
<path d="M66.9713 242.701H91.4024L91.3846 301.814C91.3826 306.924 94.4781 311.403 99.2607 313.211C100.687 313.75 102.16 314.013 103.617 314.013C107.041 314.012 110.353 312.56 112.724 309.869L171.94 242.702H259.055C289.342 242.702 313.998 218.317 313.998 188.321V66.4035C313.998 36.4074 289.342 12.0234 259.055 12.0234H66.9713C36.685 12.0234 12.0293 36.408 12.0293 66.4035V188.32C12.0293 218.317 36.685 242.701 66.9713 242.701ZM110.382 283.807L110.396 235.767C110.397 232.541 109.136 229.505 106.85 227.227C104.574 224.959 101.546 223.71 98.3325 223.71H66.9713C47.1349 223.71 31.0215 207.819 31.0215 188.321V66.4035C31.0215 46.9059 47.1349 31.0156 66.9713 31.0156H259.055C278.892 31.0156 295.006 46.9059 295.006 66.4035V188.321C295.006 207.819 278.892 223.709 259.055 223.709H168.819C165.61 223.709 162.586 224.954 160.309 227.208L160.308 227.21L160.104 227.412L160.08 227.436L160.059 227.46L110.382 283.807Z" fill="#DDDDDD" stroke="#DDDDDD" stroke-width="2"/>
<path d="M152.668 145.592L152.668 145.591L105.004 98.0806C100.284 93.3768 92.6087 93.3768 87.8896 98.0806L88.5956 98.7889L87.8896 98.0806L14.7951 170.941C11.0804 174.643 11.0713 180.657 14.7734 184.371C16.6285 186.233 19.0653 187.164 21.4993 187.164C23.9229 187.164 26.351 186.239 28.2034 184.393L96.4476 116.367L139.26 159.043L139.938 158.363L139.26 159.043C142.974 162.745 148.987 162.735 152.69 159.021L152.69 159.021C156.392 155.307 156.382 149.295 152.668 145.592Z" fill="#DDDDDD" stroke="#DDDDDD" stroke-width="2"/>
<path d="M105.176 179.567L105.176 179.567C101.461 183.27 101.452 189.283 105.154 192.997C108.857 196.714 114.87 196.72 118.584 193.018L117.878 192.31L118.584 193.018L190.714 121.119L285.552 215.653C285.552 215.653 285.552 215.653 285.552 215.653C287.404 217.5 289.832 218.422 292.256 218.422C294.689 218.422 297.125 217.491 298.98 215.632L298.981 215.631C302.684 211.917 302.674 205.903 298.959 202.201C298.959 202.201 298.959 202.201 298.959 202.201L199.27 102.831L199.27 102.831C194.55 98.128 186.874 98.1298 182.158 102.833L105.176 179.567Z" fill="#DDDDDD" stroke="#DDDDDD" stroke-width="2"/>
<path d="M251.202 102.918C262.364 102.918 271.419 93.8974 271.419 82.7628C271.419 71.6283 262.364 62.6074 251.202 62.6074C240.04 62.6074 230.985 71.6283 230.985 82.7628C230.985 93.8974 240.04 102.918 251.202 102.918Z" fill="#DDDDDD" stroke="#DDDDDD" stroke-width="2"/>
</svg>
