<svg width="325" height="326" viewBox="0 0 325 326" fill="none" xmlns="http://www.w3.org/2000/svg">
<path d="M66.9713 243.201H91.4024L91.3846 302.314C91.3826 307.424 94.4781 311.903 99.2607 313.711C100.687 314.25 102.16 314.513 103.617 314.513C107.041 314.512 110.353 313.06 112.724 310.369L171.94 243.202H259.055C289.342 243.202 313.998 218.817 313.998 188.821V66.9035C313.998 36.9074 289.342 12.5234 259.055 12.5234H66.9713C36.685 12.5234 12.0293 36.908 12.0293 66.9035V188.82C12.0293 218.817 36.685 243.201 66.9713 243.201ZM110.382 284.307L110.396 236.267C110.397 233.041 109.136 230.005 106.85 227.727C104.574 225.459 101.546 224.21 98.3325 224.21H66.9713C47.1349 224.21 31.0215 208.319 31.0215 188.821V66.9035C31.0215 47.4059 47.1349 31.5156 66.9713 31.5156H259.055C278.892 31.5156 295.006 47.4059 295.006 66.9035V188.821C295.006 208.319 278.892 224.209 259.055 224.209H168.819C165.61 224.209 162.586 225.454 160.309 227.708L160.308 227.71L160.104 227.912L160.08 227.936L160.059 227.96L110.382 284.307Z" fill="#CCCCCC" stroke="#CCCCCC" stroke-width="2"/>
<path d="M152.668 146.092L105.004 98.5806C100.284 93.8768 92.6087 93.8768 87.8896 98.5806L14.7951 171.441C11.0804 175.143 11.0713 181.157 14.7734 184.871C16.6285 186.733 19.0653 187.664 21.4993 187.664C23.9229 187.664 26.351 186.739 28.2034 184.893L96.4476 116.867L139.26 159.543C142.974 163.245 148.987 163.235 152.69 159.521C156.392 155.807 156.382 149.795 152.668 146.092Z" fill="#CCCCCC"/>
<path d="M87.8896 98.5806C92.6087 93.8768 100.284 93.8768 105.004 98.5806L152.668 146.092C156.382 149.795 156.392 155.807 152.69 159.521C148.987 163.235 142.974 163.245 139.26 159.543M87.8896 98.5806L88.5956 99.2889M87.8896 98.5806L14.7951 171.441C11.0804 175.143 11.0713 181.157 14.7734 184.871C16.6285 186.733 19.0653 187.664 21.4993 187.664C23.9229 187.664 26.351 186.739 28.2034 184.893L96.4476 116.867L139.26 159.543M139.26 159.543L139.938 158.863" stroke="#CCCCCC" stroke-width="2"/>
<path d="M105.176 180.067C101.461 183.77 101.452 189.783 105.154 193.497C108.857 197.214 114.87 197.22 118.584 193.518L190.714 121.619L285.552 216.153C287.404 218 289.832 218.922 292.256 218.922C294.689 218.922 297.125 217.991 298.98 216.132L298.981 216.131C302.684 212.417 302.674 206.403 298.959 202.701L199.27 103.331C194.55 98.628 186.874 98.6298 182.158 103.333L105.176 180.067Z" fill="#CCCCCC"/>
<path d="M118.584 193.518C114.87 197.22 108.857 197.214 105.154 193.497C101.452 189.783 101.461 183.77 105.176 180.067L182.158 103.333C186.874 98.6298 194.55 98.628 199.27 103.331L298.959 202.701C302.674 206.403 302.684 212.417 298.981 216.131L298.98 216.132C297.125 217.991 294.689 218.922 292.256 218.922C289.832 218.922 287.404 218 285.552 216.153L190.714 121.619L118.584 193.518ZM118.584 193.518L117.878 192.81" stroke="#CCCCCC" stroke-width="2"/>
<path d="M251.202 103.418C262.364 103.418 271.419 94.3974 271.419 83.2628C271.419 72.1283 262.364 63.1074 251.202 63.1074C240.04 63.1074 230.985 72.1283 230.985 83.2628C230.985 94.3974 240.04 103.418 251.202 103.418Z" fill="#CCCCCC" stroke="#CCCCCC" stroke-width="2"/>
</svg>
