<svg enable-background="new 0 0 512 512" height="512" viewBox="0 0 512 512" width="512" xmlns="http://www.w3.org/2000/svg"><g id="conversation" display="none"><g display="inline" fill="rgb(0,0,0)"><g><ellipse cx="127.77" cy="237.682" rx="30.521" ry="31.032"/><ellipse cx="213.003" cy="237.682" rx="30.521" ry="31.032"/><ellipse cx="298.236" cy="237.682" rx="30.521" ry="31.032"/></g><path d="m129.772 502.376c-2.174 0-4.376-.392-6.514-1.197-7.193-2.71-11.84-9.429-11.838-17.115l.024-82.261h-33.135c-43.18 0-78.31-34.901-78.31-77.801v-171.941c0-42.899 35.129-77.799 78.31-77.799h269.702c43.18 0 78.31 34.9 78.31 77.799v171.941c0 42.899-35.13 77.801-78.31 77.801h-121.772l-82.793 94.328c-3.563 4.059-8.536 6.244-13.674 6.245zm-51.463-399.114c-27.189 0-49.31 21.891-49.31 48.799v171.941c0 26.909 22.12 48.801 49.31 48.801h44.034c4.837 0 9.384 1.884 12.804 5.304 3.421 3.422 5.304 7.971 5.302 12.81l-.02 64.69 67.744-77.183.349-.347c3.421-3.401 7.962-5.274 12.788-5.274h126.701c27.189 0 49.31-21.892 49.31-48.801v-171.941c0-26.908-22.12-48.799-49.31-48.799z"/><path d="m448.528 336.069c-7.806 0-14.248-6.206-14.485-14.062-.242-8.004 6.05-14.689 14.055-14.932 30.369-.919 34.903-30.812 34.903-48.548v-171.318c0-26.782-22.015-48.57-49.075-48.57h-268.71c-23.677 0-26.415 2.376-32.725 17.178-3.14 7.366-11.655 10.792-19.025 7.652-7.367-3.141-10.792-11.658-7.652-19.025 12.617-29.597 29.208-34.805 59.401-34.805h268.71c43.051 0 78.075 34.798 78.075 77.57v171.319c0 46.648-24.15 76.357-63.026 77.534-.148.005-.298.007-.446.007z"/></g></g><g id="speech_bubble" display="none"><g display="inline" fill="rgb(0,0,0)"><path d="m154.621 512.006c-2.279 0-4.589-.411-6.831-1.259-7.499-2.834-12.343-9.842-12.34-17.851l.031-102.601h-43.408c-50.767 0-92.068-40.87-92.068-91.105v-208.083c0-50.235 41.302-91.104 92.068-91.104h327.855c50.767 0 92.068 40.869 92.068 91.104v208.083c0 50.235-41.302 91.105-92.068 91.105h-149.463l-101.581 115.218c-3.721 4.221-8.907 6.493-14.263 6.493zm-62.548-483.003c-34.776 0-63.068 27.86-63.068 62.104v208.083c0 34.245 28.292 62.105 63.068 62.105h53.528c5.033 0 9.769 1.955 13.333 5.506 3.582 3.566 5.552 8.313 5.55 13.365l-.026 86.515 87.785-99.569.354-.351c3.567-3.524 8.294-5.466 13.31-5.466h154.021c34.776 0 63.068-27.86 63.068-62.105v-208.083c0-34.245-28.292-62.104-63.068-62.104z"/><g><path d="m413.988 157.004h-315.976c-8.008 0-14.5-6.492-14.5-14.5s6.492-14.5 14.5-14.5h315.976c8.008 0 14.5 6.492 14.5 14.5s-6.492 14.5-14.5 14.5z"/><path d="m413.988 262.385h-315.976c-8.008 0-14.5-6.492-14.5-14.5s6.492-14.5 14.5-14.5h315.976c8.008 0 14.5 6.492 14.5 14.5s-6.492 14.5-14.5 14.5z"/></g></g></g><g id="picture_message"><g fill="rgb(0,0,0)"><path d="m154.654 512.024c-2.28 0-4.589-.411-6.831-1.259-7.499-2.835-12.342-9.842-12.339-17.852l.031-102.595h-43.403c-50.763 0-92.061-40.868-92.061-91.103v-208.071c0-50.233 41.298-91.102 92.061-91.102h327.823c50.763 0 92.062 40.868 92.062 91.102v208.073c0 50.234-41.299 91.103-92.062 91.103h-149.447l-101.571 115.211c-3.722 4.222-8.908 6.492-14.263 6.493zm-62.542-482.982c-34.772 0-63.061 27.859-63.061 62.102v208.073c0 34.243 28.289 62.103 63.061 62.103h53.523c5.033 0 9.768 1.955 13.332 5.505 3.581 3.567 5.552 8.313 5.55 13.366l-.026 86.508 87.77-99.557.348-.345c3.566-3.532 8.297-5.478 13.322-5.478h154.005c34.772 0 63.062-27.859 63.062-62.103v-208.072c0-34.243-28.289-62.102-63.062-62.102z"/><path d="m14.506 295.529c-3.719 0-7.437-1.421-10.27-4.264-5.653-5.671-5.639-14.853.033-20.506l124.748-124.349c7.388-7.364 19.41-7.364 26.798 0l81.348 81.086c5.671 5.653 5.686 14.834.033 20.506-5.654 5.67-14.835 5.685-20.506.033l-74.272-74.035-117.675 117.299c-2.829 2.82-6.534 4.23-10.237 4.23z"/><path d="m476.595 348.881c-3.703 0-7.406-1.41-10.236-4.23l-163.061-162.539-124.307 123.91c-5.671 5.652-14.852 5.641-20.506-.033-5.653-5.671-5.639-14.853.033-20.506l131.382-130.961c7.384-7.362 19.406-7.365 26.796-.002l170.136 169.592c5.672 5.653 5.687 14.835.033 20.506-2.834 2.841-6.552 4.263-10.27 4.263z"/><ellipse cx="406.535" cy="119.062" rx="32.797" ry="32.692"/></g></g><g id="heart_message" display="none" fill="rgb(0,0,0)"><path d="m154.618 512.037c-2.279 0-4.589-.411-6.831-1.259-7.499-2.834-12.343-9.842-12.34-17.852l.031-102.619h-43.408c-50.767 0-92.068-40.876-92.068-91.119v-208.116c0-50.242 41.302-91.117 92.068-91.117h327.854c50.767 0 92.068 40.875 92.068 91.117v208.116c0 50.243-41.302 91.119-92.068 91.119h-149.462l-101.58 115.235c-3.722 4.224-8.908 6.495-14.264 6.495zm-62.548-483.082c-34.776 0-63.068 27.866-63.068 62.117v208.116c0 34.253 28.292 62.119 63.068 62.119h53.528c5.033 0 9.768 1.955 13.332 5.505 3.582 3.566 5.553 8.313 5.551 13.366l-.026 86.53 87.779-99.578.349-.346c3.566-3.532 8.297-5.478 13.321-5.478h154.02c34.776 0 63.068-27.866 63.068-62.119v-208.115c0-34.251-28.292-62.117-63.068-62.117z" display="inline"/><path d="m255.995 314.754c-4.04 0-8.013-1.581-10.992-4.561l-91.416-91.134c-14.438-14.394-22.391-33.537-22.391-53.901s7.953-39.507 22.392-53.902c27.978-27.89 72.437-29.579 102.409-5.062 29.974-24.519 74.431-22.829 102.408 5.063 4.64 4.605 11.884 12.978 16.908 25.437 1.985 4.922 5.485 15.098 5.485 28.465 0 20.364-7.953 39.507-22.394 53.902l-91.43 91.147c-1.502 1.495-3.248 2.645-5.2 3.425-1.872.754-3.834 1.121-5.779 1.121zm9.47-25.111.028.029c-.01-.01-.019-.02-.028-.029zm-57.871-171.673c-12.145 0-24.286 4.607-33.531 13.824-8.942 8.914-13.867 20.763-13.867 33.364s4.925 24.45 13.867 33.364l81.934 81.682 81.932-81.679c8.945-8.917 13.87-20.766 13.87-33.366s-4.925-24.449-13.868-33.364c-18.488-18.433-48.573-18.433-67.062 0l-3.895 3.882c-6.043 6.03-15.891 6.036-21.947.008l-3.903-3.892c-9.243-9.214-21.388-13.823-33.53-13.823z" display="inline"/></g><g id="empty_document" display="none"><g display="inline" fill="rgb(0,0,0)"><path d="m356.84 511.97h-273.376c-46.032 0-83.482-37.553-83.482-83.712v-274.288c0-46.16 37.45-83.713 83.482-83.713h203.5c8.008 0 14.5 6.492 14.5 14.5s-6.492 14.5-14.5 14.5h-203.5c-30.042 0-54.482 24.544-54.482 54.713v274.288c0 30.168 24.441 54.712 54.482 54.712h273.376c30.042 0 54.482-24.544 54.482-54.712v-201.807c0-8.008 6.492-14.5 14.5-14.5s14.5 6.492 14.5 14.5v201.807c0 46.159-37.45 83.712-83.482 83.712z"/><path d="m416.992 190.592c-52.379 0-94.993-42.734-94.993-95.261s42.614-95.262 94.993-95.262 94.993 42.734 94.993 95.262-42.614 95.261-94.993 95.261zm0-161.523c-36.389 0-65.993 29.725-65.993 66.262s29.604 66.261 65.993 66.261 65.993-29.725 65.993-66.261-29.604-66.262-65.993-66.262z"/></g></g><g id="envelope" display="none"><g display="inline" fill="rgb(0,0,0)"><path d="m419.929 451.738h-327.858c-50.767 0-92.069-40.982-92.069-91.357v-208.764c0-50.374 41.302-91.355 92.069-91.355h327.857c50.768 0 92.069 40.981 92.069 91.355v208.764c.001 50.375-41.301 91.357-92.068 91.357zm-327.858-362.476c-34.776 0-63.069 27.972-63.069 62.355v208.764c0 34.384 28.293 62.357 63.069 62.357h327.857c34.776 0 63.069-27.974 63.069-62.357v-208.764c0-34.383-28.293-62.355-63.069-62.355z"/><path d="m258.637 332.298c-4.894 0-9.495-1.906-12.956-5.367l-216.251-216.25 20.506-20.506 208.701 208.7 203.427-203.426 20.506 20.506-210.976 210.976c-3.461 3.461-8.063 5.367-12.957 5.367z"/></g></g><g id="envelope_message" display="none"><g display="inline"><path d="m391.005 463.918h-304.468c-47.716 0-86.536-38.523-86.536-85.874v-193.872c0-47.35 38.82-85.872 86.536-85.872h217.568c8.008 0 14.5 6.492 14.5 14.5s-6.492 14.5-14.5 14.5h-217.568c-31.725 0-57.536 25.513-57.536 56.872v193.872c0 31.36 25.811 56.874 57.536 56.874h304.468c31.725 0 57.535-25.514 57.535-56.874v-124.981c0-8.008 6.492-14.5 14.5-14.5s14.5 6.492 14.5 14.5v124.981c0 47.351-38.819 85.874-86.535 85.874z" fill="rgb(0,0,0)"/><path d="" fill="none" stroke="rgb(0,0,0)" stroke-miterlimit="10" stroke-width="29"/><g fill="rgb(0,0,0)"><path d="m241.22 352.989c-4.623 0-9.245-1.759-12.764-5.278l-200.823-200.823c-5.663-5.663-5.663-14.843 0-20.506 5.662-5.663 14.844-5.663 20.506 0l193.081 193.081 99.583-99.583c5.662-5.663 14.844-5.663 20.506 0 5.663 5.663 5.663 14.843 0 20.506l-107.326 107.325c-3.519 3.519-8.141 5.278-12.763 5.278z"/><path d="m423.446 225.188c-48.829 0-88.554-39.725-88.554-88.553s39.725-88.553 88.554-88.553c48.828 0 88.553 39.725 88.553 88.553 0 48.829-39.725 88.553-88.553 88.553zm0-148.105c-32.838 0-59.554 26.715-59.554 59.553s26.716 59.553 59.554 59.553 59.553-26.715 59.553-59.553-26.715-59.553-59.553-59.553z"/></g></g></g><g id="smartphone_text_message" display="none"><g display="inline" fill="rgb(0,0,0)"><path d="m275.49 511.998h-155.605c-45.23 0-82.027-36.797-82.027-82.026v-347.89c0-45.23 36.797-82.027 82.027-82.027h155.605c45.229 0 82.026 36.797 82.026 82.027 0 8.008-6.492 14.5-14.5 14.5s-14.5-6.492-14.5-14.5c0-29.239-23.787-53.027-53.026-53.027h-155.605c-29.239 0-53.027 23.788-53.027 53.027v347.89c0 29.239 23.788 53.026 53.027 53.026h155.605c29.239 0 53.026-23.787 53.026-53.026v-91.391c0-8.008 6.492-14.5 14.5-14.5s14.5 6.492 14.5 14.5v91.391c.001 45.229-36.796 82.026-82.026 82.026z"/><path d="m230.869 362.049c-2.539 0-5.098-.51-7.523-1.558-6.958-3.004-11.454-9.844-11.454-17.423v-176.395c0-27.751 22.578-50.329 50.33-50.329h161.591c27.752 0 50.329 22.578 50.329 50.329v82.975c0 27.66-22.503 50.238-50.162 50.33l-120.028.398c-20.013 18.814-40.057 37.661-60.074 56.509-3.593 3.384-8.265 5.164-13.009 5.164zm31.353-216.705c-11.761 0-21.33 9.568-21.33 21.329v153.196c15.361-14.454 30.727-28.9 46.076-43.329 3.517-3.306 8.109-5.134 12.934-5.15l.412-.001 123.57-.411c11.722-.039 21.258-9.607 21.258-21.33v-82.975c0-11.761-9.568-21.329-21.329-21.329zm161.71 140.134h.01z"/><path d="m260.713 437.834h-126.05c-8.008 0-14.5-6.492-14.5-14.5s6.492-14.5 14.5-14.5h126.05c8.008 0 14.5 6.492 14.5 14.5s-6.492 14.5-14.5 14.5z"/></g></g><g id="smartphone_email" display="none"><g display="inline" fill="rgb(0,0,0)"><path d="m419.268 296.269h-161.953c-23.983 0-43.496-19.512-43.496-43.496v-91.775c0-23.983 19.512-43.496 43.496-43.496h161.952c23.983 0 43.495 19.512 43.495 43.496v91.775c.001 23.984-19.511 43.496-43.494 43.496zm-161.953-149.767c-7.993 0-14.496 6.502-14.496 14.496v91.775c0 7.993 6.503 14.496 14.496 14.496h161.952c7.992 0 14.495-6.503 14.495-14.496v-91.775c0-7.993-6.503-14.496-14.495-14.496z"/><path d="m286.849 511.985h-155.59c-45.227 0-82.021-36.795-82.021-82.021v-347.857c0-45.227 36.794-82.021 82.021-82.021h155.59c45.227 0 82.021 36.794 82.021 82.021 0 8.008-6.492 14.5-14.5 14.5s-14.5-6.492-14.5-14.5c0-29.236-23.785-53.021-53.021-53.021h-155.59c-29.236 0-53.021 23.785-53.021 53.021v347.857c0 29.236 23.785 53.021 53.021 53.021h155.59c29.235 0 53.021-23.785 53.021-53.021v-91.382c0-8.008 6.492-14.5 14.5-14.5s14.5 6.492 14.5 14.5v91.382c-.001 45.226-36.795 82.021-82.021 82.021z"/><path d="m272.072 437.827h-126.038c-8.008 0-14.5-6.492-14.5-14.5s6.492-14.5 14.5-14.5h126.039c8.008 0 14.5 6.492 14.5 14.5s-6.493 14.5-14.501 14.5z"/><path d="m339.379 246.91c-4.116 0-8.23-1.566-11.364-4.696l-89.353-89.354 20.506-20.506 80.213 80.213 78.034-78.034 20.506 20.506-87.17 87.17c-3.136 3.134-7.254 4.701-11.372 4.701z"/></g></g><g id="download" display="none"><g display="inline"><path d="m360.379 343.647h-5.469c-8.008 0-14.5-6.492-14.5-14.5s6.492-14.5 14.5-14.5h5.469c.321.001.642.012.963-.011l.729-.031c51.441-.895 93.292-43.467 93.292-94.898 0-52.375-42.609-94.984-94.984-94.984h-13.19l-1.586-12.703c-5.913-47.341-46.405-83.041-94.188-83.041s-88.275 35.7-94.188 83.041l-1.586 12.703h-13.19c-52.375 0-94.984 42.609-94.984 94.984 0 50.647 39.611 92.301 90.177 94.827 1.553.075 3.18.113 4.807.113h7.306c8.008 0 14.5 6.492 14.5 14.5s-6.492 14.5-14.5 14.5h-7.306c-2.087 0-4.181-.05-6.224-.147-66.047-3.301-117.76-57.677-117.76-123.793 0-64.363 49.297-117.429 112.117-123.421 12.672-55.688 62.606-96.307 120.832-96.307s108.16 40.619 120.832 96.307c62.82 5.992 112.117 59.058 112.117 123.421 0 32.721-12.647 63.585-35.611 86.907-22.853 23.208-53.335 36.334-85.861 36.981-.967.052-1.816.052-2.514.052z" fill="rgb(0,0,0)"/></g><path d="m251.249 511.965c-.003 0-.006 0-.01 0-4.737-.003-9.294-2.029-12.503-5.56l-100.631-110.777c-4.623-5.087-5.804-12.459-3.007-18.781 2.737-6.187 8.83-10.184 15.522-10.184h34.913v-136.113c0-9.519 7.634-17.263 17.017-17.263h97.743c9.383 0 17.017 7.744 17.017 17.263v136.113h34.899c6.695 0 12.79 4.001 15.525 10.192 2.795 6.327 1.607 13.703-3.026 18.79l-100.963 110.779c-3.207 3.52-7.763 5.541-12.496 5.541zm-73.933-116.302 73.947 81.403 74.191-81.403h-20.129c-9.383 0-17.017-7.744-17.017-17.264v-136.112h-73.777v136.112c0 9.52-7.634 17.264-17.017 17.264z" display="inline" fill="rgb(0,0,0)"/></g><g id="upload" display="none"><g display="inline"><g><path d="m376.375 387.389h-6.045c-8.008 0-14.5-6.492-14.5-14.5s6.492-14.5 14.5-14.5h6.045c.44 0 .938 0 1.162-.016l.734-.031c57.682-1.003 104.609-48.739 104.609-106.412 0-58.728-47.778-106.506-106.506-106.506h-13.231l-1.587-12.703c-6.63-53.085-52.034-93.117-105.614-93.117s-98.984 40.032-105.615 93.117l-1.586 12.703h-13.231c-58.728 0-106.506 47.778-106.506 106.506 0 56.791 44.416 103.498 101.118 106.332 1.748.084 3.572.127 5.389.127h8.075c8.008 0 14.5 6.492 14.5 14.5s-6.492 14.5-14.5 14.5h-8.075c-2.275 0-4.564-.054-6.804-.161-72.185-3.608-128.704-63.038-128.704-135.297 0-70.719 54.457-128.958 123.638-134.991 13.447-61.415 68.29-106.335 132.301-106.335s118.854 44.921 132.302 106.335c69.18 6.032 123.637 64.272 123.637 134.991 0 35.762-13.822 69.494-38.921 94.983-24.982 25.371-58.309 39.718-93.866 40.419-1.038.056-1.96.056-2.719.056z" fill="rgb(0,0,0)"/></g><path d="m310.991 501.395h-108.029c-9.529 0-17.282-7.875-17.282-17.555v-151.962h-40.113c-6.792 0-12.979-4.062-15.76-10.347-2.847-6.434-1.646-13.938 3.059-19.115l111.218-122.432c3.258-3.586 7.884-5.645 12.692-5.648h.011c4.804 0 9.427 2.052 12.686 5.63l111.582 122.429c4.717 5.177 5.926 12.684 3.081 19.125-2.779 6.292-8.967 10.357-15.765 10.357h-40.098v151.963c0 9.68-7.752 17.555-17.282 17.555zm-96.311-29h84.593v-151.963c0-9.68 7.753-17.555 17.282-17.555h25.701l-85.456-93.764-85.176 93.764h25.773c9.529 0 17.282 7.875 17.282 17.555v151.963z" fill="rgb(0,0,0)"/></g></g><g id="play_video_1_" display="none"><g display="inline" fill="rgb(0,0,0)"><path d="m483 29v324.989h-454v-324.989zm14-29h-482c-8.284 0-15 6.716-15 15v352.989c0 8.284 6.716 15 15 15h482c8.284 0 15-6.716 15-15v-352.989c0-8.284-6.716-15-15-15z"/><path d="m254.825 511.988c-8.008 0-14.5-6.492-14.5-14.5v-129.153c0-8.008 6.492-14.5 14.5-14.5s14.5 6.492 14.5 14.5v129.153c-.001 8.008-6.492 14.5-14.5 14.5z"/><path d="m337.206 511.988h-164.762c-8.008 0-14.5-6.492-14.5-14.5s6.492-14.5 14.5-14.5h164.762c8.008 0 14.5 6.492 14.5 14.5s-6.492 14.5-14.5 14.5z"/><path d="m482.189 306.486h-456.85c-8.008 0-14.5-6.492-14.5-14.5s6.492-14.5 14.5-14.5h456.85c8.008 0 14.5 6.492 14.5 14.5s-6.492 14.5-14.5 14.5z"/></g></g><g id="play_video" display="none"><g display="inline" fill="rgb(0,0,0)"><circle cx="142.708" cy="472.004" r="32.792"/><path d="m483 36.204v325.068h-454v-325.068zm14-29h-482c-8.284 0-15 6.716-15 15v353.068c0 8.284 6.716 15 15 15h482c8.284 0 15-6.716 15-15v-353.068c0-8.284-6.716-15-15-15z"/><path d="m484.177 313.751h-456.85c-8.008 0-14.5-6.492-14.5-14.5s6.492-14.5 14.5-14.5h456.85c8.008 0 14.5 6.492 14.5 14.5s-6.492 14.5-14.5 14.5z"/><path d="m484.425 486.504h-465.134c-8.008 0-14.5-6.492-14.5-14.5s6.492-14.5 14.5-14.5h465.134c8.008 0 14.5 6.492 14.5 14.5s-6.492 14.5-14.5 14.5z"/><path d="m239.738 173.213v-35.002c0-7.207 7.802-11.712 14.044-8.108l30.312 17.501 30.312 17.501c6.242 3.604 6.242 12.613 0 16.216l-30.312 17.501-30.312 17.501c-6.242 3.604-14.044-.901-14.044-8.108z"/></g></g><g id="document" display="none"><g display="inline" fill="rgb(0,0,0)"><path d="m108.178 29h-.002.117.067.067 212.124c4.678.312 9.226 1.421 13.529 3.298 4.386 1.914 8.362 4.562 11.821 7.87l82.41 82.41c6.542 6.542 10.145 15.241 10.145 24.493v301.292c0 19.099-15.538 34.638-34.638 34.638h-295.637c-19.099 0-34.638-15.538-34.638-34.638v-384.725c0-19.098 15.537-34.637 34.635-34.638m-.002-29c-35.125.003-63.633 28.481-63.633 63.638v384.725c0 35.146 28.492 63.638 63.638 63.638h295.638c35.146 0 63.638-28.492 63.638-63.638v-301.292c0-16.878-6.705-33.064-18.639-44.999l-82.605-82.605c-4.013-3.879-10.787-9.495-20.531-13.747-9.862-4.304-18.69-5.434-24.291-5.72-70.987 0-141.975 0-212.962 0-.087 0-.167 0-.253 0z"/><path d="m399.904 164.517c-3.461 0-6.935-.028-10.404-.099l-.304-.006c-10.594-.216-22.601-.461-34.023-4.031-15.634-4.885-29.509-14.191-40.122-26.913-11.193-13.414-18.268-29.559-19.921-45.458-1.597-15.345-1.41-30.594-1.23-45.34.056-4.605.114-9.368.114-14.003h29c0 4.812-.06 9.665-.116 14.357-.178 14.56-.346 28.313 1.076 41.986 1.049 10.082 5.912 20.972 13.345 29.879 6.936 8.313 16.348 14.639 26.504 17.812 7.487 2.34 16.881 2.532 25.965 2.717l.305.006c9.552.196 19.385.043 28.892-.104 6.375-.098 12.967-.2 19.507-.2v29c-6.316 0-12.795.1-19.06.196-6.401.1-12.944.201-19.528.201z"/><path d="m280.272 172.958h-132.692c-8.008 0-14.5-6.492-14.5-14.5s6.492-14.5 14.5-14.5h132.692c8.008 0 14.5 6.492 14.5 14.5s-6.492 14.5-14.5 14.5z"/><path d="m364.42 270.5h-216.84c-8.008 0-14.5-6.492-14.5-14.5s6.492-14.5 14.5-14.5h216.84c8.008 0 14.5 6.492 14.5 14.5s-6.492 14.5-14.5 14.5z"/><path d="m364.42 368.438h-216.84c-8.008 0-14.5-6.492-14.5-14.5s6.492-14.5 14.5-14.5h216.84c8.008 0 14.5 6.492 14.5 14.5s-6.492 14.5-14.5 14.5z"/></g></g><g id="document_with_pen" display="none"><g display="inline"><path d="" fill="none" stroke="rgb(0,0,0)" stroke-miterlimit="10" stroke-width="29"/><path d="" fill="none" stroke="rgb(0,0,0)" stroke-miterlimit="10" stroke-width="29"/><path d="" fill="none" stroke="rgb(0,0,0)" stroke-miterlimit="10" stroke-width="29"/><path d="" fill="none" stroke="rgb(0,0,0)" stroke-miterlimit="10" stroke-width="29"/><g fill="rgb(0,0,0)"><path d="m354.571 162.086c-3.421 0-6.853-.028-10.282-.098l-.294-.006c-10.476-.215-22.349-.458-33.662-4.022-15.47-4.872-29.194-14.149-39.688-26.828-11.052-13.351-18.037-29.413-19.667-45.228-1.575-15.262-1.392-30.428-1.214-45.095.056-4.581.113-9.318.113-13.929h29c0 4.786-.059 9.613-.115 14.28-.175 14.484-.341 28.165 1.063 41.769 1.033 10.028 5.83 20.857 13.16 29.711 6.823 8.244 16.079 14.516 26.061 17.659 7.352 2.316 16.601 2.506 25.545 2.689l.296.006c9.42.195 19.124.043 28.505-.103 6.291-.098 12.796-.199 19.251-.199v29c-6.229 0-12.619.1-18.8.195-6.317.099-12.774.199-19.272.199z"/><path d="m268.357 466.881c-4.425 0-8.743-1.74-11.934-4.896-3.849-3.806-5.662-9.273-4.85-14.628l10.742-70.701c.545-3.585 2.182-6.838 4.732-9.41l157.073-158.322c3.209-3.233 7.48-5.012 12.03-5.012s8.821 1.779 12.028 5.011l58.853 59.322c6.544 6.591 6.546 17.324.001 23.923l-157.094 158.345c-2.534 2.548-5.747 4.2-9.289 4.778l-69.581 11.37c-.902.148-1.808.22-2.711.22zm22.042-81.994-7.671 50.484 49.388-8.07 145.933-147.095-41.898-42.232z"/><path d="m421.457 236.155h29v88.491h-29z" transform="matrix(.71 -.704 .704 .71 -71.017 388.383)"/><path d="m293.436 365.197h29v88.491h-29z" transform="matrix(.71 -.704 .704 .71 -199.039 335.656)"/><path d="m343.931 511.941h-271.044c-40.166 0-72.844-33.421-72.844-74.501v-362.736c0-20.275 7.822-39.231 22.025-53.377 13.754-13.699 31.895-21.233 51.104-21.123l196.063-.088.49.033c9.31.627 18.348 2.891 26.862 6.728 8.604 3.878 16.371 9.226 23.084 15.895l.177.179 75.732 77.884c13.666 14.055 21.192 32.712 21.192 52.535v32.939c0 8.008-6.492 14.5-14.5 14.5s-14.5-6.492-14.5-14.5v-32.939c0-12.053-4.732-23.833-12.983-32.318l-75.639-77.788c-4.22-4.172-9.091-7.518-14.479-9.947-5.216-2.351-10.744-3.763-16.437-4.199l-195.113.086c-.057 0-.117 0-.174 0-11.435 0-22.206 4.495-30.413 12.67-8.699 8.665-13.49 20.324-13.49 32.831v362.735c0 25.089 19.668 45.501 43.844 45.501h271.043c24.175 0 43.843-20.412 43.843-45.501 0-8.008 6.492-14.5 14.5-14.5s14.5 6.492 14.5 14.5c-.001 41.081-32.677 74.501-72.843 74.501z"/><path d="m232.591 176.573h-130.946c-8.008 0-14.5-6.492-14.5-14.5s6.492-14.5 14.5-14.5h130.947c8.008 0 14.5 6.492 14.5 14.5s-6.492 14.5-14.501 14.5z"/><path d="m232.591 370.694h-130.946c-8.008 0-14.5-6.492-14.5-14.5s6.492-14.5 14.5-14.5h130.947c8.008 0 14.5 6.492 14.5 14.5s-6.492 14.5-14.501 14.5z"/><path d="m299.271 273.599h-195.9c-8.008 0-14.5-6.492-14.5-14.5s6.492-14.5 14.5-14.5h195.899c8.008 0 14.5 6.492 14.5 14.5.001 8.007-6.492 14.5-14.499 14.5z"/></g></g></g><g id="pen" display="none"><g display="inline" fill="rgb(0,0,0)"><path d="m20.239 511.965c-5.131 0-10.135-2.021-13.828-5.681-4.439-4.401-6.524-10.717-5.579-16.896l22.351-145.948c.639-4.163 2.549-7.932 5.524-10.903l326.83-326.83c3.705-3.705 8.629-5.744 13.866-5.744 5.239 0 10.164 2.04 13.867 5.745l122.456 122.456c3.704 3.703 5.744 8.627 5.744 13.866s-2.04 10.164-5.745 13.868l-326.852 326.852c-2.928 2.929-6.637 4.828-10.726 5.491l-144.793 23.474c-1.037.168-2.079.25-3.115.25zm31.144-161.091-19.932 130.149 129.059-20.923 318.071-318.07-109.178-109.177z"/><path d="m354.503 50.731h29v183.401h-29z" transform="matrix(.707 -.707 .707 .707 7.364 302.641)"/><path d="m88.112 317.122h29v183.4h-29z" transform="matrix(.707 -.707 .707 .707 -259.027 192.299)"/></g></g><g id="bell" display="none"><g display="inline"><path d="m254.063 454.12c-7.276-.017-14.491-.038-21.706-.062-20.609-.067-41.219-.152-61.828-.263-21.614-.115-44.836-.258-68.204-.513-2.838-.031-5.673-.09-8.507-.148-5.87-.123-11.413-.237-16.971-.11-9.292.213-20.098-.446-29.749-6.932-6.627-4.454-11.827-11.319-14.642-19.331-6.642-18.903 3.557-33.778 11.003-44.641.809-1.179 1.612-2.35 2.386-3.516 15.089-22.736 25.609-48.952 30.423-75.812 3.004-16.77 3.899-33.752 4.846-51.731.546-10.37 1.111-21.093 2.12-31.744 1.588-16.773 4.185-31.192 7.938-44.082 13.794-47.383 50.188-87 97.353-105.978 43.86-17.648 93.782-17.391 136.962.704 13.055 5.471 25.201 12.461 36.1 20.777 20.91 15.955 38.521 37.894 49.588 61.774 12.585 27.151 16.337 56.572 18.2 79.17.607 7.374 1.073 14.818 1.523 22.017 1.189 19.009 2.313 36.963 5.855 54.612 3.924 19.557 10.821 38.381 20.5 55.952 1.261 2.289 2.705 4.701 4.416 7.377l.003.004c2.026 3.173 4.143 6.277 6.383 9.564 1.637 2.402 3.276 4.81 4.887 7.251 8.67 13.141 10.88 26.026 6.567 38.302-2.817 8.014-8.018 14.878-14.644 19.33-9.651 6.486-20.463 7.146-29.747 6.932-5.563-.126-11.103-.013-16.972.11-2.835.059-5.67.117-8.508.148-23.368.255-46.591.397-68.204.513-21.704.116-42.508.205-61.831.263-10.708.033-19.554.051-25.54.063zm-172.088-30.15c4.215 0 8.377.087 12.446.171 2.739.058 5.479.114 8.222.145 23.297.255 46.47.396 68.042.511 20.589.11 41.179.195 61.768.263 7.205.023 14.411.045 21.616.062 5.918-.012 14.754-.03 25.45-.062 19.3-.058 40.08-.146 61.762-.263 21.572-.115 44.745-.256 68.043-.511 2.742-.03 5.482-.087 8.221-.145 5.923-.121 12.047-.25 18.237-.108 4.47.104 9.972-.035 12.91-2.01 1.452-.976 2.712-2.752 3.458-4.875.518-1.472 1.729-4.922-3.412-12.716-1.531-2.32-3.091-4.606-4.646-6.89-2.261-3.317-4.599-6.748-6.857-10.283-2.053-3.212-3.812-6.156-5.381-9.002-11.107-20.165-19.025-41.778-23.532-64.238-3.929-19.578-5.167-39.368-6.365-58.507-.441-7.059-.898-14.358-1.482-21.446-1.666-20.206-4.945-46.351-15.608-69.357-9.123-19.684-23.637-37.766-40.869-50.915-8.938-6.82-18.936-12.568-29.715-17.085-36.202-15.17-78.091-15.369-114.93-.547-38.976 15.682-69.008 48.272-80.334 87.179-3.236 11.115-5.496 23.777-6.91 38.709-.952 10.048-1.5 20.464-2.031 30.537-.952 18.077-1.937 36.769-5.261 55.321-5.507 30.729-17.542 60.722-34.806 86.734-.854 1.285-1.738 2.577-2.63 3.877-6.34 9.248-9.153 14.101-7.562 18.629.746 2.122 2.006 3.899 3.457 4.874 2.938 1.975 8.443 2.112 12.912 2.01 1.935-.045 3.867-.062 5.787-.062z"/><path d="m256 511.994c-39.907 0-72.374-32.467-72.374-72.374h29c0 23.917 19.458 43.374 43.374 43.374s43.374-19.457 43.374-43.374h29c0 39.907-32.467 72.374-72.374 72.374z"/><path d="m323.907 69.127h-29c0-21.454-17.454-38.907-38.907-38.907-21.454 0-38.907 17.454-38.907 38.907h-29c0-37.444 30.463-67.907 67.907-67.907s67.907 30.463 67.907 67.907z"/></g></g><g id="phone" display="none"><g display="inline"><path d="m364.474 512.012c-31.043 0-64.517-6.294-98.859-19.077-53.034-19.702-104.433-53.482-148.634-97.684-44.202-44.2-77.981-95.601-97.687-148.642-33-88.658-22.754-171.541 27.409-221.705 28.436-28.437 70.099-33.046 92.873-10.273l74.676 74.676c22.773 22.772 18.165 64.435-10.273 92.873l-6.794 6.794c-9.457 9.457-11.283 21.123-7.552 26.508 14.228 20.538 30.648 40.157 48.805 58.313 18.158 18.157 37.777 34.578 58.313 48.805 5.385 3.729 17.052 1.903 26.508-7.553l6.794-6.794c13.198-13.198 29.719-21.78 46.517-24.165 18.069-2.565 34.963 2.5 46.355 13.893l74.676 74.676c11.394 11.393 16.457 28.288 13.893 46.355-2.385 16.798-10.967 33.318-24.165 46.517-30.736 30.733-73.753 46.483-122.855 46.483zm-262.018-482.931c-1.955 0-3.727.167-5.16.371-10.464 1.485-21.43 7.302-30.087 15.959-41.917 41.917-49.669 113.353-20.734 191.09 18.267 49.17 49.737 96.971 91.011 138.244 41.274 41.274 89.075 72.744 138.236 91.009 77.745 28.938 149.181 21.187 191.1-20.731 8.656-8.657 14.474-19.623 15.959-30.087.747-5.262 1.001-15.086-5.687-21.773l-74.676-74.676c-6.688-6.687-16.509-6.433-21.773-5.687-10.464 1.485-21.43 7.303-30.087 15.959l-6.794 6.794c-18.791 18.793-45.51 23.368-63.529 10.885-21.959-15.213-42.921-32.754-62.304-52.137-19.382-19.381-36.923-40.343-52.137-62.305-12.484-18.02-7.906-44.737 10.885-63.528l6.794-6.794c16.84-16.84 21.544-40.589 10.273-51.861l-74.676-74.676c-4.866-4.866-11.393-6.056-16.614-6.056z" fill="rgb(0,0,0)"/></g></g><g id="microphone" display="none"><g display="inline" fill="rgb(0,0,0)"><path d="m306.285 290.297h-100.571c-16.698 0-30.283-13.585-30.283-30.283v-229.73c0-16.699 13.585-30.284 30.283-30.284h100.571c16.699 0 30.284 13.585 30.284 30.284v229.728c0 16.7-13.585 30.285-30.284 30.285zm-100.571-261.297c-.708 0-1.283.576-1.283 1.283v229.73c0 .708.576 1.283 1.283 1.283h100.571c.708 0 1.284-.576 1.284-1.284v-229.727c0-.708-.576-1.284-1.284-1.284h-100.571z"/><path d="m256 366.485c-82.431 0-149.494-63.106-149.494-140.675v-73.931c0-8.008 6.492-14.5 14.5-14.5s14.5 6.492 14.5 14.5v73.931c0 61.578 54.053 111.675 120.494 111.675 66.44 0 120.494-50.098 120.494-111.675v-74.483c0-8.008 6.492-14.5 14.5-14.5s14.5 6.492 14.5 14.5v74.483c0 77.569-67.062 140.675-149.494 140.675z"/><path d="m256 510.114c-8.008 0-14.5-6.492-14.5-14.5v-143.629c0-8.008 6.492-14.5 14.5-14.5s14.5 6.492 14.5 14.5v143.629c0 8.008-6.492 14.5-14.5 14.5z"/><path d="m332.377 511.977h-152.754c-8.008 0-14.5-6.492-14.5-14.5s6.492-14.5 14.5-14.5h152.754c8.008 0 14.5 6.492 14.5 14.5s-6.492 14.5-14.5 14.5z"/></g></g><g id="speaker" display="none"><g display="inline"><path d="m446.231 94.427c3.07 0 6.077.948 8.571 2.738 6.616 4.748 10.829 11.821 15.391 18.408 19.243 27.79 31.146 58.596 37.206 91.806 4.303 23.579 5.723 47.293 3.685 71.126-3.872 45.278-17.344 87.223-44.525 124.182-2.924 3.976-6.122 7.769-9.408 11.455-3.305 3.709-7.508 5.123-12.108 4.31-4.844-.856-8.959-4.442-10.468-9.124-1.621-5.028-.218-9.406 2.895-12.942 21.418-24.323 34.036-52.989 41.611-84.143 5.257-21.621 7.191-43.618 6.182-65.78-2.104-46.247-15.246-89-44.575-126.315-.446-.568-.964-1.098-1.484-1.6-8.682-8.394-6.39-19.655 4.462-23.518.351-.125.648-.399.971-.603z"/><path d="m404.283 261.625c.043-.512.065-1.013.06-1.528-.359-33.138-7.222-60.309-23.75-84.628-2.114-3.11-4.486-6.06-6.902-8.947-5-5.975-4.812-13.996.567-18.88 5.552-5.041 13.806-4.584 19.145 1.321 12.819 14.179 21.364 30.829 27.704 48.704 8.153 22.99 10.855 46.817 9.291 70.973-2.111 32.598-11.755 62.795-31.662 89.177-2.479 3.285-5.259 6.567-8.546 8.966-5.319 3.882-12.851 2.627-16.903-2.082-4.112-4.779-4.484-12.488-.298-17.257 16.249-18.516 24.915-40.478 29.13-64.344 1.453-8.226 1.758-16.658 2.164-21.475z"/><path d="m355.133 255.528c.073.678.108 1.364.089 2.046-.517 19.394-5.69 37.187-17.13 52.996-3.39 4.685-7.133 8.945-13.822 8.725-5.551-.182-9.511-2.803-11.68-7.612-2.155-4.779-1.638-9.585 1.8-13.868 16.483-20.532 18.867-51.798 5.625-74.553-1.493-2.565-3.419-4.885-5.209-7.269-4.89-6.515-4.388-14.465 1.25-19.192 5.617-4.708 13.353-4.101 18.771 1.945 9.849 10.99 15.418 24.151 18.143 38.491 1.142 6.016 1.505 12.182 2.163 18.291z"/></g><g fill="rgb(0,0,0)"><path d="m55.526 213.247v86.713h-26.526v-86.713zm23.965-29h-74.456c-2.781 0-5.035 2.254-5.035 5.035v134.642c0 2.781 2.254 5.035 5.035 5.035h74.455c2.781 0 5.035-2.254 5.035-5.035v-134.641c.001-2.781-2.253-5.036-5.034-5.036z" display="inline"/><path d="m234.497 423.526c-5.327 0-10.645-1.459-15.326-4.36-22.531-13.97-45.31-27.156-67.339-39.908-28.162-16.303-57.282-33.161-86.508-51.994-6.731-4.338-8.672-13.312-4.334-20.043s13.311-8.672 20.043-4.334c28.645 18.459 57.46 35.141 85.328 51.272 22.215 12.861 45.187 26.159 68.09 40.359.059.024.179-.04.224-.093-.001-.008.002-.042.002-.097l-.063-276.682c0-.08-.008-.114-.008-.114-.018-.011-.126-.073-.19-.084-.005.004-.038.018-.089.047-23.755 13.381-47.723 26.805-70.901 39.786-28.974 16.227-58.935 33.007-88.732 49.845-6.97 3.941-15.817 1.483-19.757-5.49-3.94-6.972-1.482-15.818 5.49-19.757 29.846-16.866 59.831-33.66 88.829-49.9 23.163-12.973 47.115-26.387 70.839-39.751 9.142-5.15 20.006-5.064 29.063.228 9.05 5.288 14.454 14.703 14.456 25.185l.063 276.683c.002 10.589-5.747 20.369-15.005 25.523-4.411 2.456-9.297 3.678-14.175 3.679z" display="inline"/></g></g><g id="receiver" display="none"><g display="inline"><path d="m253.367 269.828c-29.761 0-53.974-24.212-53.974-53.974s24.213-53.974 53.974-53.974 53.974 24.213 53.974 53.974-24.213 53.974-53.974 53.974zm0-78.948c-13.771 0-24.974 11.203-24.974 24.974s11.203 24.974 24.974 24.974 24.974-11.203 24.974-24.974-11.203-24.974-24.974-24.974z" fill="rgb(0,0,0)"/><path d="m290.381 452.465h-74.028c-8.588 0-16.59-3.847-21.954-10.554-5.364-6.708-7.358-15.359-5.47-23.738l36.588-162.347c1.761-7.812 9.518-12.722 17.333-10.957 5.077 1.144 8.927 4.823 10.517 9.403 1.59-4.581 5.439-8.26 10.518-9.404 7.805-1.764 15.571 3.145 17.333 10.957l36.588 162.348c1.889 8.377-.104 17.029-5.469 23.737-5.364 6.707-13.367 10.555-21.956 10.555zm-.866-27.916h.01zm-72.052-1.084h71.807l-35.903-159.31z" fill="rgb(0,0,0)"/><path d="m456.864 59.535c8.451 3.909 12.939 11.696 17.886 18.84 17.145 24.76 27.75 52.208 33.15 81.797 3.834 21.009 5.099 42.137 3.283 63.371-3.45 40.341-15.453 77.714-39.67 110.643-2.605 3.543-5.455 6.922-8.382 10.206-3.308 3.712-7.625 4.844-12.319 3.482-4.91-1.424-7.67-4.997-8.311-10.059-.446-3.528.805-6.641 3.095-9.243 19.083-21.671 30.325-47.212 37.074-74.969 4.684-19.264 6.407-38.862 5.508-58.608-1.76-38.667-12.179-74.592-35.049-106.344-2.165-3.006-4.521-5.894-6.985-8.662-6.537-7.342-4.256-16.631 4.972-19.917.312-.111.578-.355.865-.538 1.628.001 3.256.001 4.883.001z"/><path d="m416.087 207.837c-.231-29.84-6.326-54.258-21.167-76.094-1.883-2.771-3.997-5.399-6.15-7.972-4.455-5.324-4.287-12.47.505-16.821 4.947-4.491 12.3-4.085 17.057 1.177 11.421 12.633 19.035 27.468 24.683 43.394 7.264 20.483 9.672 41.713 8.278 63.235-1.88 29.044-10.473 55.949-28.21 79.455-2.208 2.927-4.686 5.851-7.614 7.989-4.739 3.458-11.45 2.34-15.06-1.855-3.664-4.258-3.995-11.126-.266-15.376 14.477-16.497 22.199-36.065 25.954-57.328 1.366-7.73 1.595-15.658 1.99-19.804z"/><path d="m372.336 203.978c-.32 17.636-4.911 33.8-15.283 48.134-3.02 4.174-6.355 7.97-12.315 7.774-4.946-.163-8.474-2.498-10.407-6.782-1.92-4.258-1.46-8.54 1.604-12.356 14.686-18.293 16.81-46.151 5.011-66.424-1.33-2.286-3.046-4.352-4.641-6.477-4.357-5.805-3.91-12.888 1.114-17.099 5.004-4.195 11.898-3.654 16.725 1.733 8.775 9.792 13.737 21.518 16.165 34.295 1.073 5.657 1.374 11.463 2.027 17.202z"/><path d="m55.136 72.053c-8.451 3.909-12.939 11.696-17.886 18.84-17.145 24.76-27.75 52.208-33.15 81.797-3.834 21.008-5.1 42.137-3.284 63.371 3.45 40.341 15.453 77.714 39.67 110.643 2.605 3.542 5.455 6.922 8.382 10.206 3.308 3.712 7.625 4.844 12.319 3.482 4.91-1.424 7.67-4.997 8.311-10.059.446-3.528-.805-6.641-3.095-9.243-19.083-21.671-30.325-47.212-37.074-74.969-4.684-19.264-6.407-38.862-5.508-58.608 1.76-38.667 12.179-74.592 35.049-106.344 2.165-3.006 4.521-5.894 6.985-8.662 6.537-7.342 4.256-16.631-4.972-19.917-.313-.111-.578-.355-.865-.538-1.627.001-3.255.001-4.882.001z"/><path d="m95.913 220.354c.231-29.84 6.326-54.258 21.167-76.094 1.883-2.771 3.997-5.399 6.15-7.972 4.455-5.324 4.287-12.47-.505-16.821-4.947-4.491-12.3-4.085-17.058 1.177-11.421 12.633-19.035 27.468-24.683 43.394-7.264 20.483-9.672 41.713-8.278 63.235 1.88 29.044 10.473 55.949 28.21 79.455 2.208 2.927 4.686 5.851 7.614 7.989 4.739 3.458 11.45 2.34 15.06-1.855 3.664-4.258 3.995-11.126.266-15.376-14.477-16.497-22.199-36.065-25.954-57.328-1.365-7.729-1.594-15.657-1.989-19.804z"/><path d="m139.664 216.496c.32 17.636 4.911 33.8 15.283 48.134 3.02 4.174 6.355 7.97 12.315 7.774 4.946-.163 8.474-2.498 10.407-6.782 1.92-4.258 1.46-8.54-1.604-12.356-14.686-18.293-16.81-46.151-5.011-66.424 1.33-2.286 3.046-4.352 4.641-6.477 4.357-5.805 3.91-12.888-1.114-17.099-5.004-4.195-11.898-3.654-16.725 1.733-8.775 9.792-13.737 21.518-16.165 34.295-1.073 5.657-1.374 11.463-2.027 17.202z"/></g></g><g id="mutually_arrows" display="none"><g display="inline"><g><path d="m375.059 149.727h-360.456c-8.008 0-14.5-6.492-14.5-14.5s6.492-14.5 14.5-14.5h360.456c8.008 0 14.5 6.492 14.5 14.5s-6.493 14.5-14.5 14.5z"/><path d="m357.524 270.451c-4.162 0-8.292-1.782-11.16-5.233-5.118-6.159-4.274-15.301 1.885-20.419l131.858-109.572-131.858-109.572c-6.159-5.118-7.003-14.26-1.885-20.419 5.118-6.16 14.26-7.003 20.42-1.885l137.38 114.161c4.979 4.137 7.834 10.594 7.834 17.715s-2.855 13.578-7.835 17.715l-137.379 114.16c-2.709 2.252-5.994 3.349-9.26 3.349zm128.106-130.635h.01z"/></g><path d="m497.498 391.175h-360.456c-8.008 0-14.5-6.492-14.5-14.5s6.492-14.5 14.5-14.5h360.456c8.008 0 14.5 6.492 14.5 14.5s-6.492 14.5-14.5 14.5z"/><path d="m154.576 511.898c-3.267.001-6.551-1.097-9.259-3.348l-137.379-114.159c-4.979-4.139-7.834-10.595-7.834-17.716s2.855-13.577 7.833-17.715l137.38-114.161c6.157-5.119 15.3-4.275 20.419 1.885 5.118 6.159 4.274 15.301-1.885 20.419l-131.857 109.572 131.857 109.571c6.159 5.118 7.003 14.261 1.885 20.42-2.867 3.45-6.999 5.232-11.16 5.232z"/></g></g><g id="paper_plane" display="none"><g display="inline" fill="rgb(0,0,0)"><path d="m337.649 435.055c-6.959 0-13.266-4.088-16.15-10.509l-.001-.003-72.535-161.527-161.527-72.535c-6.552-2.943-10.675-9.448-10.506-16.573.164-6.881 4.391-12.949 10.77-15.458l400.581-157.554c6.444-2.534 13.815-.955 18.787 4.018 4.971 4.973 6.547 12.346 4.014 18.784l-157.553 400.582c-2.51 6.379-8.577 10.606-15.458 10.77-.14.003-.282.005-.422.005zm-213.382-259.825 140.448 63.069c3.995 1.797 7.177 4.98 8.966 8.967l63.068 140.446 137.751-350.233z"/><path d="m259.613 266.866c-3.711 0-7.422-1.416-10.253-4.247-5.663-5.663-5.663-14.844 0-20.506l90.092-90.092c5.662-5.663 14.844-5.663 20.506 0 5.663 5.663 5.663 14.843 0 20.506l-90.092 90.092c-2.831 2.831-6.542 4.247-10.253 4.247z"/><path d="m88.921 437.559c-3.711 0-7.422-1.416-10.253-4.247-5.663-5.662-5.663-14.844 0-20.506l103.906-103.906c5.662-5.662 14.844-5.662 20.506 0 5.663 5.662 5.663 14.844 0 20.506l-103.906 103.906c-2.831 2.831-6.542 4.247-10.253 4.247z"/><path d="m158.989 511.831c-3.711 0-7.422-1.416-10.253-4.247-5.663-5.662-5.663-14.844 0-20.506l66.937-66.937c5.662-5.662 14.844-5.662 20.506 0 5.663 5.662 5.663 14.844 0 20.506l-66.937 66.937c-2.831 2.831-6.542 4.247-10.253 4.247z"/><path d="m14.543 367.385c-3.711 0-7.421-1.415-10.253-4.247-5.663-5.662-5.663-14.844 0-20.506l66.937-66.937c5.663-5.663 14.843-5.663 20.506 0 5.663 5.662 5.663 14.844 0 20.506l-66.937 66.937c-2.831 2.831-6.543 4.247-10.253 4.247z"/></g></g><g id="thumbs_up" display="none"><g display="inline"><path d="m283.218 512.026c-25.344 0-49.779-1.421-73.039-4.257-29.177-3.559-54.317-9.907-76.857-19.41-19.969-8.419-43.708-18.14-68.362-26.395-18.262-6.116-20.725-18.387-20.725-29.584v-172.156c0-4.4 1.812-8.693 4.971-11.777 3.199-3.122 7.624-4.852 12.1-4.743 22.116.536 43.009-3.206 62.088-11.123 41.98-17.422 63.11-50.452 72.133-64.556 22.65-35.407 44.526-74.413 51.169-119.688 4.384-29.874 23.781-48.324 50.704-48.324.253 0 .506.002.762.005 26.15.329 45.943 19.647 51.652 50.415 8.188 43.904 3.207 87.312-14.808 129.007-.596 1.377-1.181 2.767-1.767 4.185 1.686-.004 3.365-.009 5.04-.014 19.726-.056 38.358-.108 57.229.131 36.155.469 61.569 16.97 69.73 45.272 3.006 10.454 3.33 20.624.966 30.238-1.031 4.205-5.951 21.421-19.732 33.398 2.856 3.883 5.189 8.438 6.971 13.628 1.748 5.093 2.633 10.404 2.633 15.798 0 17.613-9.463 33.156-23.788 42.233 9.862 12.785 12.934 29.517 7.948 45.37-5.243 16.68-19.723 29.352-37.266 33.685 1.119 4.134 1.686 8.395 1.686 12.704 0 14.456-6.896 28.744-18.445 38.219-12.59 10.329-28.81 12.365-41.843 14.001-4.435.557-8.624 1.083-12.117 1.849-.699.159-1.521.281-2.347.342-.044.004-.089.007-.133.01-15.804 1.026-31.343 1.537-46.553 1.537zm-209.944-77.878c.255.097.551.202.894.316 25.574 8.564 49.949 18.542 70.42 27.172 20.027 8.444 42.63 14.118 69.101 17.346 35.173 4.289 73.293 5.17 113.313 2.625 4.548-.937 9.223-1.523 13.754-2.093 10.297-1.292 20.944-2.629 27.062-7.646 4.907-4.027 7.838-9.933 7.838-15.799 0-2.147-.347-4.261-1.029-6.281l-.063-.187c-.873-2.586-1.274-3.64-2.032-4.446-.549-.584-1.21-1.002-2.047-1.531-10.356-6.545-8.451-15.53-7.621-18.128 1.04-3.238 4.694-10.667 16.342-10.667.121 0 .242 0 .365.002 2.692.035 6.237.397 11.101 1.137 10.246-.354 19.211-6.43 21.9-14.984 2.521-8.014.467-15.879-5.633-21.58-3.547-3.313-8.048-5.493-13.021-6.309-.22-.024-.479-.045-.731-.067-15.245-1.36-14.84-14.729-14.815-15.297.269-6.408 5.006-13.532 14.771-13.973.725-.032 1.749-.055 2.953-.063 2.013-.012 4.617.004 7.024.031 13.218-.035 23.958-9.733 23.958-21.648 0-2.183-.355-4.326-1.058-6.371-1.582-4.608-3.449-6.791-4.738-7.813h-.001c-3.603-2.856-10.355-2.867-13.239-2.871-2.801-.005-8.015-.013-12.39-4.474-2.722-2.776-4.232-6.567-4.162-10.454.07-3.874 1.707-7.597 4.511-10.271 4.503-4.292 9.599-4.151 12.647-4.067 2.835.083 8.105.226 12.592-1.344 12.315-4.306 16.755-21.877 16.799-22.054 1.162-4.727.942-9.728-.666-15.319-5.98-20.742-29.028-24.128-42.235-24.299-18.639-.237-37.161-.184-56.774-.13-7.665.022-15.442.043-23.378.048-.004 0-.008 0-.011 0-5.558 0-10.728-2.729-13.833-7.303-3.066-4.516-3.695-10.234-1.682-15.296.819-2.062 1.593-4.022 2.335-5.905 2.336-5.922 4.353-11.037 6.595-16.221 15.905-36.812 20.13-73.514 12.916-112.197-1.479-7.973-6.727-26.51-23.511-26.721-15.596-.232-20.812 12.686-22.403 23.532-7.439 50.694-31.039 92.971-55.434 131.105-9.588 14.988-35.059 54.802-85.446 75.713-19.141 7.943-39.703 12.38-61.274 13.235v159.779c-.004.728.012 1.309.036 1.768zm252.867 47.641c-.066.014-.133.028-.199.044.066-.015.132-.029.199-.044zm65.431-65.683c.037.006.074.012.111.018-.037-.006-.074-.012-.111-.018z" fill="rgb(0,0,0)"/></g></g><g id="eye" display="none"><g display="inline" fill="rgb(0,0,0)"><path d="m256.092 409.985c-133.925 0-218.424-92.174-248.538-131.804-9.768-12.853-9.768-31.511 0-44.365 30.114-39.629 114.613-131.802 248.538-131.802 133.923 0 218.424 92.173 248.538 131.803 9.767 12.853 9.767 31.511 0 44.364-30.114 39.631-114.615 131.804-248.538 131.804zm0-278.97c-120.94 0-197.951 84.163-225.448 120.348-1.943 2.557-1.943 6.716 0 9.273 27.497 36.187 104.507 120.35 225.448 120.35 120.938 0 197.951-84.164 225.448-120.35 1.942-2.556 1.942-6.716 0-9.272-27.497-36.186-104.51-120.349-225.448-120.349z"/><path d="m256.092 394.103c-76.15 0-138.103-61.952-138.103-138.103 0-76.15 61.953-138.103 138.103-138.103s138.103 61.953 138.103 138.103c-.001 76.15-61.953 138.103-138.103 138.103zm0-247.206c-60.159 0-109.103 48.943-109.103 109.103s48.943 109.103 109.103 109.103 109.102-48.944 109.102-109.103-48.943-109.103-109.102-109.103z"/><path d="m256.092 311.082c-30.373 0-55.083-24.71-55.083-55.082 0-30.373 24.71-55.082 55.083-55.082 30.372 0 55.082 24.709 55.082 55.082 0 30.372-24.71 55.082-55.082 55.082zm0-81.164c-14.382 0-26.083 11.7-26.083 26.082s11.701 26.082 26.083 26.082 26.082-11.7 26.082-26.082-11.7-26.082-26.082-26.082z"/></g></g><g id="globe" display="none"><g display="inline" fill="rgb(0,0,0)"><path d="m255.997 511.997c-68.378 0-132.664-26.634-181.014-74.994-48.35-48.36-74.977-112.657-74.977-181.048s26.627-132.688 74.977-181.048c48.35-48.361 112.635-74.994 181.014-74.994s132.663 26.633 181.014 74.994c48.35 48.36 74.977 112.657 74.977 181.048s-26.627 132.688-74.977 181.048c-48.351 48.36-112.636 74.994-181.014 74.994zm0-483.084c-125.163 0-226.991 101.851-226.991 227.042 0 125.192 101.828 227.042 226.991 227.042 125.164 0 226.991-101.851 226.991-227.042-.001-125.192-101.828-227.042-226.991-227.042z"/><path d="m251.977 512.001c-5.635 0-10.994-3.304-13.344-8.814-3.142-7.366.282-15.885 7.648-19.026 75.245-32.098 126.002-123.678 126.303-227.886.299-103.405-49.424-195.27-123.73-228.592-7.307-3.277-10.574-11.857-7.297-19.164 3.277-7.307 11.854-10.575 19.164-7.297 84.586 37.933 141.195 140.465 140.863 255.137-.162 56.147-13.808 110.036-39.463 155.839-26.037 46.484-62.159 80.593-104.461 98.637-1.856.791-3.786 1.166-5.683 1.166z"/><path d="m259.216 512.001c-1.892 0-3.814-.372-5.665-1.159-42.3-17.978-78.403-52.066-104.406-98.581-25.621-45.831-39.195-99.751-39.257-155.928-.062-56.312 13.454-110.384 39.086-156.373 26.014-46.674 62.176-80.87 104.577-98.891 7.369-3.133 15.885.303 19.017 7.673 3.133 7.37-.303 15.884-7.673 19.017-74.303 31.58-126.119 125.561-126.006 228.543.114 104.302 50.752 195.868 126.006 227.852 7.37 3.133 10.806 11.646 7.673 19.017-2.346 5.517-7.711 8.83-13.352 8.83z"/><path d="m439.047 427.964c-3.467 0-6.945-1.236-9.72-3.745-19.644-17.762-42.565-32.256-68.131-43.081-33.012-13.994-68.356-21.158-105.058-21.294-.331-.001-.661-.002-.992-.002-36.235 0-72.571 7.248-105.183 20.979-25.501 10.706-48.395 25.043-68.056 42.619-5.97 5.338-15.137 4.824-20.474-1.147-5.337-5.97-4.823-15.137 1.147-20.474 22.065-19.724 47.684-35.783 76.144-47.731 36.459-15.352 77.059-23.374 117.484-23.244 40.612.15 79.729 8.088 116.301 23.592 28.552 12.09 54.214 28.332 76.267 48.273 5.94 5.371 6.401 14.54 1.03 20.479-2.862 3.166-6.803 4.776-10.759 4.776z"/><path d="m255.147 180.898c-40.047 0-80.255-8.019-116.394-23.213-28.412-11.943-54.013-27.986-76.09-47.683-5.976-5.332-6.498-14.498-1.167-20.473 5.332-5.976 14.497-6.499 20.473-1.167 19.682 17.56 42.567 31.889 68.022 42.588 32.908 13.836 69.572 21.119 106.109 20.945 36.364-.134 72.782-7.542 105.353-21.425l2.73-1.161c24.315-10.642 46.21-24.671 65.117-41.728 5.945-5.366 15.114-4.893 20.479 1.053 5.364 5.946 4.893 15.115-1.054 20.479-21.996 19.843-47.528 36.007-75.887 48.043l-2.779 1.152c-35.826 14.843-74.1 22.439-113.817 22.586-.362.004-.73.004-1.095.004z"/><path d="m256.178 498.449c-8.008 0-14.5-6.492-14.5-14.5v-455.989c0-8.008 6.492-14.5 14.5-14.5s14.5 6.492 14.5 14.5v455.989c0 8.008-6.492 14.5-14.5 14.5z"/><path d="m483.683 270.375h-455.892c-8.008 0-14.5-6.492-14.5-14.5s6.492-14.5 14.5-14.5h455.892c8.008 0 14.5 6.492 14.5 14.5s-6.493 14.5-14.5 14.5z"/></g></g><g id="usb_stick" display="none"><path d="m350.879 136.007v346.993h-189.758v-346.993zm14-29h-217.758c-8.284 0-15 6.716-15 15v374.993c0 8.284 6.716 15 15 15h217.757c8.284 0 15-6.716 15-15v-374.993c.001-8.284-6.715-15-14.999-15z" display="inline" fill="rgb(0,0,0)"/><path d="m333.871 136.083h-155.742c-8.547 0-15.5-6.953-15.5-15.5v-105.02c0-8.547 6.953-15.5 15.5-15.5h155.742c8.547 0 15.5 6.953 15.5 15.5v105.021c0 8.546-6.953 15.499-15.5 15.499zm-142.242-29h128.742v-78.02h-128.742z" display="inline" fill="rgb(0,0,0)"/><g display="inline"><g><circle cx="207.761" cy="286.931" fill="rgb(0,0,0)" r="17.785"/></g><g><circle cx="256" cy="435.678" fill="rgb(0,0,0)" r="23.008"/></g><g fill="rgb(0,0,0)"><g><path d="m256 435.678v-228.167"/><path d="m256.001 446.361c-5.9 0-10.682-4.782-10.682-10.682v-228.17c0-5.9 4.782-10.682 10.682-10.682s10.682 4.782 10.682 10.682v228.171c0 5.899-4.782 10.681-10.682 10.681z"/></g><path d="m249.579 383.477-46.507-34.97c-3.801-2.841-5.992-7.106-5.992-11.679v-41.17h21.363v37.678l43.979 33.067zm-33.684-52.061.017.017c-.005-.004-.013-.013-.017-.017z"/><path d="m262.418 342.962-12.835-17.074 43.974-33.063v-37.682h21.363v41.17c0 4.552-2.178 8.804-5.979 11.671z"/><path d="m321.024 224.502h-33.571c-.552 0-1 .448-1 1v33.571c0 .552.448 1 1 1h33.571c.552 0 1-.448 1-1v-33.571c0-.552-.448-1-1-1z"/><path d="m256.001 207.511h22.326c3.279 0 5.328-3.55 3.689-6.389l-11.163-19.335-11.163-19.335c-1.639-2.84-5.738-2.84-7.378 0l-11.163 19.335-11.163 19.335c-1.639 2.84.41 6.389 3.689 6.389z"/></g></g></g><g id="camera" display="none"><g display="inline" fill="rgb(0,0,0)"><path d="m265.247 380.998c-57.713 0-104.667-46.953-104.667-104.667 0-57.713 46.953-104.667 104.667-104.667s104.667 46.953 104.667 104.667-46.953 104.667-104.667 104.667zm0-180.333c-41.723 0-75.667 33.944-75.667 75.667s33.944 75.667 75.667 75.667 75.667-33.944 75.667-75.667-33.944-75.667-75.667-75.667z"/><path d="m419.918 467.471h-327.833c-50.764 0-92.063-37.978-92.063-84.659v-190.569c0-46.679 41.299-84.656 92.063-84.656h25.707l42.498-55.789c3.521-4.621 9.342-7.269 15.972-7.269h160.479c6.634 0 12.457 2.651 15.975 7.274l42.495 55.784h24.707c50.764 0 92.063 37.977 92.063 84.656v190.568c0 46.682-41.299 84.66-92.063 84.66zm-327.833-330.884c-34.773 0-63.063 24.967-63.063 55.656v190.568c0 30.69 28.29 55.659 63.063 55.659h327.833c34.773 0 63.063-24.969 63.063-55.659v-190.568c0-30.688-28.29-55.656-63.063-55.656h-29.564c-5.95 0-11.626-2.786-15.184-7.451l-42.359-55.607h-152.619l-42.355 55.603c-3.558 4.669-9.234 7.456-15.187 7.456h-30.565z"/></g></g><g id="mailbox" display="none"><g display="inline" fill="rgb(0,0,0)"><path d="m200.181 370.733h-112.652c-15.244 0-27.645-12.401-27.645-27.646v-153.881c0-38.68 31.468-70.148 70.148-70.148s70.148 31.468 70.148 70.148v181.527zm-111.297-29h82.297v-152.527c0-22.689-18.459-41.148-41.148-41.148s-41.148 18.459-41.148 41.148v152.527z"/><path d="m183.562 370.733h-98.151c-15.244 0-27.645-12.396-27.645-27.633v-153.949c0-38.65 31.468-70.094 70.148-70.094h228.746c53.803 0 97.574 43.735 97.574 97.493v126.518c0 15.236-12.401 27.633-27.646 27.633h-228.526zm-96.796-29h82.297l14.5-.032h241.672v-125.151c0-37.767-30.763-68.493-68.574-68.493h-228.747c-22.689 0-41.148 18.435-41.148 41.094z"/><path d="m317.764 511.979h-67.879c-10.06 0-18.244-8.184-18.244-18.243v-152.003h104.367v152.003c0 10.06-8.185 18.243-18.244 18.243zm-57.122-29h46.366v-112.246h-46.366z"/><path d="m314.487 259.395c-25.001 0-45.341-20.326-45.341-45.31s20.34-45.31 45.341-45.31c25 0 45.34 20.326 45.34 45.31s-20.34 45.31-45.34 45.31zm0-61.62c-9.011 0-16.341 7.316-16.341 16.31s7.33 16.31 16.341 16.31c9.01 0 16.34-7.316 16.34-16.31s-7.33-16.31-16.34-16.31z"/><g><path d="m314.487 184.324c-8.008 0-14.5-6.492-14.5-14.5v-155.254c0-8.008 6.492-14.5 14.5-14.5s14.5 6.492 14.5 14.5v155.254c0 8.009-6.492 14.5-14.5 14.5z"/><path d="m401.185 86.871h-95.27v-68.597c0-10.06 8.185-18.244 18.244-18.244h77.025c10.06 0 18.243 8.184 18.243 18.244v50.353c.001 10.06-8.183 18.244-18.242 18.244zm-66.27-29h55.513v-28.84h-55.513z"/></g></g></g><g id="headset" display="none"><g display="inline"><g><path d="m133.883 366.781h-64.904c-37.938 0-68.804-30.865-68.804-68.804v-54.837c0-37.938 30.865-68.804 68.804-68.804h64.905c9.992 0 18.12 8.129 18.12 18.121v156.204c-.001 9.991-8.129 18.12-18.121 18.12zm-64.904-163.445c-21.948 0-39.804 17.856-39.804 39.804v54.837c0 21.948 17.856 39.804 39.804 39.804h54.025v-134.445z" fill="rgb(0,0,0)"/><path d="m443.191 366.781h-64.904c-9.991 0-18.12-8.129-18.12-18.12v-156.204c0-9.992 8.129-18.121 18.12-18.121h64.904c37.938 0 68.804 30.865 68.804 68.804v54.837c0 37.939-30.865 68.804-68.804 68.804zm-54.024-29h54.024c21.948 0 39.804-17.855 39.804-39.804v-54.837c0-21.948-17.855-39.804-39.804-39.804h-54.024z" fill="rgb(0,0,0)"/><g><path d="m440.178 179.812h-29c0-83.155-67.881-150.807-151.318-150.807s-151.318 67.652-151.318 150.807h-29c0-99.146 80.891-179.807 180.318-179.807s180.318 80.661 180.318 179.807z" fill="rgb(0,0,0)"/></g><g><path d="m302.852 477.977-5.48-28.478c55.923-10.762 103.198-50.01 123.377-102.427l27.064 10.418c-23.747 61.682-79.292 107.849-144.961 120.487z" fill="rgb(0,0,0)"/></g></g><path d="m259.859 511.995c-26.649 0-48.33-21.676-48.33-48.319s21.681-48.318 48.33-48.318 48.33 21.676 48.33 48.318c0 26.643-21.68 48.319-48.33 48.319zm0-67.638c-10.659 0-19.33 8.666-19.33 19.318s8.671 19.319 19.33 19.319c10.658 0 19.33-8.667 19.33-19.319s-8.671-19.318-19.33-19.318z" fill="rgb(0,0,0)"/></g></g><g id="plus" display="none"><g display="inline" fill="rgb(0,0,0)"><path d="m256 29c30.658 0 60.383 5.998 88.35 17.827 27.028 11.432 51.307 27.803 72.163 48.66 20.857 20.857 37.228 45.136 48.66 72.163 11.829 27.967 17.827 57.692 17.827 88.35s-5.998 60.383-17.827 88.35c-11.432 27.028-27.803 51.307-48.66 72.163-20.857 20.857-45.136 37.228-72.163 48.66-27.967 11.829-57.692 17.827-88.35 17.827s-60.383-5.998-88.35-17.827c-27.028-11.432-51.307-27.803-72.163-48.66-20.857-20.857-37.228-45.136-48.66-72.163-11.829-27.967-17.827-57.692-17.827-88.35s5.998-60.383 17.827-88.35c11.432-27.028 27.803-51.307 48.66-72.163 20.857-20.857 45.136-37.228 72.163-48.66 27.967-11.829 57.692-17.827 88.35-17.827m0-29c-141.385 0-256 114.615-256 256s114.615 256 256 256 256-114.615 256-256-114.615-256-256-256z"/><g><path d="m256 404.045c-8.008 0-14.5-6.492-14.5-14.5v-267.089c0-8.008 6.492-14.5 14.5-14.5s14.5 6.492 14.5 14.5v267.089c0 8.008-6.492 14.5-14.5 14.5z"/><path d="m389.545 270.5h-267.089c-8.008 0-14.5-6.492-14.5-14.5s6.492-14.5 14.5-14.5h267.089c8.008 0 14.5 6.492 14.5 14.5s-6.492 14.5-14.5 14.5z"/></g></g></g><g id="correct" display="none"><g display="inline" fill="rgb(0,0,0)"><path d="m208.979 376.536c-3.897 0-7.747-1.285-10.862-3.677l-.864-.663-76.576-79.604c-5.551-5.771-5.374-14.951.398-20.503s14.951-5.373 20.502.397l66.635 69.271 161.357-200.877c5.016-6.243 14.142-7.239 20.386-2.224 6.243 5.015 7.238 14.142 2.224 20.385l-169.09 210.503c-2.79 3.65-6.949 6.115-11.503 6.798-.866.13-1.738.194-2.607.194z"/><path d="m256 29c30.658 0 60.383 5.998 88.35 17.827 27.028 11.432 51.307 27.803 72.163 48.66 20.857 20.857 37.228 45.136 48.66 72.163 11.829 27.967 17.827 57.692 17.827 88.35s-5.998 60.383-17.827 88.35c-11.432 27.028-27.803 51.307-48.66 72.163-20.857 20.857-45.136 37.228-72.163 48.66-27.967 11.829-57.692 17.827-88.35 17.827s-60.383-5.998-88.35-17.827c-27.028-11.432-51.307-27.803-72.163-48.66-20.857-20.857-37.228-45.136-48.66-72.163-11.829-27.967-17.827-57.692-17.827-88.35s5.998-60.383 17.827-88.35c11.432-27.028 27.803-51.307 48.66-72.163 20.857-20.857 45.136-37.228 72.163-48.66 27.967-11.829 57.692-17.827 88.35-17.827m0-29c-141.385 0-256 114.615-256 256s114.615 256 256 256 256-114.615 256-256-114.615-256-256-256z"/></g></g><g id="wrong" display="none"><g display="inline" fill="rgb(0,0,0)"><g><path d="m171.369 375.849c-3.187 0-6.394-1.046-9.071-3.196-6.243-5.016-7.239-14.142-2.224-20.386l169.244-210.695c5.016-6.243 14.142-7.239 20.386-2.224 6.243 5.015 7.238 14.142 2.224 20.385l-169.245 210.696c-2.865 3.565-7.071 5.42-11.314 5.42z"/><path d="m340.631 375.849c-4.243 0-8.449-1.854-11.313-5.42l-169.245-210.696c-5.015-6.243-4.019-15.37 2.224-20.385s15.369-4.019 20.385 2.224l169.244 210.695c5.015 6.244 4.02 15.37-2.224 20.386-2.677 2.15-5.885 3.196-9.071 3.196z"/></g><path d="m256 29c30.658 0 60.383 5.998 88.35 17.827 27.027 11.432 51.307 27.803 72.163 48.66 20.857 20.857 37.228 45.136 48.66 72.163 11.829 27.967 17.827 57.692 17.827 88.35s-5.998 60.383-17.827 88.35c-11.432 27.027-27.803 51.307-48.66 72.163-20.857 20.857-45.136 37.228-72.163 48.66-27.967 11.829-57.692 17.827-88.35 17.827s-60.383-5.998-88.35-17.827c-27.027-11.432-51.307-27.803-72.163-48.66-20.857-20.857-37.228-45.136-48.66-72.163-11.829-27.967-17.827-57.692-17.827-88.35s5.998-60.383 17.827-88.35c11.432-27.027 27.803-51.307 48.66-72.163 20.857-20.857 45.136-37.228 72.163-48.66 27.967-11.829 57.692-17.827 88.35-17.827m0-29c-141.385 0-256 114.615-256 256s114.615 256 256 256 256-114.615 256-256-114.615-256-256-256z"/></g></g><g id="flash" display="none"><g display="inline"><path d="m242.819 512.03c-2.938 0-5.923-.373-8.925-1.138-20.124-5.126-33.645-25.704-33.645-51.206v-153.798h-40.311c-13.626 0-25.969-7.622-33.863-20.911-10.658-17.945-11.079-42.375-1.045-60.791l109.672-201.321c9.678-17.765 26.304-26.101 43.403-21.744 20.124 5.125 33.645 25.704 33.645 51.206v153.799h40.311c13.626 0 25.969 7.622 33.862 20.911 10.659 17.944 11.079 42.375 1.047 60.791l-109.672 201.32c-7.979 14.647-20.686 22.882-34.479 22.882zm26.586-483.003c-4.338 0-7.593 4.694-9.236 7.711l-109.672 201.322c-5.829 10.699-4.154 24.25.513 32.106 1.491 2.511 4.634 6.722 8.929 6.722h51.356c9.9 0 17.955 8.055 17.955 17.955v164.844c0 13.194 5.938 21.609 11.803 23.104 5.104 1.302 8.945-4.149 10.778-7.515l109.672-201.321c5.829-10.699 4.154-24.25-.513-32.107-1.491-2.51-4.634-6.721-8.93-6.721h-51.356c-9.899 0-17.954-8.054-17.954-17.955v-164.845c0-13.194-5.938-21.609-11.803-23.103-.527-.135-1.042-.197-1.542-.197z" fill="rgb(0,0,0)"/></g></g><g id="attention" display="none"><g display="inline"><path d="m256 70.876c12.42 0 23.228 6.097 29.652 16.727l92.881 153.692 101.931 168.667c3.251 5.38 3.369 10.589.359 15.925-3.965 7.029-14.581 15.237-31.45 15.237h-193.373-193.372c-16.869 0-27.485-8.208-31.45-15.237-3.01-5.336-2.893-10.545.358-15.925l101.931-168.667 92.881-153.692c6.424-10.631 17.232-16.727 29.652-16.727m0-29c-21.046 0-42.092 10.242-54.472 30.727l-92.881 153.692-101.931 168.668c-20.856 34.511 9.384 75.161 55.911 75.161h193.373 193.372c46.528 0 76.767-40.651 55.911-75.161l-101.93-168.668-92.881-153.692c-12.38-20.485-33.426-30.727-54.472-30.727z" fill="rgb(0,0,0)"/><g><g><circle cx="256" cy="375.905" fill="rgb(0,0,0)" r="23"/></g><path d="m256 331.945c-8.008 0-14.5-6.492-14.5-14.5v-135.473c0-8.008 6.492-14.5 14.5-14.5s14.5 6.492 14.5 14.5v135.474c0 8.007-6.492 14.499-14.5 14.499z" fill="rgb(0,0,0)"/></g></g></g></svg>