<svg width="512" height="512" viewBox="0 0 512 512" fill="none" xmlns="http://www.w3.org/2000/svg">
<g clip-path="url(#clip0_10129_838)">
<path d="M480 448.001H32.0002C14.3264 448.001 0 433.673 0 416C0 398.328 14.3264 384 32.0002 384H480.001C497.674 384 512.001 398.328 512.001 416C512 433.673 497.674 448.001 480 448.001Z" fill="#DDDDDD"/>
<path d="M480 288H32.0002C14.3264 288 0 273.673 0 256.001C0 238.328 14.3264 224 32.0002 224H480.001C497.674 224 512.001 238.327 512.001 256.001C512.001 273.674 497.674 288 480 288Z" fill="#DDDDDD"/>
<path d="M480 128H32.0002C14.3264 128 0 113.673 0 95.9995C0 78.3257 14.3264 63.9993 32.0002 63.9993H480.001C497.674 63.9993 512.001 78.3257 512.001 95.9995C512.001 113.673 497.674 128 480 128Z" fill="#DDDDDD"/>
</g>
<defs>
<clipPath id="clip0_10129_838">
<rect width="512" height="512" fill="white"/>
</clipPath>
</defs>
</svg>
