<svg width="25" height="25" viewBox="0 0 25 25" fill="none" xmlns="http://www.w3.org/2000/svg">
<g clip-path="url(#clip0_8116_1440)">
<path d="M7.55142 25.0011C7.44009 25.0011 7.32734 24.981 7.21787 24.9396C6.85171 24.8012 6.61523 24.459 6.61538 24.0679L6.61689 19.0584H4.49761C2.01895 19.0584 0.00244141 17.0629 0.00244141 14.61V4.45029C0.00244141 1.99751 2.01895 0.00195312 4.49761 0.00195312H20.5046C22.9833 0.00195312 24.9998 1.99746 24.9998 4.45029V14.6101C24.9998 17.0629 22.9833 19.0585 20.5046 19.0585H13.2074L8.24785 24.684C8.06611 24.8902 7.81289 25.001 7.55142 25.0011ZM4.49761 1.41797C2.79976 1.41797 1.41846 2.77827 1.41846 4.45029V14.6101C1.41846 16.2821 2.79976 17.6425 4.49761 17.6425H7.11104C7.35679 17.6425 7.58799 17.7379 7.76201 17.9113C7.93687 18.0855 8.03311 18.3172 8.03301 18.5639L8.03174 22.7879L12.3174 17.9268L12.3344 17.9099C12.5085 17.7375 12.7395 17.6424 12.9849 17.6424H20.5046C22.2025 17.6424 23.5838 16.2821 23.5838 14.6101V4.45029C23.5838 2.77827 22.2025 1.41797 20.5046 1.41797H4.49761Z" fill="#333333"/>
<path d="M0.708271 14.4303C0.526679 14.4303 0.345136 14.3609 0.206806 14.2221C-0.0692191 13.9452 -0.0685355 13.4968 0.208418 13.2208L6.29963 7.14907C6.66037 6.7895 7.24738 6.7895 7.60813 7.14907L11.5802 11.1083C11.8571 11.3844 11.8578 11.8327 11.5818 12.1096C11.3057 12.3865 10.8574 12.3872 10.5805 12.1112L6.95397 8.49624L1.20812 14.2237C1.06999 14.3614 0.889082 14.4303 0.708271 14.4303Z" fill="#333333"/>
<path d="M23.2713 17.0352C23.0905 17.0352 22.9096 16.9664 22.7715 16.8287L14.8095 8.89223L8.73981 14.9425C8.46291 15.2185 8.01462 15.218 7.73854 14.9409C7.46252 14.664 7.4632 14.2157 7.74016 13.9396L14.1553 7.54506C14.5158 7.18559 15.1029 7.18544 15.4637 7.54496L23.7711 15.8258C24.0481 16.1018 24.0488 16.5502 23.7727 16.8271C23.6343 16.9658 23.4528 17.0352 23.2713 17.0352Z" fill="#333333"/>
<path d="M19.8502 7.40986C20.7346 7.40986 21.4516 6.69518 21.4516 5.81357C21.4516 4.93197 20.7346 4.21729 19.8502 4.21729C18.9658 4.21729 18.2488 4.93197 18.2488 5.81357C18.2488 6.69518 18.9658 7.40986 19.8502 7.40986Z" fill="#333333"/>
</g>
<defs>
<clipPath id="clip0_8116_1440">
<rect width="25" height="25" fill="white"/>
</clipPath>
</defs>
</svg>
