<svg width="105" height="40" viewBox="0 0 105 40" fill="none" xmlns="http://www.w3.org/2000/svg">
<rect width="105" height="40" rx="20" fill="white"/>
<path d="M43.3403 27V10.0303H49.7039C51.0076 10.0303 52.1013 10.2734 52.9852 10.7595C53.8745 11.2456 54.5457 11.914 54.9987 12.7647C55.4571 13.6098 55.6864 14.571 55.6864 15.6482C55.6864 16.7364 55.4571 17.7031 54.9987 18.5483C54.5402 19.3935 53.8635 20.0591 52.9686 20.5452C52.0737 21.0258 50.9717 21.2661 49.6625 21.2661H45.4449V18.7389H49.2482C50.0105 18.7389 50.6347 18.6063 51.1208 18.3411C51.6069 18.076 51.966 17.7114 52.198 17.2474C52.4355 16.7834 52.5543 16.2503 52.5543 15.6482C52.5543 15.0461 52.4355 14.5158 52.198 14.0573C51.966 13.5988 51.6042 13.2425 51.1125 12.9884C50.6264 12.7288 49.9994 12.599 49.2316 12.599H46.4144V27H43.3403ZM63.5933 27.2486C62.3504 27.2486 61.2732 26.9751 60.3618 26.4283C59.4503 25.8814 58.7432 25.1163 58.2405 24.133C57.7434 23.1498 57.4948 22.0008 57.4948 20.6861C57.4948 19.3714 57.7434 18.2196 58.2405 17.2308C58.7432 16.242 59.4503 15.4742 60.3618 14.9273C61.2732 14.3804 62.3504 14.107 63.5933 14.107C64.8362 14.107 65.9134 14.3804 66.8248 14.9273C67.7363 15.4742 68.4406 16.242 68.9378 17.2308C69.4404 18.2196 69.6918 19.3714 69.6918 20.6861C69.6918 22.0008 69.4404 23.1498 68.9378 24.133C68.4406 25.1163 67.7363 25.8814 66.8248 26.4283C65.9134 26.9751 64.8362 27.2486 63.5933 27.2486ZM63.6099 24.8456C64.2838 24.8456 64.8472 24.6606 65.3002 24.2905C65.7532 23.9149 66.0901 23.4122 66.3111 22.7824C66.5376 22.1527 66.6508 21.4512 66.6508 20.6778C66.6508 19.8989 66.5376 19.1946 66.3111 18.5649C66.0901 17.9296 65.7532 17.4242 65.3002 17.0485C64.8472 16.6729 64.2838 16.4851 63.6099 16.4851C62.9194 16.4851 62.3449 16.6729 61.8864 17.0485C61.4334 17.4242 61.0937 17.9296 60.8672 18.5649C60.6462 19.1946 60.5358 19.8989 60.5358 20.6778C60.5358 21.4512 60.6462 22.1527 60.8672 22.7824C61.0937 23.4122 61.4334 23.9149 61.8864 24.2905C62.3449 24.6606 62.9194 24.8456 63.6099 24.8456ZM82.2968 17.6368L79.5625 17.9351C79.4851 17.6589 79.3498 17.3993 79.1564 17.1562C78.9686 16.9132 78.7145 16.7171 78.3941 16.5679C78.0737 16.4188 77.6815 16.3442 77.2175 16.3442C76.5933 16.3442 76.0685 16.4796 75.6432 16.7502C75.2234 17.0209 75.0162 17.3717 75.0217 17.8026C75.0162 18.1727 75.1516 18.4737 75.4278 18.7057C75.7095 18.9377 76.1735 19.1283 76.8198 19.2775L78.9907 19.7415C80.195 20.0011 81.0898 20.4126 81.6754 20.9761C82.2665 21.5395 82.5647 22.277 82.5703 23.1884C82.5647 23.9894 82.33 24.6965 81.866 25.3097C81.4075 25.9173 80.7695 26.3924 79.9519 26.7348C79.1344 27.0773 78.1953 27.2486 77.1347 27.2486C75.5769 27.2486 74.323 26.9227 73.3728 26.2708C72.4227 25.6135 71.8565 24.6993 71.6742 23.5282L74.5992 23.2464C74.7317 23.8209 75.0135 24.2546 75.4443 24.5473C75.8752 24.8401 76.4359 24.9865 77.1264 24.9865C77.839 24.9865 78.4107 24.8401 78.8416 24.5473C79.278 24.2546 79.4962 23.8928 79.4962 23.4619C79.4962 23.0973 79.3553 22.7962 79.0736 22.5587C78.7974 22.3212 78.3665 22.1389 77.781 22.0118L75.61 21.5561C74.3892 21.302 73.4861 20.8739 72.9005 20.2718C72.315 19.6641 72.025 18.8963 72.0305 17.9683C72.025 17.1839 72.2376 16.5044 72.6685 15.9299C73.1049 15.3499 73.7098 14.9025 74.4832 14.5876C75.262 14.2672 76.1597 14.107 77.1761 14.107C78.6676 14.107 79.8414 14.4246 80.6976 15.0599C81.5594 15.6952 82.0924 16.5541 82.2968 17.6368ZM91.399 14.2727V16.5928H84.0825V14.2727H91.399ZM85.8888 11.2235H88.8883V23.1719C88.8883 23.5751 88.9491 23.8845 89.0706 24.0999C89.1977 24.3098 89.3634 24.4534 89.5678 24.5308C89.7722 24.6081 89.9987 24.6468 90.2472 24.6468C90.4351 24.6468 90.6063 24.633 90.761 24.6054C90.9212 24.5777 91.0427 24.5529 91.1256 24.5308L91.631 26.8757C91.4708 26.931 91.2416 26.9917 90.9433 27.058C90.6505 27.1243 90.2914 27.163 89.8661 27.174C89.1148 27.1961 88.4381 27.0829 87.836 26.8343C87.2339 26.5802 86.7561 26.188 86.4025 25.6577C86.0545 25.1274 85.8833 24.4645 85.8888 23.669V11.2235Z" fill="black"/>
<g clip-path="url(#clip0_11341_1153)">
<path d="M18.9248 27.3096V32.5703C18.9248 32.9378 19.1607 33.2633 19.5101 33.379C19.5974 33.4073 19.687 33.421 19.7755 33.421C20.0409 33.421 20.2973 33.2962 20.4606 33.0739L23.5378 28.8862L18.9248 27.3096Z" fill="black"/>
<path d="M35.865 7.49126C35.6041 7.30637 35.2616 7.28142 34.978 7.43001L9.45716 20.7576C9.15544 20.9152 8.97737 21.2373 9.00232 21.5765C9.02841 21.9168 9.25412 22.2071 9.57512 22.3172L16.6699 24.7422L31.7794 11.823L20.0874 25.9094L31.9779 29.9734C32.0663 30.0029 32.1594 30.0188 32.2524 30.0188C32.4066 30.0188 32.5598 29.9768 32.6947 29.8951C32.9102 29.7636 33.0566 29.5424 33.094 29.294L36.2132 8.31019C36.2597 7.9926 36.1259 7.67728 35.865 7.49126Z" fill="black"/>
</g>
<defs>
<clipPath id="clip0_11341_1153">
<rect width="27.2222" height="27.2222" fill="white" transform="translate(9 7.3335)"/>
</clipPath>
</defs>
</svg>
