<svg width="102" height="35" viewBox="0 0 102 35" fill="none" xmlns="http://www.w3.org/2000/svg">
<rect width="101.111" height="35" rx="17.5" fill="white"/>
<path d="M42.1181 23.5557V6.58596H48.4817C49.7854 6.58596 50.8792 6.82902 51.763 7.31513C52.6524 7.80124 53.3235 8.46965 53.7765 9.32034C54.235 10.1655 54.4642 11.1267 54.4642 12.2039C54.4642 13.2921 54.235 14.2588 53.7765 15.104C53.318 15.9491 52.6413 16.6148 51.7464 17.1009C50.8515 17.5815 49.7495 17.8218 48.4403 17.8218H44.2227V15.2945H48.026C48.7883 15.2945 49.4125 15.162 49.8986 14.8968C50.3848 14.6317 50.7438 14.2671 50.9758 13.8031C51.2134 13.339 51.3321 12.806 51.3321 12.2039C51.3321 11.6017 51.2134 11.0714 50.9758 10.613C50.7438 10.1545 50.382 9.79817 49.8904 9.54406C49.4042 9.28443 48.7773 9.15462 48.0094 9.15462H45.1922V23.5557H42.1181ZM62.3711 23.8042C61.1282 23.8042 60.0511 23.5308 59.1396 22.9839C58.2281 22.4371 57.5211 21.672 57.0184 20.6887C56.5212 19.7054 56.2726 18.5565 56.2726 17.2417C56.2726 15.927 56.5212 14.7753 57.0184 13.7865C57.5211 12.7977 58.2281 12.0299 59.1396 11.483C60.0511 10.9361 61.1282 10.6627 62.3711 10.6627C63.614 10.6627 64.6912 10.9361 65.6027 11.483C66.5141 12.0299 67.2184 12.7977 67.7156 13.7865C68.2183 14.7753 68.4696 15.927 68.4696 17.2417C68.4696 18.5565 68.2183 19.7054 67.7156 20.6887C67.2184 21.672 66.5141 22.4371 65.6027 22.9839C64.6912 23.5308 63.614 23.8042 62.3711 23.8042ZM62.3877 21.4013C63.0616 21.4013 63.6251 21.2163 64.078 20.8461C64.531 20.4705 64.868 19.9678 65.0889 19.3381C65.3154 18.7084 65.4287 18.0068 65.4287 17.2335C65.4287 16.4546 65.3154 15.7503 65.0889 15.1205C64.868 14.4853 64.531 13.9798 64.078 13.6042C63.6251 13.2286 63.0616 13.0407 62.3877 13.0407C61.6972 13.0407 61.1227 13.2286 60.6642 13.6042C60.2112 13.9798 59.8715 14.4853 59.645 15.1205C59.4241 15.7503 59.3136 16.4546 59.3136 17.2335C59.3136 18.0068 59.4241 18.7084 59.645 19.3381C59.8715 19.9678 60.2112 20.4705 60.6642 20.8461C61.1227 21.2163 61.6972 21.4013 62.3877 21.4013ZM81.0747 14.1925L78.3403 14.4908C78.263 14.2146 78.1276 13.955 77.9343 13.7119C77.7465 13.4689 77.4924 13.2728 77.172 13.1236C76.8516 12.9745 76.4594 12.8999 75.9954 12.8999C75.3711 12.8999 74.8464 13.0352 74.421 13.3059C74.0012 13.5766 73.794 13.9273 73.7996 14.3582C73.794 14.7283 73.9294 15.0294 74.2056 15.2614C74.4873 15.4934 74.9513 15.684 75.5976 15.8331L77.7686 16.2971C78.9728 16.5568 79.8677 16.9683 80.4532 17.5318C81.0443 18.0952 81.3426 18.8327 81.3481 19.7441C81.3426 20.5451 81.1078 21.2522 80.6438 21.8653C80.1853 22.473 79.5473 22.948 78.7297 23.2905C77.9122 23.633 76.9731 23.8042 75.9125 23.8042C74.3547 23.8042 73.1008 23.4783 72.1507 22.8265C71.2005 22.1691 70.6343 21.2549 70.452 20.0838L73.377 19.8021C73.5096 20.3766 73.7913 20.8102 74.2222 21.103C74.653 21.3958 75.2137 21.5422 75.9042 21.5422C76.6168 21.5422 77.1885 21.3958 77.6194 21.103C78.0558 20.8102 78.274 20.4484 78.274 20.0175C78.274 19.653 78.1331 19.3519 77.8514 19.1144C77.5752 18.8768 77.1443 18.6946 76.5588 18.5675L74.3879 18.1118C73.1671 17.8577 72.2639 17.4296 71.6784 16.8274C71.0928 16.2198 70.8028 15.452 70.8083 14.5239C70.8028 13.7395 71.0155 13.0601 71.4464 12.4856C71.8827 11.9056 72.4876 11.4581 73.261 11.1433C74.0399 10.8229 74.9375 10.6627 75.9539 10.6627C77.4454 10.6627 78.6193 10.9803 79.4755 11.6156C80.3372 12.2508 80.8703 13.1098 81.0747 14.1925ZM90.1768 10.8284V13.1485H82.8603V10.8284H90.1768ZM84.6666 7.77915H87.6662V19.7275C87.6662 20.1308 87.7269 20.4401 87.8485 20.6556C87.9755 20.8655 88.1412 21.0091 88.3456 21.0864C88.55 21.1638 88.7765 21.2024 89.0251 21.2024C89.2129 21.2024 89.3841 21.1886 89.5388 21.161C89.699 21.1334 89.8205 21.1085 89.9034 21.0864L90.4088 23.4314C90.2486 23.4866 90.0194 23.5474 89.7211 23.6137C89.4283 23.68 89.0693 23.7186 88.6439 23.7297C87.8927 23.7518 87.216 23.6385 86.6138 23.3899C86.0117 23.1358 85.5339 22.7436 85.1804 22.2133C84.8324 21.683 84.6611 21.0202 84.6666 20.2247V7.77915Z" fill="#222222"/>
<g clip-path="url(#clip0_8665_542)">
<path d="M17.7026 23.8652V29.1259C17.7026 29.4934 17.9386 29.819 18.2879 29.9347C18.3753 29.963 18.4649 29.9766 18.5533 29.9766C18.8187 29.9766 19.0751 29.8519 19.2384 29.6295L22.3157 25.4419L17.7026 23.8652Z" fill="#222222"/>
<path d="M34.6426 4.04692C34.3817 3.86204 34.0391 3.83708 33.7556 3.98567L8.23474 17.3132C7.93303 17.4709 7.75495 17.793 7.77991 18.1322C7.80599 18.4724 8.03171 18.7628 8.35271 18.8728L15.4475 21.2979L30.557 8.37866L18.865 22.465L30.7555 26.5291C30.8439 26.5586 30.9369 26.5744 31.03 26.5744C31.1842 26.5744 31.3373 26.5325 31.4723 26.4508C31.6878 26.3192 31.8341 26.0981 31.8716 25.8497L34.9908 4.86586C35.0373 4.54827 34.9035 4.23294 34.6426 4.04692Z" fill="#222222"/>
</g>
<defs>
<clipPath id="clip0_8665_542">
<rect width="27.2222" height="27.2222" fill="white" transform="translate(7.77759 3.88916)"/>
</clipPath>
</defs>
</svg>
