<svg width="106" height="40" viewBox="0 0 106 40" fill="none" xmlns="http://www.w3.org/2000/svg">
<rect x="0.5" width="105" height="40" rx="20" fill="black"/>
<path d="M42.8403 27V10.0303H49.2039C50.5076 10.0303 51.6013 10.2734 52.4852 10.7595C53.3745 11.2456 54.0457 11.914 54.4987 12.7647C54.9571 13.6098 55.1864 14.571 55.1864 15.6482C55.1864 16.7364 54.9571 17.7031 54.4987 18.5483C54.0402 19.3935 53.3635 20.0591 52.4686 20.5452C51.5737 21.0258 50.4717 21.2661 49.1625 21.2661H44.9449V18.7389H48.7482C49.5105 18.7389 50.1347 18.6063 50.6208 18.3411C51.1069 18.076 51.466 17.7114 51.698 17.2474C51.9355 16.7834 52.0543 16.2503 52.0543 15.6482C52.0543 15.0461 51.9355 14.5158 51.698 14.0573C51.466 13.5988 51.1042 13.2425 50.6125 12.9884C50.1264 12.7288 49.4994 12.599 48.7316 12.599H45.9144V27H42.8403ZM63.0933 27.2486C61.8504 27.2486 60.7732 26.9751 59.8618 26.4283C58.9503 25.8814 58.2432 25.1163 57.7405 24.133C57.2434 23.1498 56.9948 22.0008 56.9948 20.6861C56.9948 19.3714 57.2434 18.2196 57.7405 17.2308C58.2432 16.242 58.9503 15.4742 59.8618 14.9273C60.7732 14.3804 61.8504 14.107 63.0933 14.107C64.3362 14.107 65.4134 14.3804 66.3248 14.9273C67.2363 15.4742 67.9406 16.242 68.4378 17.2308C68.9404 18.2196 69.1918 19.3714 69.1918 20.6861C69.1918 22.0008 68.9404 23.1498 68.4378 24.133C67.9406 25.1163 67.2363 25.8814 66.3248 26.4283C65.4134 26.9751 64.3362 27.2486 63.0933 27.2486ZM63.1099 24.8456C63.7838 24.8456 64.3472 24.6606 64.8002 24.2905C65.2532 23.9149 65.5901 23.4122 65.8111 22.7824C66.0376 22.1527 66.1508 21.4512 66.1508 20.6778C66.1508 19.8989 66.0376 19.1946 65.8111 18.5649C65.5901 17.9296 65.2532 17.4242 64.8002 17.0485C64.3472 16.6729 63.7838 16.4851 63.1099 16.4851C62.4194 16.4851 61.8449 16.6729 61.3864 17.0485C60.9334 17.4242 60.5937 17.9296 60.3672 18.5649C60.1462 19.1946 60.0358 19.8989 60.0358 20.6778C60.0358 21.4512 60.1462 22.1527 60.3672 22.7824C60.5937 23.4122 60.9334 23.9149 61.3864 24.2905C61.8449 24.6606 62.4194 24.8456 63.1099 24.8456ZM81.7968 17.6368L79.0625 17.9351C78.9851 17.6589 78.8498 17.3993 78.6564 17.1562C78.4686 16.9132 78.2145 16.7171 77.8941 16.5679C77.5737 16.4188 77.1815 16.3442 76.7175 16.3442C76.0933 16.3442 75.5685 16.4796 75.1432 16.7502C74.7234 17.0209 74.5162 17.3717 74.5217 17.8026C74.5162 18.1727 74.6516 18.4737 74.9278 18.7057C75.2095 18.9377 75.6735 19.1283 76.3198 19.2775L78.4907 19.7415C79.695 20.0011 80.5898 20.4126 81.1754 20.9761C81.7665 21.5395 82.0647 22.277 82.0703 23.1884C82.0647 23.9894 81.83 24.6965 81.366 25.3097C80.9075 25.9173 80.2695 26.3924 79.4519 26.7348C78.6344 27.0773 77.6953 27.2486 76.6347 27.2486C75.0769 27.2486 73.823 26.9227 72.8728 26.2708C71.9227 25.6135 71.3565 24.6993 71.1742 23.5282L74.0992 23.2464C74.2317 23.8209 74.5135 24.2546 74.9443 24.5473C75.3752 24.8401 75.9359 24.9865 76.6264 24.9865C77.339 24.9865 77.9107 24.8401 78.3416 24.5473C78.778 24.2546 78.9962 23.8928 78.9962 23.4619C78.9962 23.0973 78.8553 22.7962 78.5736 22.5587C78.2974 22.3212 77.8665 22.1389 77.281 22.0118L75.11 21.5561C73.8892 21.302 72.9861 20.8739 72.4005 20.2718C71.815 19.6641 71.525 18.8963 71.5305 17.9683C71.525 17.1839 71.7376 16.5044 72.1685 15.9299C72.6049 15.3499 73.2098 14.9025 73.9832 14.5876C74.762 14.2672 75.6597 14.107 76.6761 14.107C78.1676 14.107 79.3414 14.4246 80.1976 15.0599C81.0594 15.6952 81.5924 16.5541 81.7968 17.6368ZM90.899 14.2727V16.5928H83.5825V14.2727H90.899ZM85.3888 11.2235H88.3883V23.1719C88.3883 23.5751 88.4491 23.8845 88.5706 24.0999C88.6977 24.3098 88.8634 24.4534 89.0678 24.5308C89.2722 24.6081 89.4987 24.6468 89.7472 24.6468C89.9351 24.6468 90.1063 24.633 90.261 24.6054C90.4212 24.5777 90.5427 24.5529 90.6256 24.5308L91.131 26.8757C90.9708 26.931 90.7416 26.9917 90.4433 27.058C90.1505 27.1243 89.7914 27.163 89.3661 27.174C88.6148 27.1961 87.9381 27.0829 87.336 26.8343C86.7339 26.5802 86.2561 26.188 85.9025 25.6577C85.5545 25.1274 85.3833 24.4645 85.3888 23.669V11.2235Z" fill="white"/>
<g clip-path="url(#clip0_11341_1147)">
<path d="M18.4248 27.3096V32.5703C18.4248 32.9378 18.6607 33.2633 19.0101 33.379C19.0974 33.4073 19.187 33.421 19.2755 33.421C19.5409 33.421 19.7973 33.2962 19.9606 33.0739L23.0378 28.8862L18.4248 27.3096Z" fill="white"/>
<path d="M35.365 7.49126C35.1041 7.30637 34.7616 7.28142 34.478 7.43001L8.95716 20.7576C8.65544 20.9152 8.47737 21.2373 8.50232 21.5765C8.52841 21.9168 8.75412 22.2071 9.07512 22.3172L16.1699 24.7422L31.2794 11.823L19.5874 25.9094L31.4779 29.9734C31.5663 30.0029 31.6594 30.0188 31.7524 30.0188C31.9066 30.0188 32.0598 29.9768 32.1947 29.8951C32.4102 29.7636 32.5566 29.5424 32.594 29.294L35.7132 8.31019C35.7597 7.9926 35.6259 7.67728 35.365 7.49126Z" fill="white"/>
</g>
<defs>
<clipPath id="clip0_11341_1147">
<rect width="27.2222" height="27.2222" fill="white" transform="translate(8.5 7.3335)"/>
</clipPath>
</defs>
</svg>
