<svg width="28" height="24" viewBox="0 0 28 24" fill="none" xmlns="http://www.w3.org/2000/svg">
<path d="M25.4374 8.12174C25.4374 0.969342 14.016 0.30963 14.0159 8.12174C14.0158 15.6195 25.4374 15.2741 25.4374 8.12174ZM25.4374 8.12174V12.0888" stroke="#005FFF" stroke-width="4.3337"/>
<path d="M26.9994 11.7241H23.8855C23.8109 14.2038 24.0636 15.3625 26.9994 15.676V11.7241Z" fill="#005FFF" stroke="#005FFF" stroke-width="1.21344"/>
<path d="M23.0995 15.5856C21.7994 13.6354 22.4847 7.70733 22.2198 7.72462" stroke="#FCFCFC" stroke-width="1.95017"/>
<path d="M2.56284 8.28482C2.56271 16.0969 2.56271 8.95289 2.56284 16.765V19.6117M2.56284 8.28482C2.56297 0.472716 13.9844 1.13243 13.9844 8.28482C13.9844 15.4372 2.56279 15.7826 2.56284 8.28482Z" stroke="#005FFF" stroke-width="4.3337"/>
<path d="M10.8375 8.49341C10.9112 7.87063 10.9994 4.44532 13.0754 2.05798" stroke="#FCFCFC" stroke-width="1.95017"/>
<path d="M1.00008 18.8467H4.11402C4.18863 21.3263 3.93596 22.4851 1.00008 22.7986V18.8467Z" fill="#005FFF" stroke="#005FFF" stroke-width="1.21344"/>
</svg>
