<svg width="283" height="243" viewBox="0 0 283 243" fill="none" xmlns="http://www.w3.org/2000/svg">
<g filter="url(#filter0_d_11550_1385)">
<path d="M72.9883 219C71.6211 219 70.9375 218.268 70.9375 216.803V179.186C70.9375 177.721 71.6211 176.988 72.9883 176.988H83.9453C90.9766 176.988 95.8496 178.131 98.5645 180.416C101.299 182.701 102.666 185.943 102.666 190.143C102.666 194.342 101.299 197.584 98.5645 199.869C95.8496 202.154 90.9766 203.297 83.9453 203.297H79.4922V216.803C79.4922 218.268 78.8086 219 77.4414 219H72.9883ZM79.4922 196.148H83.916C87.8223 196.148 90.4785 195.689 91.8848 194.771C93.291 193.834 93.9941 192.291 93.9941 190.143C93.9941 187.994 93.291 186.461 91.8848 185.543C90.4785 184.605 87.8223 184.137 83.916 184.137H79.4922V196.148ZM110.898 219C109.727 219 109.141 218.414 109.141 217.242V189.996C109.141 188.824 109.727 188.238 110.898 188.238H115.586C116.758 188.238 117.344 188.824 117.344 189.996V217.242C117.344 218.414 116.758 219 115.586 219H110.898ZM110.898 183.727C109.727 183.727 109.141 183.141 109.141 181.969V178.219C109.141 177.047 109.727 176.461 110.898 176.461H115.586C116.758 176.461 117.344 177.047 117.344 178.219V181.969C117.344 183.141 116.758 183.727 115.586 183.727H110.898ZM123.672 203.619C123.672 198.639 124.922 194.732 127.422 191.9C129.922 189.068 133.76 187.652 138.936 187.652C141.963 187.652 144.316 188.053 145.996 188.854C147.676 189.654 149.023 190.826 150.039 192.369C150.645 193.287 150.547 194.01 149.746 194.537L146.641 196.588C145.762 197.174 144.99 196.949 144.326 195.914C143.994 195.406 143.359 194.859 142.422 194.273C141.484 193.688 140.322 193.395 138.936 193.395C136.729 193.395 135.078 194.176 133.984 195.738C132.891 197.281 132.344 199.908 132.344 203.619C132.344 207.33 132.891 209.967 133.984 211.529C135.078 213.072 136.729 213.844 138.936 213.844C140.518 213.844 141.797 213.512 142.773 212.848C143.75 212.184 144.668 211.324 145.527 210.27C146.27 209.371 147.051 209.244 147.871 209.889L150.596 212.027C151.416 212.672 151.465 213.531 150.742 214.605C149.98 215.738 148.682 216.852 146.846 217.945C145.029 219.039 142.393 219.586 138.936 219.586C133.76 219.586 129.922 218.17 127.422 215.338C124.922 212.506 123.672 208.6 123.672 203.619ZM155.488 210.797C155.488 206.891 157.354 204.059 161.084 202.301C164.814 200.543 169.072 199.605 173.857 199.488V198.316C173.857 196.52 173.408 195.25 172.51 194.508C171.611 193.766 170.361 193.395 168.76 193.395C167.627 193.395 166.621 193.561 165.742 193.893C164.883 194.205 164.131 194.576 163.486 195.006C162.861 195.416 162.295 195.836 161.787 196.266C160.889 197.047 160.146 197.086 159.561 196.383L157.129 193.395C156.523 192.652 156.67 191.891 157.568 191.109C158.252 190.504 159.043 189.977 159.941 189.527C160.859 189.078 162.07 188.658 163.574 188.268C165.078 187.857 167.031 187.652 169.434 187.652C173.496 187.652 176.611 188.59 178.779 190.465C180.967 192.34 182.061 195.104 182.061 198.756V217.242C182.061 218.414 181.475 219 180.303 219H175.498C174.443 219 173.916 218.414 173.916 217.242V216.363H173.857C172.705 217.477 171.318 218.297 169.697 218.824C168.096 219.332 166.621 219.586 165.273 219.586C162.07 219.586 159.639 218.805 157.979 217.242C156.318 215.66 155.488 213.512 155.488 210.797ZM164.16 210.621C164.16 211.305 164.297 211.9 164.57 212.408C164.844 212.896 165.273 213.258 165.859 213.492C166.445 213.727 167.1 213.844 167.822 213.844C168.818 213.844 169.785 213.707 170.723 213.434C171.66 213.16 172.705 212.516 173.857 211.5V205.143C170.576 205.514 168.379 205.992 167.266 206.578C166.152 207.164 165.352 207.77 164.863 208.395C164.395 209.02 164.16 209.762 164.16 210.621ZM191.816 219C190.645 219 190.059 218.414 190.059 217.242V182.643C190.059 181.764 190.264 180.963 190.674 180.24L192.93 176.285C193.359 175.543 193.867 175.172 194.453 175.172H196.504C197.676 175.172 198.262 175.758 198.262 176.93V217.242C198.262 218.414 197.676 219 196.504 219H191.816ZM204.59 203.619C204.59 199.322 205.518 195.592 207.373 192.428C209.248 189.244 212.48 187.652 217.07 187.652C218.828 187.652 220.332 187.906 221.582 188.414C222.832 188.922 223.965 190.016 224.98 191.695H225.098L225.215 189.996C225.293 188.824 225.82 188.238 226.797 188.238H231.426C232.598 188.238 233.184 188.824 233.184 189.996V218.678C233.184 223.463 231.895 226.764 229.316 228.58C226.738 230.396 223.008 231.305 218.125 231.305C216.055 231.305 214.141 231.197 212.383 230.982C210.625 230.768 208.848 230.23 207.051 229.371C206.113 228.922 205.957 228.072 206.582 226.822L207.637 224.713C208.066 223.854 208.779 223.658 209.775 224.127C210.576 224.498 211.562 224.83 212.734 225.123C213.926 225.416 215.43 225.562 217.246 225.562C219.746 225.562 221.66 225.094 222.988 224.156C224.316 223.238 224.98 221.217 224.98 218.092V217.594C224.98 216.812 225.02 216.031 225.098 215.25H224.98C223.965 216.93 222.832 218.023 221.582 218.531C220.332 219.039 218.828 219.293 217.07 219.293C212.48 219.293 209.248 217.711 207.373 214.547C205.518 211.363 204.59 207.721 204.59 203.619ZM213.262 203.619C213.262 206.549 213.662 208.941 214.463 210.797C215.283 212.633 217.012 213.551 219.648 213.551C221.113 213.551 222.363 212.73 223.398 211.09C224.453 209.43 224.98 207.281 224.98 204.645V202.301C224.98 199.664 224.453 197.525 223.398 195.885C222.363 194.225 221.113 193.395 219.648 193.395C217.012 193.395 215.283 194.322 214.463 196.178C213.662 198.014 213.262 200.494 213.262 203.619ZM239.512 203.619C239.512 198.639 240.791 194.732 243.35 191.9C245.928 189.068 249.756 187.652 254.834 187.652C259.912 187.652 263.73 189.068 266.289 191.9C268.867 194.732 270.156 198.639 270.156 203.619C270.156 208.6 268.867 212.506 266.289 215.338C263.73 218.17 259.912 219.586 254.834 219.586C249.756 219.586 245.928 218.17 243.35 215.338C240.791 212.506 239.512 208.6 239.512 203.619ZM248.184 203.619C248.184 207.33 248.75 209.967 249.883 211.529C251.035 213.072 252.686 213.844 254.834 213.844C256.982 213.844 258.623 213.072 259.756 211.529C260.908 209.967 261.484 207.33 261.484 203.619C261.484 199.908 260.908 197.281 259.756 195.738C258.623 194.176 256.982 193.395 254.834 193.395C252.686 193.395 251.035 194.176 249.883 195.738C248.75 197.281 248.184 199.908 248.184 203.619Z" fill="white"/>
</g>
<g filter="url(#filter1_d_11550_1385)">
<path d="M252.017 84.9716C252.017 16.0642 141.981 9.70838 141.98 84.9716C141.98 157.206 252.017 153.879 252.017 84.9716ZM252.017 84.9716V123.191" stroke="white" stroke-width="41.7517"/>
<path d="M267.05 119.6H237.081C236.363 143.443 238.795 154.585 267.05 157.6V119.6Z" fill="white" stroke="white" stroke-width="11.6905"/>
<path d="M229.987 156.884C217.461 138.096 224.063 80.9834 221.511 81.15" stroke="#005FFF" stroke-width="18.7882"/>
</g>
<g filter="url(#filter2_d_11550_1385)">
<path d="M31.5563 86.5393C31.5551 161.803 31.5551 92.9756 31.5563 168.239V195.665M31.5563 86.5393C31.5576 11.2761 141.593 17.6319 141.593 86.5393C141.593 155.447 31.5559 158.774 31.5563 86.5393Z" stroke="black" stroke-width="41.7517"/>
<path d="M111.28 88.5586C111.99 82.5586 112.84 49.5586 132.84 26.5586" stroke="#005FFF" stroke-width="18.7882"/>
<path d="M16.5 188.302H46.5002C47.2191 212.191 44.7847 223.355 16.5 226.375V188.302Z" fill="black" stroke="black" stroke-width="11.6905"/>
</g>
<rect x="130.875" y="13.4132" width="18.523" height="19.4153" transform="rotate(36.804 130.875 13.4132)" fill="#005FFF"/>
<rect x="235.131" y="145.96" width="18.523" height="18.6763" transform="rotate(68.4849 235.131 145.96)" fill="#005FFF"/>
<defs>
<filter id="filter0_d_11550_1385" x="65.9375" y="170.172" width="209.219" height="66.1328" filterUnits="userSpaceOnUse" color-interpolation-filters="sRGB">
<feFlood flood-opacity="0" result="BackgroundImageFix"/>
<feColorMatrix in="SourceAlpha" type="matrix" values="0 0 0 0 0 0 0 0 0 0 0 0 0 0 0 0 0 0 127 0" result="hardAlpha"/>
<feOffset/>
<feGaussianBlur stdDeviation="2.5"/>
<feComposite in2="hardAlpha" operator="out"/>
<feColorMatrix type="matrix" values="0 0 0 0 0.121569 0 0 0 0 0.235294 0 0 0 0 0.423529 0 0 0 1 0"/>
<feBlend mode="normal" in2="BackgroundImageFix" result="effect1_dropShadow_11550_1385"/>
<feBlend mode="normal" in="SourceGraphic" in2="effect1_dropShadow_11550_1385" result="shape"/>
</filter>
<filter id="filter1_d_11550_1385" x="111.104" y="0.00579834" width="171.791" height="174.096" filterUnits="userSpaceOnUse" color-interpolation-filters="sRGB">
<feFlood flood-opacity="0" result="BackgroundImageFix"/>
<feColorMatrix in="SourceAlpha" type="matrix" values="0 0 0 0 0 0 0 0 0 0 0 0 0 0 0 0 0 0 127 0" result="hardAlpha"/>
<feOffset/>
<feGaussianBlur stdDeviation="5"/>
<feComposite in2="hardAlpha" operator="out"/>
<feColorMatrix type="matrix" values="0 0 0 0 0.121569 0 0 0 0 0.235294 0 0 0 0 0.423529 0 0 0 1 0"/>
<feBlend mode="normal" in2="BackgroundImageFix" result="effect1_dropShadow_11550_1385"/>
<feBlend mode="normal" in="SourceGraphic" in2="effect1_dropShadow_11550_1385" result="shape"/>
</filter>
<filter id="filter2_d_11550_1385" x="0.654785" y="1.57355" width="171.814" height="241.304" filterUnits="userSpaceOnUse" color-interpolation-filters="sRGB">
<feFlood flood-opacity="0" result="BackgroundImageFix"/>
<feColorMatrix in="SourceAlpha" type="matrix" values="0 0 0 0 0 0 0 0 0 0 0 0 0 0 0 0 0 0 127 0" result="hardAlpha"/>
<feOffset/>
<feGaussianBlur stdDeviation="5"/>
<feComposite in2="hardAlpha" operator="out"/>
<feColorMatrix type="matrix" values="0 0 0 0 0.243137 0 0 0 0 0.545098 0 0 0 0 1 0 0 0 1 0"/>
<feBlend mode="normal" in2="BackgroundImageFix" result="effect1_dropShadow_11550_1385"/>
<feBlend mode="normal" in="SourceGraphic" in2="effect1_dropShadow_11550_1385" result="shape"/>
</filter>
</defs>
</svg>
