<svg width="305" height="223" viewBox="0 0 305 223" fill="none" xmlns="http://www.w3.org/2000/svg">
<path d="M61.1328 207C59.7656 207 59.082 206.268 59.082 204.803V167.186C59.082 165.721 59.7656 164.988 61.1328 164.988H72.0898C79.1211 164.988 83.9941 166.131 86.709 168.416C89.4434 170.701 90.8105 173.943 90.8105 178.143C90.8105 182.342 89.4434 185.584 86.709 187.869C83.9941 190.154 79.1211 191.297 72.0898 191.297H67.6367V204.803C67.6367 206.268 66.9531 207 65.5859 207H61.1328ZM67.6367 184.148H72.0605C75.9668 184.148 78.623 183.689 80.0293 182.771C81.4355 181.834 82.1387 180.291 82.1387 178.143C82.1387 175.994 81.4355 174.461 80.0293 173.543C78.623 172.605 75.9668 172.137 72.0605 172.137H67.6367V184.148ZM99.043 207C97.8711 207 97.2852 206.414 97.2852 205.242V177.996C97.2852 176.824 97.8711 176.238 99.043 176.238H103.672C104.844 176.238 105.43 176.824 105.43 177.996V180.398H105.547C106.055 179.148 106.904 178.045 108.096 177.088C109.287 176.131 110.693 175.652 112.314 175.652C113.428 175.652 114.346 175.789 115.068 176.062C115.752 176.316 116.016 176.785 115.859 177.469L115.039 180.955C114.863 181.736 114.336 181.971 113.457 181.658C112.949 181.482 112.461 181.395 111.992 181.395C110.117 181.395 108.564 182.518 107.334 184.764C106.104 187.01 105.488 190.281 105.488 194.578V205.242C105.488 206.414 104.902 207 103.73 207H99.043ZM118.672 191.619C118.672 186.678 119.902 182.781 122.363 179.93C124.844 177.078 128.34 175.652 132.852 175.652C138.086 175.652 141.973 177 144.512 179.695C147.051 182.391 148.32 186.727 148.32 192.703C148.32 193.875 147.773 194.461 146.68 194.461H127.344C127.656 197.703 128.457 199.744 129.746 200.584C131.035 201.424 132.529 201.844 134.229 201.844C135.85 201.844 137.09 201.629 137.949 201.199C138.809 200.77 139.531 200.184 140.117 199.441C140.781 198.582 141.602 198.445 142.578 199.031L145.508 200.818C146.66 201.521 146.826 202.361 146.006 203.338C144.814 204.764 143.418 205.828 141.816 206.531C140.215 207.234 137.686 207.586 134.229 207.586C128.623 207.586 124.629 206.16 122.246 203.309C119.863 200.457 118.672 196.561 118.672 191.619ZM127.373 188.602H140.117C140.117 186.492 139.59 184.773 138.535 183.445C137.48 182.098 135.801 181.424 133.496 181.424C131.66 181.424 130.205 182.068 129.131 183.357C128.057 184.627 127.471 186.375 127.373 188.602ZM153.066 191.619C153.066 187.322 153.994 183.592 155.85 180.428C157.725 177.244 160.957 175.652 165.547 175.652C167.305 175.652 168.809 175.906 170.059 176.414C171.309 176.922 172.441 178.016 173.457 179.695H173.574C173.496 178.914 173.457 178.133 173.457 177.352V165.516C173.457 164.344 174.043 163.758 175.215 163.758H179.902C181.074 163.758 181.66 164.344 181.66 165.516V205.242C181.66 206.414 181.074 207 179.902 207H175.273C174.297 207 173.77 206.414 173.691 205.242L173.574 203.543H173.457C172.441 205.223 171.309 206.316 170.059 206.824C168.809 207.332 167.305 207.586 165.547 207.586C160.957 207.586 157.725 206.004 155.85 202.84C153.994 199.656 153.066 195.916 153.066 191.619ZM161.738 191.619C161.738 194.744 162.139 197.234 162.939 199.09C163.76 200.926 165.488 201.844 168.125 201.844C169.59 201.844 170.84 201.023 171.875 199.383C172.93 197.723 173.457 195.574 173.457 192.938V190.301C173.457 187.664 172.93 185.525 171.875 183.885C170.84 182.225 169.59 181.395 168.125 181.395C165.488 181.395 163.76 182.322 162.939 184.178C162.139 186.014 161.738 188.494 161.738 191.619ZM187.988 198.797C187.988 194.891 189.854 192.059 193.584 190.301C197.314 188.543 201.572 187.605 206.357 187.488V186.316C206.357 184.52 205.908 183.25 205.01 182.508C204.111 181.766 202.861 181.395 201.26 181.395C200.127 181.395 199.121 181.561 198.242 181.893C197.383 182.205 196.631 182.576 195.986 183.006C195.361 183.416 194.795 183.836 194.287 184.266C193.389 185.047 192.646 185.086 192.061 184.383L189.629 181.395C189.023 180.652 189.17 179.891 190.068 179.109C190.752 178.504 191.543 177.977 192.441 177.527C193.359 177.078 194.57 176.658 196.074 176.268C197.578 175.857 199.531 175.652 201.934 175.652C205.996 175.652 209.111 176.59 211.279 178.465C213.467 180.34 214.561 183.104 214.561 186.756V205.242C214.561 206.414 213.975 207 212.803 207H207.998C206.943 207 206.416 206.414 206.416 205.242V204.363H206.357C205.205 205.477 203.818 206.297 202.197 206.824C200.596 207.332 199.121 207.586 197.773 207.586C194.57 207.586 192.139 206.805 190.479 205.242C188.818 203.66 187.988 201.512 187.988 198.797ZM196.66 198.621C196.66 199.305 196.797 199.9 197.07 200.408C197.344 200.896 197.773 201.258 198.359 201.492C198.945 201.727 199.6 201.844 200.322 201.844C201.318 201.844 202.285 201.707 203.223 201.434C204.16 201.16 205.205 200.516 206.357 199.5V193.143C203.076 193.514 200.879 193.992 199.766 194.578C198.652 195.164 197.852 195.77 197.363 196.395C196.895 197.02 196.66 197.762 196.66 198.621ZM224.316 207C223.145 207 222.559 206.414 222.559 205.242V170.643C222.559 169.764 222.764 168.963 223.174 168.24L225.43 164.285C225.859 163.543 226.367 163.172 226.953 163.172H229.004C230.176 163.172 230.762 163.758 230.762 164.93V205.242C230.762 206.414 230.176 207 229.004 207H224.316ZM237.09 191.619C237.09 187.322 238.018 183.592 239.873 180.428C241.748 177.244 244.98 175.652 249.57 175.652C251.328 175.652 252.832 175.906 254.082 176.414C255.332 176.922 256.465 178.016 257.48 179.695H257.598L257.715 177.996C257.793 176.824 258.32 176.238 259.297 176.238H263.926C265.098 176.238 265.684 176.824 265.684 177.996V206.678C265.684 211.463 264.395 214.764 261.816 216.58C259.238 218.396 255.508 219.305 250.625 219.305C248.555 219.305 246.641 219.197 244.883 218.982C243.125 218.768 241.348 218.23 239.551 217.371C238.613 216.922 238.457 216.072 239.082 214.822L240.137 212.713C240.566 211.854 241.279 211.658 242.275 212.127C243.076 212.498 244.062 212.83 245.234 213.123C246.426 213.416 247.93 213.562 249.746 213.562C252.246 213.562 254.16 213.094 255.488 212.156C256.816 211.238 257.48 209.217 257.48 206.092V205.594C257.48 204.812 257.52 204.031 257.598 203.25H257.48C256.465 204.93 255.332 206.023 254.082 206.531C252.832 207.039 251.328 207.293 249.57 207.293C244.98 207.293 241.748 205.711 239.873 202.547C238.018 199.363 237.09 195.721 237.09 191.619ZM245.762 191.619C245.762 194.549 246.162 196.941 246.963 198.797C247.783 200.633 249.512 201.551 252.148 201.551C253.613 201.551 254.863 200.73 255.898 199.09C256.953 197.43 257.48 195.281 257.48 192.645V190.301C257.48 187.664 256.953 185.525 255.898 183.885C254.863 182.225 253.613 181.395 252.148 181.395C249.512 181.395 247.783 182.322 246.963 184.178C246.162 186.014 245.762 188.494 245.762 191.619ZM272.012 191.619C272.012 186.639 273.291 182.732 275.85 179.9C278.428 177.068 282.256 175.652 287.334 175.652C292.412 175.652 296.23 177.068 298.789 179.9C301.367 182.732 302.656 186.639 302.656 191.619C302.656 196.6 301.367 200.506 298.789 203.338C296.23 206.17 292.412 207.586 287.334 207.586C282.256 207.586 278.428 206.17 275.85 203.338C273.291 200.506 272.012 196.6 272.012 191.619ZM280.684 191.619C280.684 195.33 281.25 197.967 282.383 199.529C283.535 201.072 285.186 201.844 287.334 201.844C289.482 201.844 291.123 201.072 292.256 199.529C293.408 197.967 293.984 195.33 293.984 191.619C293.984 187.908 293.408 185.281 292.256 183.738C291.123 182.176 289.482 181.395 287.334 181.395C285.186 181.395 283.535 182.176 282.383 183.738C281.25 185.281 280.684 187.908 280.684 191.619Z" fill="white"/>
<path d="M241.337 74.9716C241.337 6.06416 131.301 -0.29162 131.3 74.9716C131.3 147.206 241.337 143.879 241.337 74.9716ZM241.337 74.9716V113.191" stroke="white" stroke-width="41.7517"/>
<path d="M256.386 109.684H226.386C225.667 133.574 228.102 144.737 256.386 147.758V109.684Z" fill="white" stroke="white" stroke-width="11.6905"/>
<path d="M218.807 146.884C206.281 128.096 212.884 70.9834 210.331 71.15" stroke="#1154C5" stroke-width="18.7882"/>
<path d="M21.0563 76.5393C21.0551 151.803 21.0551 82.9756 21.0563 158.239V185.665M21.0563 76.5393C21.0576 1.27613 131.093 7.6319 131.093 76.5393C131.093 145.447 21.0559 148.774 21.0563 76.5393Z" stroke="#282828" stroke-width="41.7517"/>
<path d="M100.78 78.5586C101.49 72.5586 102.34 39.5586 122.34 16.5586" stroke="#1154C5" stroke-width="18.7882"/>
<path d="M5.99999 178.302H36.0002C36.7191 202.191 34.2847 213.355 5.99999 216.375V178.302Z" fill="#282828" stroke="#282828" stroke-width="11.6905"/>
</svg>
