<svg width="263" height="223" viewBox="0 0 263 223" fill="none" xmlns="http://www.w3.org/2000/svg">
<path d="M62.9883 209C61.6211 209 60.9375 208.268 60.9375 206.803V169.186C60.9375 167.721 61.6211 166.988 62.9883 166.988H73.9453C80.9766 166.988 85.8496 168.131 88.5645 170.416C91.2988 172.701 92.666 175.943 92.666 180.143C92.666 184.342 91.2988 187.584 88.5645 189.869C85.8496 192.154 80.9766 193.297 73.9453 193.297H69.4922V206.803C69.4922 208.268 68.8086 209 67.4414 209H62.9883ZM69.4922 186.148H73.916C77.8223 186.148 80.4785 185.689 81.8848 184.771C83.291 183.834 83.9941 182.291 83.9941 180.143C83.9941 177.994 83.291 176.461 81.8848 175.543C80.4785 174.605 77.8223 174.137 73.916 174.137H69.4922V186.148ZM100.898 209C99.7266 209 99.1406 208.414 99.1406 207.242V179.996C99.1406 178.824 99.7266 178.238 100.898 178.238H105.586C106.758 178.238 107.344 178.824 107.344 179.996V207.242C107.344 208.414 106.758 209 105.586 209H100.898ZM100.898 173.727C99.7266 173.727 99.1406 173.141 99.1406 171.969V168.219C99.1406 167.047 99.7266 166.461 100.898 166.461H105.586C106.758 166.461 107.344 167.047 107.344 168.219V171.969C107.344 173.141 106.758 173.727 105.586 173.727H100.898ZM113.672 193.619C113.672 188.639 114.922 184.732 117.422 181.9C119.922 179.068 123.76 177.652 128.936 177.652C131.963 177.652 134.316 178.053 135.996 178.854C137.676 179.654 139.023 180.826 140.039 182.369C140.645 183.287 140.547 184.01 139.746 184.537L136.641 186.588C135.762 187.174 134.99 186.949 134.326 185.914C133.994 185.406 133.359 184.859 132.422 184.273C131.484 183.688 130.322 183.395 128.936 183.395C126.729 183.395 125.078 184.176 123.984 185.738C122.891 187.281 122.344 189.908 122.344 193.619C122.344 197.33 122.891 199.967 123.984 201.529C125.078 203.072 126.729 203.844 128.936 203.844C130.518 203.844 131.797 203.512 132.773 202.848C133.75 202.184 134.668 201.324 135.527 200.27C136.27 199.371 137.051 199.244 137.871 199.889L140.596 202.027C141.416 202.672 141.465 203.531 140.742 204.605C139.98 205.738 138.682 206.852 136.846 207.945C135.029 209.039 132.393 209.586 128.936 209.586C123.76 209.586 119.922 208.17 117.422 205.338C114.922 202.506 113.672 198.6 113.672 193.619ZM145.488 200.797C145.488 196.891 147.354 194.059 151.084 192.301C154.814 190.543 159.072 189.605 163.857 189.488V188.316C163.857 186.52 163.408 185.25 162.51 184.508C161.611 183.766 160.361 183.395 158.76 183.395C157.627 183.395 156.621 183.561 155.742 183.893C154.883 184.205 154.131 184.576 153.486 185.006C152.861 185.416 152.295 185.836 151.787 186.266C150.889 187.047 150.146 187.086 149.561 186.383L147.129 183.395C146.523 182.652 146.67 181.891 147.568 181.109C148.252 180.504 149.043 179.977 149.941 179.527C150.859 179.078 152.07 178.658 153.574 178.268C155.078 177.857 157.031 177.652 159.434 177.652C163.496 177.652 166.611 178.59 168.779 180.465C170.967 182.34 172.061 185.104 172.061 188.756V207.242C172.061 208.414 171.475 209 170.303 209H165.498C164.443 209 163.916 208.414 163.916 207.242V206.363H163.857C162.705 207.477 161.318 208.297 159.697 208.824C158.096 209.332 156.621 209.586 155.273 209.586C152.07 209.586 149.639 208.805 147.979 207.242C146.318 205.66 145.488 203.512 145.488 200.797ZM154.16 200.621C154.16 201.305 154.297 201.9 154.57 202.408C154.844 202.896 155.273 203.258 155.859 203.492C156.445 203.727 157.1 203.844 157.822 203.844C158.818 203.844 159.785 203.707 160.723 203.434C161.66 203.16 162.705 202.516 163.857 201.5V195.143C160.576 195.514 158.379 195.992 157.266 196.578C156.152 197.164 155.352 197.77 154.863 198.395C154.395 199.02 154.16 199.762 154.16 200.621ZM181.816 209C180.645 209 180.059 208.414 180.059 207.242V172.643C180.059 171.764 180.264 170.963 180.674 170.24L182.93 166.285C183.359 165.543 183.867 165.172 184.453 165.172H186.504C187.676 165.172 188.262 165.758 188.262 166.93V207.242C188.262 208.414 187.676 209 186.504 209H181.816ZM194.59 193.619C194.59 189.322 195.518 185.592 197.373 182.428C199.248 179.244 202.48 177.652 207.07 177.652C208.828 177.652 210.332 177.906 211.582 178.414C212.832 178.922 213.965 180.016 214.98 181.695H215.098L215.215 179.996C215.293 178.824 215.82 178.238 216.797 178.238H221.426C222.598 178.238 223.184 178.824 223.184 179.996V208.678C223.184 213.463 221.895 216.764 219.316 218.58C216.738 220.396 213.008 221.305 208.125 221.305C206.055 221.305 204.141 221.197 202.383 220.982C200.625 220.768 198.848 220.23 197.051 219.371C196.113 218.922 195.957 218.072 196.582 216.822L197.637 214.713C198.066 213.854 198.779 213.658 199.775 214.127C200.576 214.498 201.562 214.83 202.734 215.123C203.926 215.416 205.43 215.562 207.246 215.562C209.746 215.562 211.66 215.094 212.988 214.156C214.316 213.238 214.98 211.217 214.98 208.092V207.594C214.98 206.812 215.02 206.031 215.098 205.25H214.98C213.965 206.93 212.832 208.023 211.582 208.531C210.332 209.039 208.828 209.293 207.07 209.293C202.48 209.293 199.248 207.711 197.373 204.547C195.518 201.363 194.59 197.721 194.59 193.619ZM203.262 193.619C203.262 196.549 203.662 198.941 204.463 200.797C205.283 202.633 207.012 203.551 209.648 203.551C211.113 203.551 212.363 202.73 213.398 201.09C214.453 199.43 214.98 197.281 214.98 194.645V192.301C214.98 189.664 214.453 187.525 213.398 185.885C212.363 184.225 211.113 183.395 209.648 183.395C207.012 183.395 205.283 184.322 204.463 186.178C203.662 188.014 203.262 190.494 203.262 193.619ZM229.512 193.619C229.512 188.639 230.791 184.732 233.35 181.9C235.928 179.068 239.756 177.652 244.834 177.652C249.912 177.652 253.73 179.068 256.289 181.9C258.867 184.732 260.156 188.639 260.156 193.619C260.156 198.6 258.867 202.506 256.289 205.338C253.73 208.17 249.912 209.586 244.834 209.586C239.756 209.586 235.928 208.17 233.35 205.338C230.791 202.506 229.512 198.6 229.512 193.619ZM238.184 193.619C238.184 197.33 238.75 199.967 239.883 201.529C241.035 203.072 242.686 203.844 244.834 203.844C246.982 203.844 248.623 203.072 249.756 201.529C250.908 199.967 251.484 197.33 251.484 193.619C251.484 189.908 250.908 187.281 249.756 185.738C248.623 184.176 246.982 183.395 244.834 183.395C242.686 183.395 241.035 184.176 239.883 185.738C238.75 187.281 238.184 189.908 238.184 193.619Z" fill="white"/>
<path d="M242.017 74.9716C242.017 6.06416 131.981 -0.29162 131.98 74.9716C131.98 147.206 242.017 143.879 242.017 74.9716ZM242.017 74.9716V113.191" stroke="white" stroke-width="41.7517"/>
<path d="M257.05 109.6H227.081C226.363 133.443 228.795 144.585 257.05 147.6V109.6Z" fill="white" stroke="white" stroke-width="11.6905"/>
<path d="M219.987 146.884C207.461 128.096 214.063 70.9834 211.511 71.15" stroke="#005FFF" stroke-width="18.7882"/>
<path d="M21.5563 76.5393C21.5551 151.803 21.5551 82.9756 21.5563 158.239V185.665M21.5563 76.5393C21.5576 1.27613 131.593 7.6319 131.593 76.5393C131.593 145.447 21.5559 148.774 21.5563 76.5393Z" stroke="black" stroke-width="41.7517"/>
<path d="M101.28 78.5586C101.99 72.5586 102.84 39.5586 122.84 16.5586" stroke="#005FFF" stroke-width="18.7882"/>
<path d="M6.49999 178.302H36.5002C37.2191 202.191 34.7847 213.355 6.49999 216.375V178.302Z" fill="black" stroke="black" stroke-width="11.6905"/>
</svg>
