<svg width="251" height="234" viewBox="0 0 251 234" fill="none" xmlns="http://www.w3.org/2000/svg">
<path fill-rule="evenodd" clip-rule="evenodd" d="M111.415 58.5134V9.35299C111.731 6.8533 110.978 4.35362 108.859 2.43719C105.178 -0.812397 99.2107 -0.812397 95.5298 2.43719L2.68079 93.759C0.71952 95.5088 -0.117041 97.7585 0.0130905 100.092C-0.117041 102.341 0.71952 104.674 2.68079 106.424L95.0185 197.163C96.7289 199.079 99.2107 200.329 102.101 200.329C104.741 200.329 107.093 199.329 108.785 197.746C108.785 197.746 108.84 197.746 108.859 197.663C110.978 195.829 111.731 193.246 111.415 190.83C111.415 190.83 111.573 144.586 111.573 141.753C172.921 141.753 228.404 181.331 239.418 233.491C246.836 218.16 251 201.329 251 183.581C251 114.506 188.5 58.5134 111.415 58.5134ZM120.868 125.088C114.789 125.088 92.797 125.255 92.797 125.255V169.999L21.6243 100.092L92.797 30.1004V75.178C92.797 75.178 116.035 74.928 120.868 75.0947C186.51 76.9278 232.084 143.919 232.391 175.249C212.323 152.168 159.629 125.088 120.868 125.088Z" fill="#BBBBBB"/>
</svg>
