<svg width="115" height="42" viewBox="0 0 115 42" fill="none" xmlns="http://www.w3.org/2000/svg">
<rect x="0.5" width="114" height="42" rx="21" fill="white" fill-opacity="0.75"/>
<path d="M40.6738 28V11.0303H47.0374C48.3411 11.0303 49.4348 11.2568 50.3187 11.7098C51.208 12.1627 51.8792 12.798 52.3322 13.6155C52.7906 14.4276 53.0199 15.3749 53.0199 16.4576C53.0199 17.5458 52.7879 18.4904 52.3239 19.2914C51.8654 20.0869 51.1887 20.7028 50.2938 21.1392C49.3989 21.5701 48.2996 21.7855 46.996 21.7855H42.4635V19.2334H46.5817C47.344 19.2334 47.9682 19.1285 48.4543 18.9186C48.9404 18.7031 49.2995 18.391 49.5315 17.9822C49.769 17.5679 49.8878 17.0597 49.8878 16.4576C49.8878 15.8555 49.769 15.3418 49.5315 14.9164C49.294 14.4856 48.9321 14.1596 48.446 13.9387C47.9599 13.7122 47.3329 13.599 46.5651 13.599H43.7479V28H40.6738ZM49.4403 20.3106L53.6413 28H50.2109L46.0845 20.3106H49.4403ZM61.1692 28.2486C59.8931 28.2486 58.7911 27.9834 57.863 27.4531C56.9405 26.9173 56.2307 26.1605 55.7335 25.1828C55.2364 24.1995 54.9878 23.0422 54.9878 21.7109C54.9878 20.4018 55.2364 19.2528 55.7335 18.264C56.2362 17.2696 56.9378 16.4963 57.8382 15.9439C58.7386 15.386 59.7964 15.107 61.0117 15.107C61.7961 15.107 62.5363 15.2341 63.2324 15.4882C63.9339 15.7367 64.5526 16.1234 65.0884 16.6482C65.6298 17.173 66.0551 17.8414 66.3645 18.6534C66.6738 19.4599 66.8285 20.4211 66.8285 21.5369V22.4567H56.3964V20.4349H63.9532C63.9477 19.8604 63.8234 19.3494 63.5804 18.902C63.3373 18.449 62.9976 18.0927 62.5612 17.8331C62.1303 17.5735 61.6276 17.4437 61.0532 17.4437C60.44 17.4437 59.9014 17.5928 59.4374 17.8911C58.9734 18.1839 58.6115 18.5705 58.3519 19.0511C58.0978 19.5262 57.968 20.0482 57.9625 20.6172V22.3821C57.9625 23.1223 58.0978 23.7576 58.3685 24.2879C58.6392 24.8127 59.0176 25.2159 59.5037 25.4976C59.9898 25.7738 60.5588 25.9119 61.2106 25.9119C61.647 25.9119 62.0419 25.8512 62.3955 25.7296C62.749 25.6026 63.0556 25.4175 63.3152 25.1745C63.5749 24.9314 63.771 24.6304 63.9035 24.2713L66.7042 24.5862C66.5274 25.3264 66.1905 25.9727 65.6933 26.5251C65.2017 27.072 64.5719 27.4973 63.8041 27.8011C63.0363 28.0994 62.1579 28.2486 61.1692 28.2486ZM69.3661 32.7727V15.2727H72.3159V17.3774H72.4899C72.6446 17.068 72.8628 16.7393 73.1445 16.3913C73.4262 16.0378 73.8074 15.7367 74.2879 15.4882C74.7685 15.2341 75.3817 15.107 76.1274 15.107C77.1107 15.107 77.9973 15.3583 78.7872 15.861C79.5827 16.3582 80.2124 17.0956 80.6764 18.0734C81.146 19.0456 81.3807 20.2388 81.3807 21.6529C81.3807 23.0505 81.1515 24.2382 80.693 25.2159C80.2345 26.1937 79.6103 26.9394 78.8204 27.4531C78.0304 27.9669 77.1356 28.2237 76.1357 28.2237C75.4066 28.2237 74.8017 28.1022 74.3211 27.8591C73.8405 27.6161 73.4538 27.3233 73.161 26.9808C72.8738 26.6328 72.6501 26.3041 72.4899 25.9948H72.3656V32.7727H69.3661ZM72.3076 21.6364C72.3076 22.4594 72.4236 23.1803 72.6556 23.799C72.8931 24.4177 73.2329 24.901 73.6748 25.2491C74.1222 25.5915 74.6636 25.7628 75.2988 25.7628C75.9617 25.7628 76.5169 25.586 76.9643 25.2325C77.4118 24.8734 77.7487 24.3845 77.9752 23.7659C78.2072 23.1417 78.3232 22.4318 78.3232 21.6364C78.3232 20.8464 78.21 20.1449 77.9835 19.5317C77.757 18.9186 77.42 18.438 76.9726 18.09C76.5252 17.7419 75.9672 17.5679 75.2988 17.5679C74.658 17.5679 74.1139 17.7364 73.6665 18.0734C73.219 18.4104 72.8793 18.8827 72.6473 19.4903C72.4208 20.0979 72.3076 20.8133 72.3076 21.6364ZM86.9489 11.0303V28H83.9494V11.0303H86.9489ZM91.8977 32.7727C91.489 32.7727 91.1106 32.7396 90.7626 32.6733C90.4201 32.6125 90.1466 32.5407 89.9422 32.4579L90.6383 30.1212C91.0747 30.2483 91.4641 30.309 91.8066 30.3035C92.1491 30.298 92.4501 30.1903 92.7098 29.9804C92.9749 29.776 93.1986 29.4335 93.3809 28.9529L93.6378 28.2652L89.0225 15.2727H92.2043L95.1376 24.8845H95.2701L98.2117 15.2727H101.402L96.3059 29.5412C96.0683 30.2151 95.7535 30.7924 95.3613 31.273C94.9691 31.7591 94.4885 32.1292 93.9195 32.3833C93.3561 32.6429 92.6821 32.7727 91.8977 32.7727Z" fill="black"/>
<g clip-path="url(#clip0_13187_767)">
<path d="M18.1147 27.3457V32.177C18.1147 32.5145 18.3314 32.8134 18.6522 32.9197C18.7325 32.9457 18.8147 32.9582 18.896 32.9582C19.1397 32.9582 19.3752 32.8436 19.5252 32.6395L22.3512 28.7936L18.1147 27.3457Z" fill="black"/>
<path d="M33.6719 9.14488C33.4323 8.97509 33.1178 8.95218 32.8573 9.08863L9.41984 21.3282C9.14275 21.473 8.97921 21.7688 9.00213 22.0803C9.02609 22.3928 9.23338 22.6595 9.52817 22.7605L16.0438 24.9876L29.9198 13.123L19.1823 26.0595L30.1021 29.7918C30.1834 29.8188 30.2688 29.8334 30.3542 29.8334C30.4959 29.8334 30.6365 29.7949 30.7605 29.7199C30.9584 29.5991 31.0928 29.3959 31.1271 29.1678L33.9917 9.89697C34.0344 9.6053 33.9115 9.31572 33.6719 9.14488Z" fill="black"/>
</g>
<defs>
<clipPath id="clip0_13187_767">
<rect width="25" height="25" fill="white" transform="translate(9 9)"/>
</clipPath>
</defs>
</svg>
