<svg width="251" height="234" viewBox="0 0 251 234" fill="none" xmlns="http://www.w3.org/2000/svg">
<path fill-rule="evenodd" clip-rule="evenodd" d="M111.415 58.5131V9.35293C111.731 6.85326 110.978 4.35359 108.859 2.43718C105.178 -0.812393 99.2107 -0.812393 95.5298 2.43718L2.68079 93.7585C0.71952 95.5082 -0.117041 97.7579 0.0130905 100.091C-0.117041 102.341 0.71952 104.674 2.68079 106.423L95.0185 197.161C96.7289 199.078 99.2107 200.328 102.101 200.328C104.741 200.328 107.093 199.328 108.785 197.745C108.785 197.745 108.84 197.745 108.859 197.661C110.978 195.828 111.731 193.245 111.415 190.829C111.415 190.829 111.573 144.585 111.573 141.752C172.921 141.752 228.404 181.33 239.418 233.49C246.836 218.159 251 201.328 251 183.58C251 114.506 188.5 58.5131 111.415 58.5131ZM120.868 125.088C114.789 125.088 92.797 125.254 92.797 125.254V169.998L21.6243 100.091L92.797 30.1002V75.1776C92.797 75.1776 116.035 74.9276 120.868 75.0942C186.51 76.9273 232.084 143.918 232.391 175.248C212.323 152.167 159.629 125.088 120.868 125.088Z" fill="#666666"/>
</svg>
