<svg width="114" height="42" viewBox="0 0 114 42" fill="none" xmlns="http://www.w3.org/2000/svg">
<rect width="114" height="42" rx="21" fill="black" fill-opacity="0.95"/>
<path d="M39.1738 28V11.0303H45.5374C46.8411 11.0303 47.9348 11.2568 48.8187 11.7098C49.708 12.1627 50.3792 12.798 50.8322 13.6155C51.2906 14.4276 51.5199 15.3749 51.5199 16.4576C51.5199 17.5458 51.2879 18.4904 50.8239 19.2914C50.3654 20.0869 49.6887 20.7028 48.7938 21.1392C47.8989 21.5701 46.7996 21.7855 45.496 21.7855H40.9635V19.2334H45.0817C45.844 19.2334 46.4682 19.1285 46.9543 18.9186C47.4404 18.7031 47.7995 18.391 48.0315 17.9822C48.269 17.5679 48.3878 17.0597 48.3878 16.4576C48.3878 15.8555 48.269 15.3418 48.0315 14.9164C47.794 14.4856 47.4321 14.1596 46.946 13.9387C46.4599 13.7122 45.8329 13.599 45.0651 13.599H42.2479V28H39.1738ZM47.9403 20.3106L52.1413 28H48.7109L44.5845 20.3106H47.9403ZM59.6692 28.2486C58.3931 28.2486 57.2911 27.9834 56.363 27.4531C55.4405 26.9173 54.7307 26.1605 54.2335 25.1828C53.7364 24.1995 53.4878 23.0422 53.4878 21.7109C53.4878 20.4018 53.7364 19.2528 54.2335 18.264C54.7362 17.2696 55.4378 16.4963 56.3382 15.9439C57.2386 15.386 58.2964 15.107 59.5117 15.107C60.2961 15.107 61.0363 15.2341 61.7324 15.4882C62.4339 15.7367 63.0526 16.1234 63.5884 16.6482C64.1298 17.173 64.5551 17.8414 64.8645 18.6534C65.1738 19.4599 65.3285 20.4211 65.3285 21.5369V22.4567H54.8964V20.4349H62.4532C62.4477 19.8604 62.3234 19.3494 62.0804 18.902C61.8373 18.449 61.4976 18.0927 61.0612 17.8331C60.6303 17.5735 60.1276 17.4437 59.5532 17.4437C58.94 17.4437 58.4014 17.5928 57.9374 17.8911C57.4734 18.1839 57.1115 18.5705 56.8519 19.0511C56.5978 19.5262 56.468 20.0482 56.4625 20.6172V22.3821C56.4625 23.1223 56.5978 23.7576 56.8685 24.2879C57.1392 24.8127 57.5176 25.2159 58.0037 25.4976C58.4898 25.7738 59.0588 25.9119 59.7106 25.9119C60.147 25.9119 60.5419 25.8512 60.8955 25.7296C61.249 25.6026 61.5556 25.4175 61.8152 25.1745C62.0749 24.9314 62.271 24.6304 62.4035 24.2713L65.2042 24.5862C65.0274 25.3264 64.6905 25.9727 64.1933 26.5251C63.7017 27.072 63.0719 27.4973 62.3041 27.8011C61.5363 28.0994 60.6579 28.2486 59.6692 28.2486ZM67.8661 32.7727V15.2727H70.8159V17.3774H70.9899C71.1446 17.068 71.3628 16.7393 71.6445 16.3913C71.9262 16.0378 72.3074 15.7367 72.7879 15.4882C73.2685 15.2341 73.8817 15.107 74.6274 15.107C75.6107 15.107 76.4973 15.3583 77.2872 15.861C78.0827 16.3582 78.7124 17.0956 79.1764 18.0734C79.646 19.0456 79.8807 20.2388 79.8807 21.6529C79.8807 23.0505 79.6515 24.2382 79.193 25.2159C78.7345 26.1937 78.1103 26.9394 77.3204 27.4531C76.5304 27.9669 75.6356 28.2237 74.6357 28.2237C73.9066 28.2237 73.3017 28.1022 72.8211 27.8591C72.3405 27.6161 71.9538 27.3233 71.661 26.9808C71.3738 26.6328 71.1501 26.3041 70.9899 25.9948H70.8656V32.7727H67.8661ZM70.8076 21.6364C70.8076 22.4594 70.9236 23.1803 71.1556 23.799C71.3931 24.4177 71.7329 24.901 72.1748 25.2491C72.6222 25.5915 73.1636 25.7628 73.7988 25.7628C74.4617 25.7628 75.0169 25.586 75.4643 25.2325C75.9118 24.8734 76.2487 24.3845 76.4752 23.7659C76.7072 23.1417 76.8232 22.4318 76.8232 21.6364C76.8232 20.8464 76.71 20.1449 76.4835 19.5317C76.257 18.9186 75.92 18.438 75.4726 18.09C75.0252 17.7419 74.4672 17.5679 73.7988 17.5679C73.158 17.5679 72.6139 17.7364 72.1665 18.0734C71.719 18.4104 71.3793 18.8827 71.1473 19.4903C70.9208 20.0979 70.8076 20.8133 70.8076 21.6364ZM85.4489 11.0303V28H82.4494V11.0303H85.4489ZM90.3977 32.7727C89.989 32.7727 89.6106 32.7396 89.2626 32.6733C88.9201 32.6125 88.6466 32.5407 88.4422 32.4579L89.1383 30.1212C89.5747 30.2483 89.9641 30.309 90.3066 30.3035C90.6491 30.298 90.9501 30.1903 91.2098 29.9804C91.4749 29.776 91.6986 29.4335 91.8809 28.9529L92.1378 28.2652L87.5225 15.2727H90.7043L93.6376 24.8845H93.7701L96.7117 15.2727H99.9018L94.8059 29.5412C94.5683 30.2151 94.2535 30.7924 93.8613 31.273C93.4691 31.7591 92.9885 32.1292 92.4195 32.3833C91.8561 32.6429 91.1821 32.7727 90.3977 32.7727Z" fill="white"/>
<g clip-path="url(#clip0_13187_779)">
<path d="M17.1147 27.3457V32.177C17.1147 32.5145 17.3314 32.8134 17.6522 32.9197C17.7325 32.9457 17.8147 32.9582 17.896 32.9582C18.1397 32.9582 18.3752 32.8436 18.5252 32.6395L21.3512 28.7936L17.1147 27.3457Z" fill="white"/>
<path d="M32.6719 9.14488C32.4323 8.97509 32.1178 8.95218 31.8573 9.08863L8.41984 21.3282C8.14275 21.473 7.97921 21.7688 8.00213 22.0803C8.02609 22.3928 8.23338 22.6595 8.52817 22.7605L15.0438 24.9876L28.9198 13.123L18.1823 26.0595L29.1021 29.7918C29.1834 29.8188 29.2688 29.8334 29.3542 29.8334C29.4959 29.8334 29.6365 29.7949 29.7605 29.7199C29.9584 29.5991 30.0928 29.3959 30.1271 29.1678L32.9917 9.89697C33.0344 9.6053 32.9115 9.31572 32.6719 9.14488Z" fill="white"/>
</g>
<defs>
<clipPath id="clip0_13187_779">
<rect width="25" height="25" fill="white" transform="translate(8 9)"/>
</clipPath>
</defs>
</svg>
