<svg width="114" height="40" viewBox="0 0 114 40" fill="none" xmlns="http://www.w3.org/2000/svg">
<path d="M93 0H21C9.9543 0 1 8.9543 1 20C1 31.0457 9.9543 40 21 40H93C104.046 40 113 31.0457 113 20C113 8.9543 104.046 0 93 0Z" fill="black"/>
<path d="M40.1738 27V10.0303H46.5374C47.8411 10.0303 48.9348 10.2568 49.8187 10.7098C50.708 11.1627 51.3792 11.798 51.8322 12.6155C52.2906 13.4276 52.5199 14.3749 52.5199 15.4576C52.5199 16.5458 52.2879 17.4904 51.8239 18.2914C51.3654 19.0869 50.6887 19.7028 49.7938 20.1392C48.8989 20.5701 47.7996 20.7855 46.496 20.7855H41.9635V18.2334H46.0817C46.844 18.2334 47.4682 18.1285 47.9543 17.9186C48.4404 17.7031 48.7995 17.391 49.0315 16.9822C49.269 16.5679 49.3878 16.0597 49.3878 15.4576C49.3878 14.8555 49.269 14.3418 49.0315 13.9164C48.794 13.4856 48.4321 13.1596 47.946 12.9387C47.4599 12.7122 46.8329 12.599 46.0651 12.599H43.2479V27H40.1738ZM48.9403 19.3106L53.1413 27H49.7109L45.5845 19.3106H48.9403ZM60.6692 27.2486C59.3931 27.2486 58.2911 26.9834 57.363 26.4531C56.4405 25.9173 55.7307 25.1605 55.2335 24.1828C54.7364 23.1995 54.4878 22.0422 54.4878 20.7109C54.4878 19.4018 54.7364 18.2528 55.2335 17.264C55.7362 16.2696 56.4378 15.4963 57.3382 14.9439C58.2386 14.386 59.2964 14.107 60.5117 14.107C61.2961 14.107 62.0363 14.2341 62.7324 14.4882C63.4339 14.7367 64.0526 15.1234 64.5884 15.6482C65.1298 16.173 65.5551 16.8414 65.8645 17.6534C66.1738 18.4599 66.3285 19.4211 66.3285 20.5369V21.4567H55.8964V19.4349H63.4532C63.4477 18.8604 63.3234 18.3494 63.0804 17.902C62.8373 17.449 62.4976 17.0927 62.0612 16.8331C61.6303 16.5735 61.1276 16.4437 60.5532 16.4437C59.94 16.4437 59.4014 16.5928 58.9374 16.8911C58.4734 17.1839 58.1115 17.5705 57.8519 18.0511C57.5978 18.5262 57.468 19.0482 57.4625 19.6172V21.3821C57.4625 22.1223 57.5978 22.7576 57.8685 23.2879C58.1392 23.8127 58.5176 24.2159 59.0037 24.4976C59.4898 24.7738 60.0588 24.9119 60.7106 24.9119C61.147 24.9119 61.5419 24.8512 61.8955 24.7296C62.249 24.6026 62.5556 24.4175 62.8152 24.1745C63.0749 23.9314 63.271 23.6304 63.4035 23.2713L66.2042 23.5862C66.0274 24.3264 65.6905 24.9727 65.1933 25.5251C64.7017 26.072 64.0719 26.4973 63.3041 26.8011C62.5363 27.0994 61.6579 27.2486 60.6692 27.2486ZM68.8661 31.7727V14.2727H71.8159V16.3774H71.9899C72.1446 16.068 72.3628 15.7393 72.6445 15.3913C72.9262 15.0378 73.3074 14.7367 73.7879 14.4882C74.2685 14.2341 74.8817 14.107 75.6274 14.107C76.6107 14.107 77.4973 14.3583 78.2872 14.861C79.0827 15.3582 79.7124 16.0956 80.1764 17.0734C80.646 18.0456 80.8807 19.2388 80.8807 20.6529C80.8807 22.0505 80.6515 23.2382 80.193 24.2159C79.7345 25.1937 79.1103 25.9394 78.3204 26.4531C77.5304 26.9669 76.6356 27.2237 75.6357 27.2237C74.9066 27.2237 74.3017 27.1022 73.8211 26.8591C73.3405 26.6161 72.9538 26.3233 72.661 25.9808C72.3738 25.6328 72.1501 25.3041 71.9899 24.9948H71.8656V31.7727H68.8661ZM71.8076 20.6364C71.8076 21.4594 71.9236 22.1803 72.1556 22.799C72.3931 23.4177 72.7329 23.901 73.1748 24.2491C73.6222 24.5915 74.1636 24.7628 74.7988 24.7628C75.4617 24.7628 76.0169 24.586 76.4643 24.2325C76.9118 23.8734 77.2487 23.3845 77.4752 22.7659C77.7072 22.1417 77.8232 21.4318 77.8232 20.6364C77.8232 19.8464 77.71 19.1449 77.4835 18.5317C77.257 17.9186 76.92 17.438 76.4726 17.09C76.0252 16.7419 75.4672 16.5679 74.7988 16.5679C74.158 16.5679 73.6139 16.7364 73.1665 17.0734C72.719 17.4104 72.3793 17.8827 72.1473 18.4903C71.9208 19.0979 71.8076 19.8133 71.8076 20.6364ZM86.4489 10.0303V27H83.4494V10.0303H86.4489ZM91.3977 31.7727C90.989 31.7727 90.6106 31.7396 90.2626 31.6733C89.9201 31.6125 89.6466 31.5407 89.4422 31.4579L90.1383 29.1212C90.5747 29.2483 90.9641 29.309 91.3066 29.3035C91.6491 29.298 91.9501 29.1903 92.2098 28.9804C92.4749 28.776 92.6986 28.4335 92.8809 27.9529L93.1378 27.2652L88.5225 14.2727H91.7043L94.6376 23.8845H94.7701L97.7117 14.2727H100.902L95.8059 28.5412C95.5683 29.2151 95.2535 29.7924 94.8613 30.273C94.4691 30.7591 93.9885 31.1292 93.4195 31.3833C92.8561 31.6429 92.1821 31.7727 91.3977 31.7727Z" fill="white"/>
<mask id="mask0_11428_1229" style="mask-type:luminance" maskUnits="userSpaceOnUse" x="8" y="8" width="26" height="25">
<path d="M33.5 8H8.5V33H33.5V8Z" fill="white"/>
</mask>
<g mask="url(#mask0_11428_1229)">
<path d="M17.6143 26.3457V31.177C17.6143 31.5145 17.831 31.8134 18.1518 31.9197C18.2321 31.9457 18.3143 31.9582 18.3956 31.9582C18.6393 31.9582 18.8748 31.8436 19.0248 31.6395L21.8508 27.7936L17.6143 26.3457Z" fill="white"/>
<path d="M33.1719 8.14488C32.9323 7.97509 32.6178 7.95218 32.3573 8.08863L8.91984 20.3282C8.64275 20.473 8.47921 20.7688 8.50213 21.0803C8.52609 21.3928 8.73338 21.6595 9.02817 21.7605L15.5438 23.9876L29.4198 12.123L18.6823 25.0595L29.6021 28.7918C29.6834 28.8188 29.7688 28.8334 29.8542 28.8334C29.9959 28.8334 30.1365 28.7949 30.2605 28.7199C30.4584 28.5991 30.5928 28.3959 30.6271 28.1678L33.4917 8.89697C33.5344 8.6053 33.4115 8.31572 33.1719 8.14488Z" fill="white"/>
</g>
</svg>
