<svg width="112" height="40" viewBox="0 0 112 40" fill="none" xmlns="http://www.w3.org/2000/svg">
<rect width="112" height="40" rx="20" fill="white"/>
<path d="M39.1738 27V10.0303H45.5374C46.8411 10.0303 47.9348 10.2568 48.8187 10.7098C49.708 11.1627 50.3792 11.798 50.8322 12.6155C51.2906 13.4276 51.5199 14.3749 51.5199 15.4576C51.5199 16.5458 51.2879 17.4904 50.8239 18.2914C50.3654 19.0869 49.6887 19.7028 48.7938 20.1392C47.8989 20.5701 46.7996 20.7855 45.496 20.7855H40.9635V18.2334H45.0817C45.844 18.2334 46.4682 18.1285 46.9543 17.9186C47.4404 17.7031 47.7995 17.391 48.0315 16.9822C48.269 16.5679 48.3878 16.0597 48.3878 15.4576C48.3878 14.8555 48.269 14.3418 48.0315 13.9164C47.794 13.4856 47.4321 13.1596 46.946 12.9387C46.4599 12.7122 45.8329 12.599 45.0651 12.599H42.2479V27H39.1738ZM47.9403 19.3106L52.1413 27H48.7109L44.5845 19.3106H47.9403ZM59.6692 27.2486C58.3931 27.2486 57.2911 26.9834 56.363 26.4531C55.4405 25.9173 54.7307 25.1605 54.2335 24.1828C53.7364 23.1995 53.4878 22.0422 53.4878 20.7109C53.4878 19.4018 53.7364 18.2528 54.2335 17.264C54.7362 16.2696 55.4378 15.4963 56.3382 14.9439C57.2386 14.386 58.2964 14.107 59.5117 14.107C60.2961 14.107 61.0363 14.2341 61.7324 14.4882C62.4339 14.7367 63.0526 15.1234 63.5884 15.6482C64.1298 16.173 64.5551 16.8414 64.8645 17.6534C65.1738 18.4599 65.3285 19.4211 65.3285 20.5369V21.4567H54.8964V19.4349H62.4532C62.4477 18.8604 62.3234 18.3494 62.0804 17.902C61.8373 17.449 61.4976 17.0927 61.0612 16.8331C60.6303 16.5735 60.1276 16.4437 59.5532 16.4437C58.94 16.4437 58.4014 16.5928 57.9374 16.8911C57.4734 17.1839 57.1115 17.5705 56.8519 18.0511C56.5978 18.5262 56.468 19.0482 56.4625 19.6172V21.3821C56.4625 22.1223 56.5978 22.7576 56.8685 23.2879C57.1392 23.8127 57.5176 24.2159 58.0037 24.4976C58.4898 24.7738 59.0588 24.9119 59.7106 24.9119C60.147 24.9119 60.5419 24.8512 60.8955 24.7296C61.249 24.6026 61.5556 24.4175 61.8152 24.1745C62.0749 23.9314 62.271 23.6304 62.4035 23.2713L65.2042 23.5862C65.0274 24.3264 64.6905 24.9727 64.1933 25.5251C63.7017 26.072 63.0719 26.4973 62.3041 26.8011C61.5363 27.0994 60.6579 27.2486 59.6692 27.2486ZM67.8661 31.7727V14.2727H70.8159V16.3774H70.9899C71.1446 16.068 71.3628 15.7393 71.6445 15.3913C71.9262 15.0378 72.3074 14.7367 72.7879 14.4882C73.2685 14.2341 73.8817 14.107 74.6274 14.107C75.6107 14.107 76.4973 14.3583 77.2872 14.861C78.0827 15.3582 78.7124 16.0956 79.1764 17.0734C79.646 18.0456 79.8807 19.2388 79.8807 20.6529C79.8807 22.0505 79.6515 23.2382 79.193 24.2159C78.7345 25.1937 78.1103 25.9394 77.3204 26.4531C76.5304 26.9669 75.6356 27.2237 74.6357 27.2237C73.9066 27.2237 73.3017 27.1022 72.8211 26.8591C72.3405 26.6161 71.9538 26.3233 71.661 25.9808C71.3738 25.6328 71.1501 25.3041 70.9899 24.9948H70.8656V31.7727H67.8661ZM70.8076 20.6364C70.8076 21.4594 70.9236 22.1803 71.1556 22.799C71.3931 23.4177 71.7329 23.901 72.1748 24.2491C72.6222 24.5915 73.1636 24.7628 73.7988 24.7628C74.4617 24.7628 75.0169 24.586 75.4643 24.2325C75.9118 23.8734 76.2487 23.3845 76.4752 22.7659C76.7072 22.1417 76.8232 21.4318 76.8232 20.6364C76.8232 19.8464 76.71 19.1449 76.4835 18.5317C76.257 17.9186 75.92 17.438 75.4726 17.09C75.0252 16.7419 74.4672 16.5679 73.7988 16.5679C73.158 16.5679 72.6139 16.7364 72.1665 17.0734C71.719 17.4104 71.3793 17.8827 71.1473 18.4903C70.9208 19.0979 70.8076 19.8133 70.8076 20.6364ZM85.4489 10.0303V27H82.4494V10.0303H85.4489ZM90.3977 31.7727C89.989 31.7727 89.6106 31.7396 89.2626 31.6733C88.9201 31.6125 88.6466 31.5407 88.4422 31.4579L89.1383 29.1212C89.5747 29.2483 89.9641 29.309 90.3066 29.3035C90.6491 29.298 90.9501 29.1903 91.2098 28.9804C91.4749 28.776 91.6986 28.4335 91.8809 27.9529L92.1378 27.2652L87.5225 14.2727H90.7043L93.6376 23.8845H93.7701L96.7117 14.2727H99.9018L94.8059 28.5412C94.5683 29.2151 94.2535 29.7924 93.8613 30.273C93.4691 30.7591 92.9885 31.1292 92.4195 31.3833C91.8561 31.6429 91.1821 31.7727 90.3977 31.7727Z" fill="black"/>
<g clip-path="url(#clip0_11341_1159)">
<path d="M16.6147 26.3457V31.177C16.6147 31.5145 16.8314 31.8134 17.1522 31.9197C17.2325 31.9457 17.3147 31.9582 17.396 31.9582C17.6397 31.9582 17.8752 31.8436 18.0252 31.6395L20.8512 27.7936L16.6147 26.3457Z" fill="black"/>
<path d="M32.1719 8.14488C31.9323 7.97509 31.6178 7.95218 31.3573 8.08863L7.91984 20.3282C7.64275 20.473 7.47921 20.7688 7.50213 21.0803C7.52609 21.3928 7.73338 21.6595 8.02817 21.7605L14.5438 23.9876L28.4198 12.123L17.6823 25.0595L28.6021 28.7918C28.6834 28.8188 28.7688 28.8334 28.8542 28.8334C28.9959 28.8334 29.1365 28.7949 29.2605 28.7199C29.4584 28.5991 29.5928 28.3959 29.6271 28.1678L32.4917 8.89697C32.5344 8.6053 32.4115 8.31572 32.1719 8.14488Z" fill="black"/>
</g>
<defs>
<clipPath id="clip0_11341_1159">
<rect width="25" height="25" fill="white" transform="translate(7.5 8)"/>
</clipPath>
</defs>
</svg>
