<svg xmlns="http://www.w3.org/2000/svg" version="1.1" xmlns:xlink="http://www.w3.org/1999/xlink" width="512" height="512" x="0" y="0" viewBox="0 0 284.159 284.159" style="enable-background:new 0 0 512 512" xml:space="preserve" class=""><g><path d="M279.467 57.158 237.453 14.25c-8.045-4.47-14.303-.894-14.303 8.939v25.03H89.062c-82.24 0-80.453 57.211-80.453 62.574v62.574s35.757-34.863 35.757-35.757v-25.924c0 .894 1.788-27.711 44.696-27.711H223.15v25.03c0 9.833 6.257 13.409 14.303 8.939l42.014-42.908c6.257-7.151 6.257-11.621 0-17.878zm-3.576 53.635s-35.757 34.863-35.757 35.757v25.924c0-.894-1.788 27.711-44.696 27.711H61.351v-25.03c0-9.833-6.257-13.409-14.303-8.939L5.034 209.124c-6.257 6.257-7.151 10.727 0 17.878l42.014 42.908c8.045 4.47 14.303.894 14.303-8.939v-25.03h134.088c82.24 0 80.453-57.211 80.453-62.574v-62.574h-.001z" style="" fill="currentColor" data-original="#3db39e" class="" opacity="1"></path></g></svg>