<svg width="439" height="439" viewBox="0 0 439 439" fill="currentColor" xmlns="http://www.w3.org/2000/svg">
<path d="M438.857 256V292.571C438.857 332.8 405.943 365.714 365.714 365.714H62.1714L104.229 407.771C111.543 415.086 111.543 426.057 104.229 433.371C96.9143 440.686 85.9429 440.686 78.6286 433.371L5.48571 360.229C-1.82857 352.914 -1.82857 341.943 5.48571 334.629L78.6286 261.486C85.9429 254.171 96.9143 254.171 104.229 261.486C111.543 268.8 111.543 279.771 104.229 287.086L62.1714 329.143H365.714C385.829 329.143 402.286 312.686 402.286 292.571V256C402.286 245.029 409.6 237.714 420.571 237.714C431.543 237.714 438.857 245.029 438.857 256ZM18.2857 201.143C29.2571 201.143 36.5714 193.829 36.5714 182.857V146.286C36.5714 126.171 53.0286 109.714 73.1429 109.714H376.686L334.629 151.771C327.314 159.086 327.314 170.057 334.629 177.371C341.943 184.686 352.914 184.686 360.229 177.371L433.371 104.229C440.686 96.9143 440.686 85.9429 433.371 78.6286L360.229 5.48571C352.914 -1.82857 341.943 -1.82857 334.629 5.48571C327.314 12.8 327.314 23.7714 334.629 31.0857L376.686 73.1429H73.1429C32.9143 73.1429 9.53674e-07 106.057 9.53674e-07 146.286V182.857C9.53674e-07 193.829 7.31429 201.143 18.2857 201.143Z" fill="currentColor"/>
</svg>
