<svg width="512" height="512" viewBox="0 0 512 512" fill="none" xmlns="http://www.w3.org/2000/svg">
<g clip-path="url(#clip0_13191_811)">
<path d="M256 512C397.385 512 512 397.385 512 256C512 114.615 397.385 0 256 0C114.615 0 0 114.615 0 256C0 397.385 114.615 512 256 512Z" fill="#FFD93B"/>
<path d="M512 256C512 397.44 397.36 512 256 512C175.52 512 103.68 474.88 56.72 416.72C100.64 452.24 156.56 473.44 217.44 473.44C358.8 473.44 473.44 358.88 473.44 217.44C473.44 156.56 452.24 100.64 416.72 56.72C474.8 103.68 512 175.52 512 256Z" fill="#F4C534"/>
<path d="M271.296 214.688C279.76 258.928 325.616 291.968 373.696 288.352C421.952 284.72 454.016 245.808 445.536 201.568C437.04 157.184 391.216 124.288 342.976 127.92C294.88 131.536 262.8 170.304 271.296 214.688Z" fill="white"/>
<path d="M336.8 242.144C358.741 242.144 376.528 224.357 376.528 202.416C376.528 180.475 358.741 162.688 336.8 162.688C314.859 162.688 297.072 180.475 297.072 202.416C297.072 224.357 314.859 242.144 336.8 242.144Z" fill="#473535"/>
<path d="M331.635 179.15C328.542 176.058 321.972 177.613 316.961 182.624C311.95 187.635 310.395 194.205 313.488 197.297C316.581 200.39 323.15 198.835 328.161 193.824C333.173 188.813 334.728 182.243 331.635 179.15Z" fill="white"/>
<path d="M240.704 214.688C232.24 258.928 186.384 291.968 138.304 288.352C90.048 284.72 57.984 245.808 66.464 201.568C74.96 157.184 120.784 124.288 169.024 127.92C217.12 131.536 249.2 170.304 240.704 214.688Z" fill="white"/>
<path d="M175.184 242.144C197.125 242.144 214.912 224.357 214.912 202.416C214.912 180.475 197.125 162.688 175.184 162.688C153.243 162.688 135.456 180.475 135.456 202.416C135.456 224.357 153.243 242.144 175.184 242.144Z" fill="#473535"/>
<path d="M170.023 179.129C166.93 176.036 160.361 177.591 155.349 182.602C150.338 187.613 148.783 194.183 151.876 197.276C154.969 200.369 161.539 198.814 166.55 193.802C171.561 188.791 173.116 182.222 170.023 179.129Z" fill="white"/>
<path d="M76.7839 127.472C76.7839 127.472 162.64 145.104 227.168 92.5439C214.448 144.96 164.32 156.608 76.7839 127.472Z" fill="#473535"/>
<path d="M435.216 127.472C435.216 127.472 349.36 145.104 284.832 92.5439C297.552 144.96 347.68 156.608 435.216 127.472Z" fill="#473535"/>
<path d="M173.104 409.776C190.224 378.096 220.944 356.976 256.144 356.976C291.184 356.976 321.904 377.936 338.864 409.456C344.624 420.176 360.784 413.936 357.744 402.096C346.704 357.776 307.024 322.416 256.144 322.416C205.104 322.416 165.264 357.936 154.224 402.256C151.344 414.096 167.344 420.336 173.104 409.776Z" fill="#473535"/>
<path d="M75.0081 251.36C76.6721 251.008 78.4961 250.736 80.8321 250.736C94.1121 250.736 94.1121 257.696 107.376 257.696C120.624 257.696 120.624 250.736 133.888 250.736C147.136 250.736 147.136 257.696 160.384 257.696C173.632 257.696 173.632 250.736 186.88 250.736C200.112 250.736 200.112 257.696 213.344 257.696C215.2 257.696 216.736 257.536 218.144 257.312C198.416 278.08 168.848 290.64 138.304 288.336C109.92 286.208 87.2321 271.824 75.0081 251.36Z" fill="#59A5E0"/>
<path d="M69.696 295.344C70.496 304.592 76.368 311.12 85.328 311.12C94.544 311.12 98.8 299.824 96.16 293.056C89.136 275.152 85.088 257.6 85.088 257.6C85.088 257.6 70.352 281.04 69.696 295.344Z" fill="#59A5E0"/>
<path d="M73.952 352.656C74.4 357.856 77.76 362.336 82.8 362.336C87.968 362.336 91.008 356.464 88.816 351.376C84.528 341.456 82.544 333.76 82.544 333.76C82.544 333.76 74.32 344.624 73.952 352.656Z" fill="#59A5E0"/>
<path d="M86.4319 355.056C87.2319 355.536 86.9119 356.816 85.7919 358.096C84.6719 359.376 83.2319 359.856 82.4319 359.376C81.6319 358.896 81.9519 357.456 83.0719 356.336C84.1919 355.056 85.6319 354.416 86.4319 355.056Z" fill="white"/>
<path d="M90.112 304.496C88.032 306.736 85.472 307.856 84.192 306.896C82.752 306.096 83.072 303.536 85.152 301.296C87.072 299.056 89.792 298.096 91.232 299.056C92.512 300.016 92.032 302.416 90.112 304.496Z" fill="white"/>
</g>
<defs>
<clipPath id="clip0_13191_811">
<rect width="512" height="512" fill="white"/>
</clipPath>
</defs>
</svg>
