<svg width="24" height="26" viewBox="0 0 24 26" fill="none" xmlns="http://www.w3.org/2000/svg">
<path d="M2.43697 26C2.06707 25.9987 1.70219 25.9207 1.36908 25.7717C0.96076 25.594 0.615318 25.3125 0.372948 24.96C0.130578 24.6075 0.00124578 24.1984 0 23.7805V2.21964C0.00178398 1.92543 0.066336 1.63445 0.189944 1.36343C0.313552 1.09241 0.493777 0.846702 0.720254 0.640435C0.946731 0.434167 1.21499 0.271411 1.50961 0.161527C1.80423 0.051642 2.11939 -0.00320347 2.43697 0.00014454H21.6041C22.2384 0.00347392 22.8457 0.238382 23.2943 0.6539C23.7428 1.06942 23.9964 1.63202 24 2.21964V23.7805C23.9911 24.1821 23.8647 24.574 23.6343 24.9143C23.4039 25.2547 23.078 25.5307 22.6916 25.7129C22.3051 25.8952 21.8725 25.9769 21.4399 25.9492C21.0073 25.9216 20.5908 25.7857 20.235 25.5561L12.2944 20.0391C12.2361 19.9958 12.1636 19.9723 12.089 19.9723C12.0143 19.9723 11.9419 19.9958 11.8836 20.0391L3.8745 25.5561C3.45887 25.8426 2.95505 25.9982 2.43697 26ZM2.43697 1.90257C2.34619 1.90257 2.25913 1.93598 2.19494 1.99544C2.13075 2.0549 2.09469 2.13555 2.09469 2.21964V23.7805C2.09421 23.8392 2.11205 23.8967 2.14605 23.9462C2.18006 23.9957 2.22879 24.0351 2.28637 24.0595C2.33877 24.0928 2.40082 24.1106 2.46435 24.1106C2.52788 24.1106 2.58992 24.0928 2.64233 24.0595L10.6515 18.5171C11.0679 18.2328 11.5717 18.0795 12.089 18.0795C12.6063 18.0795 13.1101 18.2328 13.5265 18.5171L21.4672 24.0342C21.5196 24.0674 21.5816 24.0852 21.6452 24.0852C21.7087 24.0852 21.7708 24.0674 21.8232 24.0342C21.8807 24.0097 21.9295 23.9704 21.9635 23.9209C21.9975 23.8714 22.0153 23.8138 22.0148 23.7551V2.21964C22.0159 2.17209 22.0053 2.12493 21.984 2.08165C21.9627 2.03837 21.9312 2.00009 21.8917 1.96964C21.8523 1.93919 21.806 1.91735 21.7562 1.90574C21.7064 1.89413 21.6544 1.89305 21.6041 1.90257H2.43697Z" fill="#555555"/>
</svg>
