<svg width="24" height="26" viewBox="0 0 24 26" fill="none" xmlns="http://www.w3.org/2000/svg">
<path d="M21.968 0H2.0595C1.51328 0 0.989443 0.200435 0.603213 0.557211C0.216982 0.913987 0 1.39788 0 1.90244V23.7805C0.00053746 24.1969 0.130111 24.6045 0.37341 24.9551C0.616709 25.3057 0.963566 25.5847 1.373 25.759C1.70326 25.919 2.07099 26.0018 2.44394 26C2.93993 25.985 3.41907 25.8301 3.81693 25.5561L11.1625 20.4829C11.4001 20.3183 11.6892 20.2292 11.9863 20.2292C12.2833 20.2292 12.5724 20.3183 12.8101 20.4829L20.1556 25.5561C20.5126 25.8034 20.9371 25.954 21.3815 25.991C21.8259 26.028 22.2727 25.95 22.6718 25.7657C23.0709 25.5813 23.4066 25.298 23.6412 24.9473C23.8757 24.5967 24 24.1927 24 23.7805V1.90244C24 1.40224 23.7868 0.922156 23.4065 0.5661C23.0262 0.210044 22.5094 0.00666924 21.968 0Z" fill="#444444"/>
</svg>
