<svg width="683" height="683" viewBox="0 0 683 683" fill="none" xmlns="http://www.w3.org/2000/svg">
<g clip-path="url(#clip0_9082_5177)">
<mask id="mask0_9082_5177" style="mask-type:luminance" maskUnits="userSpaceOnUse" x="0" y="0" width="683" height="683">
<path d="M0 0.00012207H682.667V682.667H0V0.00012207Z" fill="white"/>
</mask>
<g mask="url(#mask0_9082_5177)">
<path d="M341.333 236.445C283.405 236.445 236.444 283.405 236.444 341.334C236.444 399.262 283.405 446.222 341.333 446.222C399.261 446.222 446.223 399.262 446.223 341.334C446.223 283.405 399.261 236.445 341.333 236.445ZM635.736 266.485L607.337 289.863C574.943 316.531 574.943 366.135 607.337 392.803L635.736 416.182C645.8 424.467 648.399 438.814 641.881 450.103L585.805 547.23C579.287 558.519 565.563 563.442 553.356 558.869L518.909 545.965C479.617 531.245 436.659 556.046 429.76 597.434L423.713 633.718C421.571 646.575 410.445 656.001 397.411 656.001H285.256C272.221 656.001 261.096 646.575 258.953 633.718L252.905 597.434C246.008 556.046 203.049 531.245 163.757 545.965L129.312 558.869C117.104 563.442 103.38 558.519 96.8613 547.23L40.7853 450.103C34.268 438.814 36.8667 424.467 46.9307 416.182L75.3307 392.803C107.724 366.135 107.724 316.531 75.3307 289.863L46.9307 266.485C36.8667 258.199 34.268 243.853 40.7853 232.563L96.8613 135.437C103.38 124.147 117.104 119.225 129.312 123.798L163.757 136.702C203.049 151.422 246.008 126.621 252.905 85.2328L258.953 48.9488C261.096 36.0914 272.221 26.6674 285.256 26.6674H397.411C410.445 26.6674 421.571 36.0914 423.713 48.9488L429.76 85.2328C436.659 126.621 479.617 151.422 518.909 136.702L553.356 123.798C565.563 119.225 579.287 124.147 585.805 135.437L641.881 232.563C648.399 243.853 645.8 258.199 635.736 266.485Z" stroke="#EEEEEE" stroke-width="53.3333" stroke-miterlimit="10" stroke-linecap="round" stroke-linejoin="round"/>
</g>
</g>
<defs>
<clipPath id="clip0_9082_5177">
<rect width="682.667" height="682.667" fill="white"/>
</clipPath>
</defs>
</svg>
