<svg width="512" height="432" viewBox="0 0 512 432" fill="none" xmlns="http://www.w3.org/2000/svg">
<path d="M272.57 126.56H25C18.3696 126.56 12.0107 123.926 7.32233 119.238C2.63392 114.549 0 108.19 0 101.56C0 94.9296 2.63392 88.5708 7.32233 83.8824C12.0107 79.194 18.3696 76.5601 25 76.5601H272.6C279.23 76.5601 285.589 79.194 290.278 83.8824C294.966 88.5708 297.6 94.9296 297.6 101.56C297.6 108.19 294.966 114.549 290.278 119.238C285.589 123.926 279.23 126.56 272.6 126.56H272.57Z" fill="#EEEEEE"/>
<path d="M487 126.56H424.42C417.79 126.56 411.431 123.926 406.742 119.238C402.054 114.549 399.42 108.19 399.42 101.56C399.42 94.9296 402.054 88.5708 406.742 83.8824C411.431 79.194 417.79 76.5601 424.42 76.5601H487C493.63 76.5601 499.989 79.194 504.678 83.8824C509.366 88.5708 512 94.9296 512 101.56C512 108.19 509.366 114.549 504.678 119.238C499.989 123.926 493.63 126.56 487 126.56Z" fill="#EEEEEE"/>
<path d="M487 357.44H239.43C232.8 357.44 226.441 354.806 221.753 350.118C217.064 345.429 214.43 339.07 214.43 332.44C214.43 325.81 217.064 319.451 221.753 314.762C226.441 310.074 232.8 307.44 239.43 307.44H487C493.631 307.44 499.989 310.074 504.678 314.762C509.366 319.451 512 325.81 512 332.44C512 339.07 509.366 345.429 504.678 350.118C499.989 354.806 493.631 357.44 487 357.44Z" fill="#EEEEEE"/>
<path d="M87.58 357.44H25C18.3696 357.44 12.0107 354.806 7.32233 350.118C2.63392 345.429 0 339.07 0 332.44C0 325.81 2.63392 319.451 7.32233 314.762C12.0107 310.074 18.3696 307.44 25 307.44H87.58C94.2104 307.44 100.569 310.074 105.258 314.762C109.946 319.451 112.58 325.81 112.58 332.44C112.58 339.07 109.946 345.429 105.258 350.118C100.569 354.806 94.2104 357.44 87.58 357.44Z" fill="#EEEEEE"/>
<path d="M163.51 431.52C143.547 431.522 124.033 425.604 107.433 414.515C90.8343 403.426 77.8963 387.664 70.2556 369.221C62.6149 350.779 60.6147 330.485 64.508 310.906C68.4013 291.327 78.0131 273.342 92.128 259.225C106.243 245.109 124.227 235.495 143.806 231.6C163.385 227.705 183.679 229.703 202.122 237.342C220.565 244.981 236.329 257.917 247.419 274.515C258.51 291.113 264.43 310.628 264.43 330.59C264.411 357.351 253.773 383.011 234.851 401.934C215.929 420.858 190.271 431.499 163.51 431.52ZM163.51 279.67C153.436 279.668 143.588 282.654 135.211 288.249C126.834 293.845 120.305 301.799 116.449 311.105C112.593 320.412 111.583 330.653 113.548 340.534C115.513 350.414 120.364 359.49 127.487 366.613C134.61 373.736 143.686 378.587 153.566 380.552C163.447 382.517 173.688 381.507 182.995 377.651C192.301 373.795 200.255 367.266 205.851 358.889C211.446 350.512 214.432 340.664 214.43 330.59C214.409 317.092 209.037 304.152 199.492 294.608C189.948 285.063 177.008 279.691 163.51 279.67Z" fill="#EEEEEE"/>
<path d="M348.49 202.49C328.528 202.49 309.014 196.571 292.416 185.48C275.819 174.39 262.882 158.627 255.243 140.184C247.604 121.742 245.605 101.448 249.499 81.8696C253.394 62.2911 263.006 44.3071 277.122 30.1918C291.237 16.0764 309.221 6.4638 328.8 2.56939C348.378 -1.32502 368.672 0.673738 387.114 8.31289C405.557 15.952 421.32 28.8885 432.41 45.4864C443.501 62.0842 449.42 81.598 449.42 101.56C449.402 128.323 438.762 153.984 419.838 172.908C400.914 191.832 375.253 202.472 348.49 202.49ZM348.49 50.6401C338.417 50.6401 328.569 53.6273 320.194 59.224C311.818 64.8207 305.29 72.7755 301.436 82.0823C297.581 91.3891 296.573 101.63 298.539 111.51C300.505 121.389 305.357 130.464 312.481 137.587C319.604 144.709 328.68 149.559 338.56 151.523C348.44 153.487 358.681 152.477 367.987 148.62C377.293 144.764 385.247 138.235 390.842 129.858C396.437 121.481 399.422 111.633 399.42 101.56C399.399 88.06 394.026 75.1191 384.479 65.574C374.932 56.029 361.99 50.6586 348.49 50.6401Z" fill="#EEEEEE"/>
</svg>
