<svg xmlns="http://www.w3.org/2000/svg" width="28" height="28" viewBox="0 0 28 28" fill="none">
<path d="M13.2581 17C13.2581 17.4639 13.5361 18 14 18C14.4639 18 14.9381 17.4639 14.9381 17V4.77467L19.0381 8.87463C19.3661 9.20267 19.898 9.20267 20.226 8.87463C20.5541 8.54661 20.5541 8.01475 20.226 7.6867L14.703 2.16368C14.541 2.00169 14.3293 1.91969 14.117 1.91769C14.1107 1.91755 14.1044 1.91748 14.0981 1.91748C14.0857 1.91748 14.0734 1.91775 14.0612 1.91828C13.8356 1.9097 13.6073 1.99151 13.4351 2.1637L7.91205 7.6867C7.584 8.01475 7.584 8.54661 7.91205 8.87465C8.2401 9.2027 8.77196 9.2027 9.09998 8.87465L13.2581 4.71654V17Z" fill="#dddddd"/>
<path d="M3.88314 15.0065C3.88314 14.5426 3.50704 14.1665 3.04314 14.1665C2.57921 14.1665 2.20312 14.5426 2.20312 15.0065V21.4422C2.20312 23.4525 3.83282 25.0822 5.84314 25.0822H22.1568C24.1671 25.0822 25.7968 23.4525 25.7968 21.4422V15.0065C25.7968 14.5426 25.4208 14.1665 24.9568 14.1665C24.4929 14.1665 24.1168 14.5426 24.1168 15.0065V21.4422C24.1168 22.5247 23.2393 23.4022 22.1568 23.4022H5.84314C4.76066 23.4022 3.88314 22.5247 3.88314 21.4422V15.0065Z" fill="#dddddd"/>
</svg>