<svg xmlns="http://www.w3.org/2000/svg" width="24" height="25" viewBox="0 0 24 25" fill="none">
<path d="M11.2581 16C11.2581 16.4639 11.5361 17 12 17C12.4639 17 12.9381 16.4639 12.9381 16V3.77467L17.0381 7.87463C17.3661 8.20267 17.898 8.20267 18.226 7.87463C18.5541 7.54661 18.5541 7.01475 18.226 6.6867L12.703 1.16368C12.541 1.00169 12.3293 0.91969 12.117 0.91769C12.1107 0.91755 12.1044 0.91748 12.0981 0.91748C12.0857 0.91748 12.0734 0.917749 12.0612 0.918278C11.8356 0.909699 11.6073 0.991507 11.4351 1.1637L5.91205 6.6867C5.584 7.01475 5.584 7.54661 5.91205 7.87465C6.2401 8.2027 6.77196 8.2027 7.09998 7.87465L11.2581 3.71654V16Z" fill="#444444"/>
<path d="M1.88314 14.0065C1.88314 13.5426 1.50704 13.1665 1.04314 13.1665C0.579207 13.1665 0.203125 13.5426 0.203125 14.0065V20.4422C0.203125 22.4525 1.83282 24.0822 3.84314 24.0822H20.1568C22.1671 24.0822 23.7968 22.4525 23.7968 20.4422V14.0065C23.7968 13.5426 23.4208 13.1665 22.9568 13.1665C22.4929 13.1665 22.1168 13.5426 22.1168 14.0065V20.4422C22.1168 21.5247 21.2393 22.4022 20.1568 22.4022H3.84314C2.76066 22.4022 1.88314 21.5247 1.88314 20.4422V14.0065Z" fill="#444444"/>
</svg>