<svg width="50" height="50" viewBox="0 0 50 50" fill="none" xmlns="http://www.w3.org/2000/svg">
<g clip-path="url(#clip0_8756_3041)">
<path d="M49.0846 0.915251C49.6706 1.5013 49.9998 2.29614 49.9998 3.12492C49.9998 3.9537 49.6706 4.74854 49.0846 5.33459L35.8647 18.5546H41.0085C41.8373 18.5546 42.6322 18.8838 43.2182 19.4699C43.8043 20.0559 44.1335 20.8508 44.1335 21.6796C44.1335 22.5084 43.8043 23.3033 43.2182 23.8893C42.6322 24.4754 41.8373 24.8046 41.0085 24.8046H28.3202C27.4914 24.8046 26.6966 24.4754 26.1105 23.8893C25.5245 23.3033 25.1952 22.5084 25.1952 21.6796V8.99132C25.1952 8.16252 25.5245 7.36767 26.1105 6.78162C26.6966 6.19556 27.4914 5.86632 28.3202 5.86632C29.149 5.86632 29.9439 6.19556 30.5299 6.78162C31.116 7.36767 31.4452 8.16252 31.4452 8.99132V14.1353L44.6653 0.915251C45.2513 0.329224 46.0461 0 46.8749 0C47.7037 0 48.4985 0.329224 49.0846 0.915251ZM0.915251 49.0846C1.5013 49.6706 2.29614 49.9998 3.12492 49.9998C3.9537 49.9998 4.74854 49.6706 5.33459 49.0846L18.5546 35.8646V41.0085C18.5546 41.8373 18.8838 42.6322 19.4699 43.2182C20.0559 43.8043 20.8508 44.1335 21.6796 44.1335C22.5084 44.1335 23.3033 43.8043 23.8893 43.2182C24.4754 42.6322 24.8046 41.8373 24.8046 41.0085V28.3202C24.8046 27.4914 24.4754 26.6966 23.8893 26.1105C23.3033 25.5245 22.5084 25.1952 21.6796 25.1952H8.99132C8.16252 25.1952 7.36767 25.5245 6.78162 26.1105C6.19556 26.6966 5.86632 27.4914 5.86632 28.3202C5.86632 29.149 6.19556 29.9439 6.78162 30.5299C7.36767 31.116 8.16252 31.4452 8.99132 31.4452H14.1353L0.915251 44.6653C0.329224 45.2513 0 46.0461 0 46.8749C0 47.7037 0.329224 48.4985 0.915251 49.0846Z" fill="white"/>
</g>
<defs>
<clipPath id="clip0_8756_3041">
<rect width="50" height="50" fill="white"/>
</clipPath>
</defs>
</svg>
