<svg xmlns="http://www.w3.org/2000/svg" xmlns:xlink="http://www.w3.org/1999/xlink" version="1.1" id="Capa_1" x="0px" y="0px" viewBox="0 0 208 208" style="enable-background:new 0 0 208 208;" xml:space="preserve">
<path d="M113.158,0.402c31.367,2.761,59.489,19.399,77.157,45.646l-12.443,8.375c-15.127-22.474-39.194-36.718-66.029-39.08  L113.158,0.402z M185.456,68.153C190.462,79.453,193,91.514,193,104s-2.538,24.547-7.544,35.847l13.715,6.074  C205.03,132.696,208,118.592,208,104s-2.97-28.696-8.829-41.921L185.456,68.153z M17.685,46.049l12.443,8.375  c15.127-22.474,39.194-36.718,66.029-39.08L94.842,0.402C63.476,3.163,35.353,19.801,17.685,46.049z M111.842,192.656l1.315,14.941  c31.367-2.761,59.489-19.398,77.157-45.646l-12.443-8.375C162.744,176.05,138.677,190.294,111.842,192.656z M15,104  c0-12.486,2.538-24.547,7.544-35.847L8.829,62.079C2.97,75.304,0,89.408,0,104s2.97,28.696,8.829,41.921l13.715-6.074  C17.538,128.547,15,116.486,15,104z M30.129,153.576l-12.443,8.375c17.668,26.248,45.79,42.886,77.157,45.646l1.315-14.941  C69.323,190.294,45.256,176.05,30.129,153.576z" fill="#ffffff"/>
<g>
</g>
<g>
</g>
<g>
</g>
<g>
</g>
<g>
</g>
<g>
</g>
<g>
</g>
<g>
</g>
<g>
</g>
<g>
</g>
<g>
</g>
<g>
</g>
<g>
</g>
<g>
</g>
<g>
</g>
</svg>