<svg xmlns="http://www.w3.org/2000/svg" id="Capa_1" enable-background="new 0 0 511.798 511.798" height="512" viewBox="0 0 511.798 511.798" width="512"><g><path d="m278.179 330.798h-31.098l-8.247 30h31.098z" fill="#444444"/><path d="m255.899 511.798c107.52 0 195-88.48 195-196 0-94.395-44.941-157.515-87.07-185.156 0-.015-.029-.029-.059-.044v-.015c-6.943-4.497-16.23-2.622-20.771 4.336-4.541 6.929-2.607 16.216 4.307 20.757 8.525 5.581 13.594 14.971 13.594 25.122 0 16.538-13.447 30-30 30s-30-13.462-30-30c0-4.072.791-9.316 1.641-15.483 5.127-37.28 14.648-107.685-68.32-162.997-4.625-3.083-12.074-3.397-17.545.939-3.348 2.683-5.775 6.464-5.775 11.541 0 69.141-34.57 104.33-71.162 140.541-38.76 38.335-78.838 77.988-78.838 157.251v3.208c-.002 107.52 87.479 196 194.998 196zm-67.881-151h19.688l8.247-30h-11.411c-8.291 0-15-6.709-15-15s6.709-15 15-15h19.658l5.215-18.97c2.197-7.998 10.4-12.729 18.457-10.488 7.969 2.197 12.686 10.444 10.488 18.428l-3.032 11.03h31.099l5.215-18.97c2.197-7.998 10.4-12.729 18.457-10.488 7.969 2.197 12.686 10.444 10.488 18.428l-3.032 11.03h11.44c8.291 0 15 6.709 15 15s-6.709 15-15 15h-19.688l-8.247 30h11.44c8.291 0 15 6.709 15 15s-6.709 15-15 15h-19.688l-5.215 18.97c-2.175 7.854-10.288 12.708-18.457 10.488-7.969-2.197-12.686-10.444-10.488-18.428l3.032-11.03h-31.099l-5.215 18.97c-2.175 7.854-10.288 12.708-18.457 10.488-7.969-2.197-12.686-10.444-10.488-18.428l3.032-11.03h-11.44c-8.291 0-15-6.709-15-15s6.71-15 15.001-15z" fill="#444444"/><path d="m135.899 90.798c8.291 0 15-6.709 15-15v-30c0-8.291-6.709-15-15-15s-15 6.709-15 15v30c0 8.291 6.709 15 15 15z" fill="#444444"/><path d="m360.899 75.798v-30c0-8.291-6.709-15-15-15s-15 6.709-15 15v30c0 8.291 6.709 15 15 15s15-6.709 15-15z" fill="#444444"/></g></svg>