<svg xmlns="http://www.w3.org/2000/svg" xmlns:xlink="http://www.w3.org/1999/xlink" version="1.1" id="Capa_1" x="0px" y="0px" viewBox="0 0 512 512" style="enable-background:new 0 0 512 512;" xml:space="preserve" width="512" height="512">
<g>
	
		<line style="fill:none;stroke:#555555;stroke-width:30;stroke-linecap:round;stroke-linejoin:round;stroke-miterlimit:10;" x1="306.225" y1="287" x2="273.222" y2="407"/>
	
		<line style="fill:none;stroke:#555555;stroke-width:30;stroke-linecap:round;stroke-linejoin:round;stroke-miterlimit:10;" x1="204.634" y1="317" x2="329.097" y2="317"/>
	
		<line style="fill:none;stroke:#555555;stroke-width:30;stroke-linecap:round;stroke-linejoin:round;stroke-miterlimit:10;" x1="312.596" y1="377" x2="188.132" y2="377"/>
	
		<line style="fill:none;stroke:#555555;stroke-width:30;stroke-linecap:round;stroke-linejoin:round;stroke-miterlimit:10;" x1="211" y1="407" x2="244" y2="287"/>
	<path style="fill:none;stroke:#555555;stroke-width:30;stroke-linecap:round;stroke-linejoin:round;stroke-miterlimit:10;" d="&#10;&#9;&#9;M76,313.789C76,167,226,165,226,15"/>
	<path style="fill:none;stroke:#555555;stroke-width:30;stroke-linecap:round;stroke-linejoin:round;stroke-miterlimit:10;" d="&#10;&#9;&#9;M436,317c0,99.411-80.589,180-180,180S76,416.411,76,317"/>
	<path style="fill:none;stroke:#555555;stroke-width:30;stroke-linecap:round;stroke-linejoin:round;stroke-miterlimit:10;" d="&#10;&#9;&#9;M226,15c90,60,60,139.101,60,167c0,24.853,20.147,45,45,45s45-20.147,45-45c0-15.76-8.102-29.628-20.367-37.666&#10;&#9;&#9;C398.75,172.589,436,234.252,436,317"/>
	
		<line style="fill:none;stroke:#555555;stroke-width:30;stroke-linecap:round;stroke-linejoin:round;stroke-miterlimit:10;" x1="136" y1="46" x2="136" y2="76"/>
	
		<line style="fill:none;stroke:#555555;stroke-width:30;stroke-linecap:round;stroke-linejoin:round;stroke-miterlimit:10;" x1="346" y1="46" x2="346" y2="76"/>
</g>















</svg>