<svg width="29" height="30" viewBox="0 0 29 30" fill="none" xmlns="http://www.w3.org/2000/svg">
<path d="M17.3447 16.8164L15.4753 23.8477" stroke="#E4E4E4" stroke-width="1.75781" stroke-miterlimit="10" stroke-linecap="round" stroke-linejoin="round"/>
<path d="M11.5908 18.5742H18.6405" stroke="#E4E4E4" stroke-width="1.75781" stroke-miterlimit="10" stroke-linecap="round" stroke-linejoin="round"/>
<path d="M17.7057 22.0898H10.656" stroke="#E4E4E4" stroke-width="1.75781" stroke-miterlimit="10" stroke-linecap="round" stroke-linejoin="round"/>
<path d="M11.9512 23.8477L13.8203 16.8164" stroke="#E4E4E4" stroke-width="1.75781" stroke-miterlimit="10" stroke-linecap="round" stroke-linejoin="round"/>
<path d="M4.30469 18.3861C4.30469 9.78516 12.8008 9.66797 12.8008 0.878906" stroke="#E4E4E4" stroke-width="1.75781" stroke-miterlimit="10" stroke-linecap="round" stroke-linejoin="round"/>
<path d="M24.6953 18.5742C24.6953 24.3991 20.1307 29.1211 14.5 29.1211C8.8693 29.1211 4.30469 24.3991 4.30469 18.5742" stroke="#E4E4E4" stroke-width="1.75781" stroke-miterlimit="10" stroke-linecap="round" stroke-linejoin="round"/>
<path d="M12.8008 0.878906C17.8984 4.39453 16.1992 9.02936 16.1992 10.6641C16.1992 12.1203 17.3404 13.3008 18.748 13.3008C20.1557 13.3008 21.2969 12.1203 21.2969 10.6641C21.2969 9.74062 20.838 8.92805 20.1433 8.45707C22.5854 10.1126 24.6953 13.7257 24.6953 18.5742" stroke="#E4E4E4" stroke-width="1.75781" stroke-miterlimit="10" stroke-linecap="round" stroke-linejoin="round"/>
<path d="M7.70312 2.69531V4.45312" stroke="#E4E4E4" stroke-width="1.75781" stroke-miterlimit="10" stroke-linecap="round" stroke-linejoin="round"/>
<path d="M19.5977 2.69531V4.45312" stroke="#E4E4E4" stroke-width="1.75781" stroke-miterlimit="10" stroke-linecap="round" stroke-linejoin="round"/>
</svg>
