<svg width="22" height="30" viewBox="0 0 22 30" fill="none" xmlns="http://www.w3.org/2000/svg">
<path d="M12.2566 18.9639H10.5023L10.0371 20.6837H11.7914L12.2566 18.9639Z" fill="white"/>
<path d="M10.9999 29.3401C17.0652 29.3401 22 24.2678 22 18.1039C22 12.6925 19.4649 9.07395 17.0883 7.48936C17.0883 7.4885 17.0867 7.4877 17.085 7.48684V7.48598C16.6933 7.22818 16.1695 7.33567 15.9133 7.73455C15.6571 8.13177 15.7662 8.66417 16.1563 8.9245C16.6372 9.24444 16.9231 9.78275 16.9231 10.3647C16.9231 11.3128 16.1646 12.0845 15.2308 12.0845C14.297 12.0845 13.5385 11.3128 13.5385 10.3647C13.5385 10.1312 13.5831 9.83062 13.631 9.47708C13.9203 7.33991 14.4573 3.30376 9.77708 0.132861C9.51618 -0.0438797 9.09597 -0.0618806 8.78735 0.186692C8.59849 0.340501 8.46158 0.557257 8.46158 0.848309C8.46158 4.81199 6.51147 6.82929 4.44729 8.90518C2.26082 11.1028 1.93446e-09 13.376 1.93446e-09 17.92V18.1039C-0.000112819 24.2678 4.93474 29.3401 10.9999 29.3401ZM7.17074 20.6836H8.28135L8.74657 18.9638H8.10287C7.63517 18.9638 7.25671 18.5792 7.25671 18.1039C7.25671 17.6286 7.63517 17.244 8.10287 17.244H9.21179L9.50597 16.1565C9.6299 15.698 10.0926 15.4268 10.5471 15.5552C10.9967 15.6812 11.2628 16.154 11.1388 16.6117L10.9677 17.244H12.722L13.0162 16.1565C13.1402 15.698 13.6029 15.4268 14.0574 15.5552C14.5069 15.6812 14.773 16.154 14.649 16.6117L14.478 17.244H15.1233C15.591 17.244 15.9695 17.6286 15.9695 18.1039C15.9695 18.5792 15.591 18.9638 15.1233 18.9638H14.0127L13.5475 20.6836H14.1928C14.6605 20.6836 15.039 21.0683 15.039 21.5436C15.039 22.0189 14.6605 22.4035 14.1928 22.4035H13.0822L12.788 23.491C12.6654 23.9412 12.2077 24.2195 11.7469 24.0922C11.2973 23.9663 11.0313 23.4935 11.1552 23.0358L11.3263 22.4035H9.57197L9.27779 23.491C9.15509 23.9412 8.69743 24.2195 8.23662 24.0922C7.78708 23.9663 7.52099 23.4935 7.64498 23.0358L7.81602 22.4035H7.17068C6.70298 22.4035 6.32452 22.0189 6.32452 21.5436C6.32452 21.0683 6.70304 20.6836 7.17074 20.6836Z" fill="white"/>
<path d="M4.23044 5.20528C4.69814 5.20528 5.07659 4.82067 5.07659 4.34536V2.62554C5.07659 2.15024 4.69814 1.76562 4.23044 1.76562C3.76274 1.76562 3.38428 2.15024 3.38428 2.62554V4.34536C3.38428 4.82067 3.76274 5.20528 4.23044 5.20528Z" fill="white"/>
<path d="M16.923 4.34536V2.62554C16.923 2.15024 16.5446 1.76562 16.0769 1.76562C15.6092 1.76562 15.2307 2.15024 15.2307 2.62554V4.34536C15.2307 4.82067 15.6092 5.20528 16.0769 5.20528C16.5446 5.20528 16.923 4.82067 16.923 4.34536Z" fill="white"/>
</svg>
