<svg width="25" height="25" viewBox="0 0 25 25" fill="none" xmlns="http://www.w3.org/2000/svg">
<path d="M9.37484 11.1979C7.7915 11.1979 6.51025 9.91667 6.51025 8.33333C6.51025 6.75 7.7915 5.46875 9.37484 5.46875C10.9582 5.46875 12.2394 6.75 12.2394 8.33333C12.2394 9.91667 10.9582 11.1979 9.37484 11.1979ZM9.37484 7.03125C8.65609 7.03125 8.07275 7.61458 8.07275 8.33333C8.07275 9.05208 8.65609 9.63542 9.37484 9.63542C10.0936 9.63542 10.6769 9.05208 10.6769 8.33333C10.6769 7.61458 10.0936 7.03125 9.37484 7.03125Z" fill="#777777"/>
<path d="M15.6249 23.6981H9.37492C3.71867 23.6981 1.302 21.2814 1.302 15.6252V9.37516C1.302 3.71891 3.71867 1.30225 9.37492 1.30225H13.5416C13.9687 1.30225 14.3228 1.65641 14.3228 2.0835C14.3228 2.51058 13.9687 2.86475 13.5416 2.86475H9.37492C4.57284 2.86475 2.8645 4.57308 2.8645 9.37516V15.6252C2.8645 20.4272 4.57284 22.1356 9.37492 22.1356H15.6249C20.427 22.1356 22.1353 20.4272 22.1353 15.6252V10.4168C22.1353 9.98975 22.4895 9.63558 22.9166 9.63558C23.3437 9.63558 23.6978 9.98975 23.6978 10.4168V15.6252C23.6978 21.2814 21.2812 23.6981 15.6249 23.6981Z" fill="#777777"/>
<path d="M18.75 9.11493C18.3229 9.11493 17.9688 8.76076 17.9688 8.33368V2.08368C17.9688 1.77118 18.1562 1.47951 18.4479 1.36493C18.7396 1.25034 19.0729 1.31284 19.3021 1.53159L21.3854 3.61493C21.6875 3.91701 21.6875 4.41701 21.3854 4.71909C21.0833 5.02118 20.5833 5.02118 20.2812 4.71909L19.5313 3.96909V8.33368C19.5313 8.76076 19.1771 9.11493 18.75 9.11493Z" fill="#777777"/>
<path d="M16.6666 4.94792C16.4687 4.94792 16.2708 4.875 16.1145 4.71875C15.8124 4.41667 15.8124 3.91667 16.1145 3.61458L18.1978 1.53125C18.4999 1.22917 18.9999 1.22917 19.302 1.53125C19.6041 1.83333 19.6041 2.33333 19.302 2.63542L17.2187 4.71875C17.0624 4.875 16.8645 4.94792 16.6666 4.94792Z" fill="#777777"/>
<path d="M2.78103 20.521C2.53103 20.521 2.28103 20.396 2.13519 20.1772C1.89561 19.8231 1.98936 19.3335 2.34353 19.0939L7.47894 15.646C8.60394 14.896 10.156 14.9793 11.1769 15.8439L11.5206 16.146C12.0414 16.5939 12.9269 16.5939 13.4373 16.146L17.7706 12.4272C18.8748 11.4793 20.6144 11.4793 21.7289 12.4272L23.4269 13.8856C23.7498 14.1668 23.7914 14.6564 23.5102 14.9897C23.2289 15.3127 22.7289 15.3543 22.406 15.0731L20.7081 13.6147C20.1873 13.1668 19.3123 13.1668 18.7914 13.6147L14.4581 17.3335C13.3539 18.2814 11.6144 18.2814 10.4998 17.3335L10.156 17.0314C9.67686 16.6252 8.8852 16.5835 8.35395 16.9481L3.22894 20.396C3.08311 20.4793 2.92686 20.521 2.78103 20.521Z" fill="#777777"/>
</svg>
