<svg width="300" height="300" viewBox="0 0 300 300" fill="none" xmlns="http://www.w3.org/2000/svg">
<path d="M112.498 124.375C93.498 124.375 78.123 109 78.123 90C78.123 71 93.498 55.625 112.498 55.625C131.498 55.625 146.873 71 146.873 90C146.873 109 131.498 124.375 112.498 124.375ZM112.498 74.375C103.873 74.375 96.873 81.375 96.873 90C96.873 98.625 103.873 105.625 112.498 105.625C121.123 105.625 128.123 98.625 128.123 90C128.123 81.375 121.123 74.375 112.498 74.375Z" fill="#666666"/>
<path d="M187.499 274.377H112.499C44.6241 274.377 15.624 245.377 15.624 177.502V102.502C15.624 34.6269 44.6241 5.62695 112.499 5.62695H162.499C167.624 5.62695 171.874 9.87687 171.874 15.002C171.874 20.1269 167.624 24.377 162.499 24.377H112.499C54.8741 24.377 34.374 44.8769 34.374 102.502V177.502C34.374 235.126 54.8741 255.627 112.499 255.627H187.499C245.124 255.627 265.624 235.126 265.624 177.502V115.002C265.624 109.877 269.874 105.627 274.999 105.627C280.124 105.627 284.374 109.877 284.374 115.002V177.502C284.374 245.377 255.374 274.377 187.499 274.377Z" fill="#666666"/>
<path d="M225 99.3792C219.875 99.3792 215.626 95.1291 215.626 90.0042V15.0042C215.626 11.2542 217.875 7.75414 221.375 6.37918C224.876 5.0041 228.875 5.7541 231.626 8.3791L256.625 33.3792C260.25 37.0041 260.25 43.0041 256.625 46.6291C253 50.2542 247 50.2542 243.375 46.6291L234.376 37.6291V90.0042C234.376 95.1291 230.126 99.3792 225 99.3792Z" fill="#666666"/>
<path d="M199.999 49.375C197.625 49.375 195.25 48.5 193.374 46.625C189.749 43 189.749 37 193.374 33.3749L218.374 8.37497C221.999 4.75001 227.999 4.75001 231.624 8.37497C235.249 11.9999 235.249 17.9999 231.624 21.625L206.625 46.625C204.749 48.5 202.374 49.375 199.999 49.375Z" fill="#666666"/>
<path d="M33.3724 236.252C30.3724 236.252 27.3724 234.752 25.6223 232.127C22.7473 227.878 23.8723 222.002 28.1224 219.127L89.7473 177.752C103.247 168.752 121.872 169.752 134.123 180.127L138.247 183.752C144.497 189.127 155.123 189.127 161.248 183.752L213.247 139.127C226.498 127.752 247.373 127.752 260.747 139.127L281.123 156.628C284.998 160.002 285.497 165.877 282.122 169.877C278.747 173.753 272.747 174.252 268.872 170.878L248.497 153.377C242.248 148.002 231.748 148.002 225.497 153.377L173.497 198.002C160.247 209.377 139.373 209.377 125.998 198.002L121.872 194.377C116.122 189.503 106.622 189.002 100.247 193.378L38.7473 234.752C36.9973 235.752 35.1223 236.252 33.3724 236.252Z" fill="#666666"/>
</svg>
